G04 #@! TF.GenerationSoftware,KiCad,Pcbnew,(5.1.4-0-10_14)*
G04 #@! TF.CreationDate,2020-03-30T10:54:37+02:00*
G04 #@! TF.ProjectId,kapukiTRX-hw-trx,6b617075-6b69-4545-9258-2d68772d7472,rev?*
G04 #@! TF.SameCoordinates,Original*
G04 #@! TF.FileFunction,Copper,L3,Inr*
G04 #@! TF.FilePolarity,Positive*
%FSLAX46Y46*%
G04 Gerber Fmt 4.6, Leading zero omitted, Abs format (unit mm)*
G04 Created by KiCad (PCBNEW (5.1.4-0-10_14)) date 2020-03-30 10:54:37*
%MOMM*%
%LPD*%
G04 APERTURE LIST*
%ADD10C,0.300000*%
%ADD11R,1.700000X1.700000*%
%ADD12C,0.685800*%
%ADD13C,0.457200*%
%ADD14C,0.254000*%
%ADD15C,0.381000*%
%ADD16C,0.127000*%
G04 APERTURE END LIST*
D10*
X209792142Y-121582571D02*
X209792142Y-120082571D01*
X210363571Y-120082571D01*
X210506428Y-120154000D01*
X210577857Y-120225428D01*
X210649285Y-120368285D01*
X210649285Y-120582571D01*
X210577857Y-120725428D01*
X210506428Y-120796857D01*
X210363571Y-120868285D01*
X209792142Y-120868285D01*
D11*
X215392000Y-116205000D03*
D12*
X180594000Y-116840000D03*
X181356000Y-116840000D03*
X181356000Y-115824000D03*
X180594000Y-115824000D03*
X182753000Y-104902000D03*
X183515000Y-104902000D03*
X183515000Y-103759000D03*
X182753000Y-103759000D03*
X203835000Y-98298000D03*
X204597000Y-98298000D03*
D13*
X204597000Y-97282000D03*
D12*
X203835000Y-97282000D03*
X193491049Y-98979856D03*
X194132200Y-98983800D03*
X193498510Y-99617490D03*
X194152486Y-99608659D03*
D13*
X186929000Y-100104400D03*
D12*
X188229000Y-96733600D03*
X189456200Y-107901600D03*
X213360000Y-96774000D03*
X213360000Y-99187000D03*
X213360000Y-101727000D03*
X213360000Y-104394000D03*
X213614000Y-109220000D03*
X213614000Y-111760000D03*
D13*
X213614000Y-114300000D03*
X205841600Y-102895400D03*
D12*
X213360000Y-106934000D03*
X173859570Y-117471570D03*
D13*
X178435000Y-117983000D03*
D12*
X195602860Y-117325140D03*
X201930000Y-110998000D03*
X206250400Y-97787600D03*
X209423000Y-101600000D03*
X176403000Y-107188000D03*
D13*
X182893000Y-110096000D03*
X178054000Y-96901000D03*
D12*
X174117000Y-99060000D03*
X176911000Y-111125000D03*
D13*
X193167000Y-108204000D03*
X193016168Y-110894832D03*
X186182000Y-106934000D03*
D12*
X184658000Y-111887000D03*
X213233000Y-118618000D03*
X183515000Y-117856000D03*
D13*
X198424800Y-108483400D03*
X195583571Y-110480062D03*
D12*
X178943000Y-102489000D03*
D13*
X191897000Y-104394000D03*
X195100357Y-106096648D03*
D12*
X183896000Y-94538800D03*
X208661000Y-110617000D03*
D13*
X191719200Y-117094000D03*
D12*
X188193856Y-115158344D03*
X191881760Y-118280180D03*
X189634300Y-94547915D03*
X185923744Y-99999800D03*
X202565000Y-119253000D03*
D13*
X195021200Y-96499680D03*
X198196191Y-103276400D03*
X198196191Y-102463600D03*
X198196191Y-101701600D03*
X198196191Y-100914200D03*
X195021200Y-102895400D03*
X196011800Y-104013008D03*
X196621400Y-102895400D03*
X195326000Y-104648000D03*
X196621400Y-102082600D03*
D12*
X182315000Y-118561000D03*
D13*
X189153800Y-104343200D03*
X189153800Y-103301800D03*
X189153800Y-102489000D03*
X189001400Y-101269800D03*
X189204600Y-100558600D03*
X191088999Y-103972021D03*
X190718879Y-104571792D03*
X190383549Y-104093414D03*
X191812754Y-104997763D03*
X191560625Y-115469490D03*
X195027652Y-100495000D03*
X193421000Y-100501651D03*
X193424417Y-98098206D03*
X195021001Y-98088348D03*
D12*
X202057000Y-97790000D03*
X177292000Y-101092000D03*
D13*
X194310000Y-109220000D03*
X196977000Y-106553000D03*
X194310000Y-104648000D03*
X204343000Y-104775000D03*
X187198000Y-102641400D03*
D12*
X181152800Y-96647000D03*
X181203600Y-94500344D03*
X188214000Y-117602000D03*
X188214000Y-118872000D03*
D13*
X193929000Y-94716600D03*
D12*
X203581000Y-116713000D03*
X203784200Y-112293400D03*
X207899000Y-98161600D03*
X207899000Y-97536000D03*
X180975000Y-103505000D03*
X215392000Y-111760000D03*
X181737000Y-114735898D03*
X214630000Y-111760000D03*
X180975000Y-114735898D03*
D13*
X192657231Y-102867923D03*
X184346083Y-108954083D03*
D12*
X207391000Y-104563992D03*
D13*
X184277000Y-99187000D03*
X176657000Y-97155000D03*
X189204600Y-99771200D03*
X196621400Y-97282000D03*
X173405800Y-100050600D03*
X195808600Y-98094800D03*
X174015400Y-98044000D03*
X198399400Y-107746800D03*
X200101200Y-110236001D03*
X200558400Y-108813600D03*
X191033400Y-102108000D03*
X200507600Y-107950000D03*
X191870515Y-101244399D03*
X200583800Y-107213400D03*
X191820800Y-100507800D03*
X182761444Y-108060044D03*
X191820800Y-97282000D03*
X182113751Y-111222351D03*
X188645800Y-103962200D03*
X191820800Y-98094800D03*
X191820800Y-102082600D03*
X179628800Y-118008400D03*
X193418460Y-97294700D03*
X189723414Y-106159954D03*
X187960000Y-104241600D03*
X187096400Y-105587800D03*
X193098420Y-105120440D03*
X195821300Y-98887280D03*
X194233800Y-102082600D03*
X193855340Y-106535220D03*
X195021200Y-102082600D03*
X195234560Y-106873040D03*
X195808600Y-101295200D03*
X193512632Y-107176385D03*
X192608200Y-117652799D03*
X205841600Y-104013000D03*
X195770500Y-97332800D03*
X201345800Y-95910400D03*
X212547200Y-120624600D03*
X205816200Y-111455200D03*
X194995800Y-97307400D03*
X199593200Y-95250000D03*
X179070000Y-111277400D03*
X190220600Y-97282000D03*
X195808600Y-100482400D03*
X204012800Y-100838000D03*
X191820800Y-96469200D03*
D14*
X195011143Y-98098206D02*
X195021001Y-98088348D01*
D15*
X180975000Y-114808000D02*
X180975000Y-113665000D01*
X180975000Y-113284000D02*
X180975000Y-103505000D01*
X180975000Y-113665000D02*
X180975000Y-113284000D01*
X213710888Y-113665000D02*
X215049101Y-112326787D01*
X215049101Y-112326787D02*
X215392000Y-111983888D01*
X180975000Y-113284000D02*
X213644102Y-113284000D01*
X181737000Y-113665000D02*
X181737000Y-114735898D01*
X181737000Y-113665000D02*
X213710888Y-113665000D01*
X180975000Y-113665000D02*
X181737000Y-113665000D01*
X214645051Y-111775051D02*
X214630000Y-111760000D01*
X214645051Y-112283051D02*
X214645051Y-111775051D01*
X213644102Y-113284000D02*
X214645051Y-112283051D01*
X214630000Y-111760000D02*
X215392000Y-111760000D01*
X214645051Y-112379949D02*
X215392000Y-111633000D01*
D14*
X202226991Y-109728001D02*
X207162401Y-104792591D01*
X207162401Y-104792591D02*
X207391000Y-104563992D01*
X185120001Y-109728001D02*
X202226991Y-109728001D01*
X184346083Y-108954083D02*
X185120001Y-109728001D01*
D16*
X189623701Y-100291899D02*
X191820800Y-98094800D01*
X189623701Y-101267769D02*
X189623701Y-100291899D01*
X188645800Y-103962200D02*
X188645800Y-102245670D01*
X188645800Y-102245670D02*
X189623701Y-101267769D01*
X189964448Y-100748712D02*
X189964448Y-105861732D01*
X193418460Y-97294700D02*
X189964448Y-100748712D01*
X189964448Y-105861732D02*
X189723414Y-106102766D01*
X189723414Y-106102766D02*
X189723414Y-106159954D01*
X187934600Y-104216200D02*
X187960000Y-104241600D01*
X193101732Y-105117128D02*
X193098420Y-105120440D01*
X193101732Y-101609388D02*
X193101732Y-105117128D01*
X193762428Y-100948692D02*
X193101732Y-101609388D01*
X195821300Y-98887280D02*
X193762428Y-100946152D01*
X193762428Y-100946152D02*
X193762428Y-100948692D01*
X193855340Y-102461060D02*
X193855340Y-106211931D01*
X193855340Y-106211931D02*
X193855340Y-106535220D01*
X194233800Y-102082600D02*
X193855340Y-102461060D01*
X195745101Y-106362499D02*
X195234560Y-106873040D01*
X195440301Y-102501701D02*
X195440301Y-104142031D01*
X195745101Y-104446831D02*
X195745101Y-106362499D01*
X195440301Y-104142031D02*
X195745101Y-104446831D01*
X195021200Y-102082600D02*
X195440301Y-102501701D01*
X193284033Y-106947786D02*
X193512632Y-107176385D01*
X195808600Y-101295200D02*
X194400930Y-101295200D01*
X193577406Y-102118724D02*
X193577406Y-106154782D01*
X194400930Y-101295200D02*
X193577406Y-102118724D01*
X193577406Y-106154782D02*
X193284033Y-106448155D01*
X193284033Y-106448155D02*
X193284033Y-106947786D01*
X197192900Y-95910400D02*
X201345800Y-95910400D01*
X195770500Y-97332800D02*
X197192900Y-95910400D01*
X199483727Y-95140527D02*
X199593200Y-95250000D01*
X197053200Y-95250000D02*
X199593200Y-95250000D01*
X194995800Y-97307400D02*
X197053200Y-95250000D01*
D14*
G36*
X183172100Y-94467502D02*
G01*
X183172100Y-94610098D01*
X183199919Y-94749954D01*
X183254488Y-94881695D01*
X183333710Y-95000260D01*
X183434540Y-95101090D01*
X183553105Y-95180312D01*
X183684846Y-95234881D01*
X183824702Y-95262700D01*
X183967298Y-95262700D01*
X184107154Y-95234881D01*
X184238895Y-95180312D01*
X184357460Y-95101090D01*
X184458290Y-95000260D01*
X184537512Y-94881695D01*
X184592081Y-94749954D01*
X184619900Y-94610098D01*
X184619900Y-94467502D01*
X184603688Y-94386000D01*
X188928425Y-94386000D01*
X188910400Y-94476617D01*
X188910400Y-94619213D01*
X188938219Y-94759069D01*
X188992788Y-94890810D01*
X189072010Y-95009375D01*
X189172840Y-95110205D01*
X189291405Y-95189427D01*
X189423146Y-95243996D01*
X189563002Y-95271815D01*
X189705598Y-95271815D01*
X189845454Y-95243996D01*
X189977195Y-95189427D01*
X190095760Y-95110205D01*
X190196590Y-95009375D01*
X190275812Y-94890810D01*
X190330381Y-94759069D01*
X190358200Y-94619213D01*
X190358200Y-94476617D01*
X190340175Y-94386000D01*
X216764001Y-94386000D01*
X216764000Y-121514000D01*
X211466000Y-121514000D01*
X211466000Y-120564560D01*
X211937600Y-120564560D01*
X211937600Y-120684640D01*
X211961026Y-120802414D01*
X212006979Y-120913354D01*
X212073692Y-121013198D01*
X212158602Y-121098108D01*
X212258446Y-121164821D01*
X212369386Y-121210774D01*
X212487160Y-121234200D01*
X212607240Y-121234200D01*
X212725014Y-121210774D01*
X212835954Y-121164821D01*
X212935798Y-121098108D01*
X213020708Y-121013198D01*
X213087421Y-120913354D01*
X213133374Y-120802414D01*
X213156800Y-120684640D01*
X213156800Y-120564560D01*
X213133374Y-120446786D01*
X213087421Y-120335846D01*
X213020708Y-120236002D01*
X212935798Y-120151092D01*
X212835954Y-120084379D01*
X212725014Y-120038426D01*
X212607240Y-120015000D01*
X212487160Y-120015000D01*
X212369386Y-120038426D01*
X212258446Y-120084379D01*
X212158602Y-120151092D01*
X212073692Y-120236002D01*
X212006979Y-120335846D01*
X211961026Y-120446786D01*
X211937600Y-120564560D01*
X211466000Y-120564560D01*
X211466000Y-119368000D01*
X208904000Y-119368000D01*
X208904000Y-119380000D01*
X207518000Y-119380000D01*
X207493224Y-119382440D01*
X207469399Y-119389667D01*
X207447443Y-119401403D01*
X207428197Y-119417197D01*
X207412403Y-119436443D01*
X207400667Y-119458399D01*
X207393440Y-119482224D01*
X207391000Y-119507000D01*
X207391000Y-121514000D01*
X171856000Y-121514000D01*
X171856000Y-117400272D01*
X173135670Y-117400272D01*
X173135670Y-117542868D01*
X173163489Y-117682724D01*
X173218058Y-117814465D01*
X173297280Y-117933030D01*
X173398110Y-118033860D01*
X173516675Y-118113082D01*
X173648416Y-118167651D01*
X173788272Y-118195470D01*
X173930868Y-118195470D01*
X174070724Y-118167651D01*
X174202465Y-118113082D01*
X174321030Y-118033860D01*
X174421860Y-117933030D01*
X174428588Y-117922960D01*
X177825400Y-117922960D01*
X177825400Y-118043040D01*
X177848826Y-118160814D01*
X177894779Y-118271754D01*
X177961492Y-118371598D01*
X178046402Y-118456508D01*
X178146246Y-118523221D01*
X178257186Y-118569174D01*
X178374960Y-118592600D01*
X178495040Y-118592600D01*
X178612814Y-118569174D01*
X178723754Y-118523221D01*
X178823598Y-118456508D01*
X178908508Y-118371598D01*
X178975221Y-118271754D01*
X179021174Y-118160814D01*
X179029374Y-118119589D01*
X179042626Y-118186214D01*
X179088579Y-118297154D01*
X179155292Y-118396998D01*
X179240202Y-118481908D01*
X179340046Y-118548621D01*
X179450986Y-118594574D01*
X179568760Y-118618000D01*
X179688840Y-118618000D01*
X179806614Y-118594574D01*
X179917554Y-118548621D01*
X180005733Y-118489702D01*
X181591100Y-118489702D01*
X181591100Y-118632298D01*
X181618919Y-118772154D01*
X181673488Y-118903895D01*
X181752710Y-119022460D01*
X181853540Y-119123290D01*
X181972105Y-119202512D01*
X182103846Y-119257081D01*
X182243702Y-119284900D01*
X182386298Y-119284900D01*
X182526154Y-119257081D01*
X182657895Y-119202512D01*
X182689039Y-119181702D01*
X201841100Y-119181702D01*
X201841100Y-119324298D01*
X201868919Y-119464154D01*
X201923488Y-119595895D01*
X202002710Y-119714460D01*
X202103540Y-119815290D01*
X202222105Y-119894512D01*
X202353846Y-119949081D01*
X202493702Y-119976900D01*
X202636298Y-119976900D01*
X202776154Y-119949081D01*
X202907895Y-119894512D01*
X203026460Y-119815290D01*
X203127290Y-119714460D01*
X203206512Y-119595895D01*
X203261081Y-119464154D01*
X203288900Y-119324298D01*
X203288900Y-119181702D01*
X203261081Y-119041846D01*
X203206512Y-118910105D01*
X203127290Y-118791540D01*
X203026460Y-118690710D01*
X202907895Y-118611488D01*
X202776154Y-118556919D01*
X202724790Y-118546702D01*
X212509100Y-118546702D01*
X212509100Y-118689298D01*
X212536919Y-118829154D01*
X212591488Y-118960895D01*
X212670710Y-119079460D01*
X212771540Y-119180290D01*
X212890105Y-119259512D01*
X213021846Y-119314081D01*
X213161702Y-119341900D01*
X213304298Y-119341900D01*
X213444154Y-119314081D01*
X213575895Y-119259512D01*
X213694460Y-119180290D01*
X213795290Y-119079460D01*
X213874512Y-118960895D01*
X213929081Y-118829154D01*
X213956900Y-118689298D01*
X213956900Y-118546702D01*
X213929081Y-118406846D01*
X213874512Y-118275105D01*
X213795290Y-118156540D01*
X213694460Y-118055710D01*
X213575895Y-117976488D01*
X213444154Y-117921919D01*
X213304298Y-117894100D01*
X213161702Y-117894100D01*
X213021846Y-117921919D01*
X212890105Y-117976488D01*
X212771540Y-118055710D01*
X212670710Y-118156540D01*
X212591488Y-118275105D01*
X212536919Y-118406846D01*
X212509100Y-118546702D01*
X202724790Y-118546702D01*
X202636298Y-118529100D01*
X202493702Y-118529100D01*
X202353846Y-118556919D01*
X202222105Y-118611488D01*
X202103540Y-118690710D01*
X202002710Y-118791540D01*
X201923488Y-118910105D01*
X201868919Y-119041846D01*
X201841100Y-119181702D01*
X182689039Y-119181702D01*
X182776460Y-119123290D01*
X182877290Y-119022460D01*
X182956512Y-118903895D01*
X183011081Y-118772154D01*
X183038900Y-118632298D01*
X183038900Y-118489702D01*
X183017533Y-118382283D01*
X183053540Y-118418290D01*
X183172105Y-118497512D01*
X183303846Y-118552081D01*
X183443702Y-118579900D01*
X183586298Y-118579900D01*
X183726154Y-118552081D01*
X183857895Y-118497512D01*
X183976460Y-118418290D01*
X184077290Y-118317460D01*
X184156512Y-118198895D01*
X184211081Y-118067154D01*
X184238900Y-117927298D01*
X184238900Y-117784702D01*
X184211081Y-117644846D01*
X184156512Y-117513105D01*
X184077290Y-117394540D01*
X183976460Y-117293710D01*
X183857895Y-117214488D01*
X183726154Y-117159919D01*
X183586298Y-117132100D01*
X183443702Y-117132100D01*
X183303846Y-117159919D01*
X183172105Y-117214488D01*
X183053540Y-117293710D01*
X182952710Y-117394540D01*
X182873488Y-117513105D01*
X182818919Y-117644846D01*
X182791100Y-117784702D01*
X182791100Y-117927298D01*
X182812467Y-118034717D01*
X182776460Y-117998710D01*
X182657895Y-117919488D01*
X182526154Y-117864919D01*
X182386298Y-117837100D01*
X182243702Y-117837100D01*
X182103846Y-117864919D01*
X181972105Y-117919488D01*
X181853540Y-117998710D01*
X181752710Y-118099540D01*
X181673488Y-118218105D01*
X181618919Y-118349846D01*
X181591100Y-118489702D01*
X180005733Y-118489702D01*
X180017398Y-118481908D01*
X180102308Y-118396998D01*
X180169021Y-118297154D01*
X180214974Y-118186214D01*
X180238400Y-118068440D01*
X180238400Y-117948360D01*
X180214974Y-117830586D01*
X180169021Y-117719646D01*
X180102308Y-117619802D01*
X180017398Y-117534892D01*
X179917554Y-117468179D01*
X179806614Y-117422226D01*
X179688840Y-117398800D01*
X179568760Y-117398800D01*
X179450986Y-117422226D01*
X179340046Y-117468179D01*
X179240202Y-117534892D01*
X179155292Y-117619802D01*
X179088579Y-117719646D01*
X179042626Y-117830586D01*
X179034426Y-117871811D01*
X179021174Y-117805186D01*
X178975221Y-117694246D01*
X178908508Y-117594402D01*
X178823598Y-117509492D01*
X178723754Y-117442779D01*
X178612814Y-117396826D01*
X178495040Y-117373400D01*
X178374960Y-117373400D01*
X178257186Y-117396826D01*
X178146246Y-117442779D01*
X178046402Y-117509492D01*
X177961492Y-117594402D01*
X177894779Y-117694246D01*
X177848826Y-117805186D01*
X177825400Y-117922960D01*
X174428588Y-117922960D01*
X174501082Y-117814465D01*
X174555651Y-117682724D01*
X174583470Y-117542868D01*
X174583470Y-117400272D01*
X174555651Y-117260416D01*
X174501082Y-117128675D01*
X174421860Y-117010110D01*
X174321030Y-116909280D01*
X174202465Y-116830058D01*
X174070724Y-116775489D01*
X173930868Y-116747670D01*
X173788272Y-116747670D01*
X173648416Y-116775489D01*
X173516675Y-116830058D01*
X173398110Y-116909280D01*
X173297280Y-117010110D01*
X173218058Y-117128675D01*
X173163489Y-117260416D01*
X173135670Y-117400272D01*
X171856000Y-117400272D01*
X171856000Y-115752702D01*
X179870100Y-115752702D01*
X179870100Y-115895298D01*
X179897919Y-116035154D01*
X179952488Y-116166895D01*
X180031710Y-116285460D01*
X180078250Y-116332000D01*
X180031710Y-116378540D01*
X179952488Y-116497105D01*
X179897919Y-116628846D01*
X179870100Y-116768702D01*
X179870100Y-116911298D01*
X179897919Y-117051154D01*
X179952488Y-117182895D01*
X180031710Y-117301460D01*
X180132540Y-117402290D01*
X180251105Y-117481512D01*
X180382846Y-117536081D01*
X180522702Y-117563900D01*
X180665298Y-117563900D01*
X180805154Y-117536081D01*
X180936895Y-117481512D01*
X180975000Y-117456051D01*
X181013105Y-117481512D01*
X181144846Y-117536081D01*
X181284702Y-117563900D01*
X181427298Y-117563900D01*
X181567154Y-117536081D01*
X181698895Y-117481512D01*
X181817460Y-117402290D01*
X181918290Y-117301460D01*
X181997512Y-117182895D01*
X182052081Y-117051154D01*
X182055501Y-117033960D01*
X191109600Y-117033960D01*
X191109600Y-117154040D01*
X191133026Y-117271814D01*
X191178979Y-117382754D01*
X191245692Y-117482598D01*
X191330602Y-117567508D01*
X191430446Y-117634221D01*
X191501483Y-117663646D01*
X191420300Y-117717890D01*
X191319470Y-117818720D01*
X191240248Y-117937285D01*
X191185679Y-118069026D01*
X191157860Y-118208882D01*
X191157860Y-118351478D01*
X191185679Y-118491334D01*
X191240248Y-118623075D01*
X191319470Y-118741640D01*
X191420300Y-118842470D01*
X191538865Y-118921692D01*
X191670606Y-118976261D01*
X191810462Y-119004080D01*
X191953058Y-119004080D01*
X192092914Y-118976261D01*
X192224655Y-118921692D01*
X192343220Y-118842470D01*
X192444050Y-118741640D01*
X192523272Y-118623075D01*
X192577841Y-118491334D01*
X192605660Y-118351478D01*
X192605660Y-118262399D01*
X192668240Y-118262399D01*
X192786014Y-118238973D01*
X192896954Y-118193020D01*
X192996798Y-118126307D01*
X193081708Y-118041397D01*
X193148421Y-117941553D01*
X193194374Y-117830613D01*
X193217800Y-117712839D01*
X193217800Y-117592759D01*
X193194374Y-117474985D01*
X193148421Y-117364045D01*
X193081708Y-117264201D01*
X193071349Y-117253842D01*
X194878960Y-117253842D01*
X194878960Y-117396438D01*
X194906779Y-117536294D01*
X194961348Y-117668035D01*
X195040570Y-117786600D01*
X195141400Y-117887430D01*
X195259965Y-117966652D01*
X195391706Y-118021221D01*
X195531562Y-118049040D01*
X195674158Y-118049040D01*
X195814014Y-118021221D01*
X195945755Y-117966652D01*
X196064320Y-117887430D01*
X196165150Y-117786600D01*
X196244372Y-117668035D01*
X196298941Y-117536294D01*
X196326760Y-117396438D01*
X196326760Y-117253842D01*
X196298941Y-117113986D01*
X196244372Y-116982245D01*
X196165150Y-116863680D01*
X196064320Y-116762850D01*
X195945755Y-116683628D01*
X195814014Y-116629059D01*
X195674158Y-116601240D01*
X195531562Y-116601240D01*
X195391706Y-116629059D01*
X195259965Y-116683628D01*
X195141400Y-116762850D01*
X195040570Y-116863680D01*
X194961348Y-116982245D01*
X194906779Y-117113986D01*
X194878960Y-117253842D01*
X193071349Y-117253842D01*
X192996798Y-117179291D01*
X192896954Y-117112578D01*
X192786014Y-117066625D01*
X192668240Y-117043199D01*
X192548160Y-117043199D01*
X192430386Y-117066625D01*
X192328800Y-117108703D01*
X192328800Y-117033960D01*
X192305374Y-116916186D01*
X192259421Y-116805246D01*
X192192708Y-116705402D01*
X192107798Y-116620492D01*
X192007954Y-116553779D01*
X191897014Y-116507826D01*
X191779240Y-116484400D01*
X191659160Y-116484400D01*
X191541386Y-116507826D01*
X191430446Y-116553779D01*
X191330602Y-116620492D01*
X191245692Y-116705402D01*
X191178979Y-116805246D01*
X191133026Y-116916186D01*
X191109600Y-117033960D01*
X182055501Y-117033960D01*
X182079900Y-116911298D01*
X182079900Y-116768702D01*
X182052081Y-116628846D01*
X181997512Y-116497105D01*
X181918290Y-116378540D01*
X181871750Y-116332000D01*
X181918290Y-116285460D01*
X181997512Y-116166895D01*
X182052081Y-116035154D01*
X182079900Y-115895298D01*
X182079900Y-115752702D01*
X182052081Y-115612846D01*
X181997512Y-115481105D01*
X181961103Y-115426615D01*
X182079895Y-115377410D01*
X182198460Y-115298188D01*
X182299290Y-115197358D01*
X182372997Y-115087046D01*
X187469956Y-115087046D01*
X187469956Y-115229642D01*
X187497775Y-115369498D01*
X187552344Y-115501239D01*
X187631566Y-115619804D01*
X187732396Y-115720634D01*
X187850961Y-115799856D01*
X187982702Y-115854425D01*
X188122558Y-115882244D01*
X188265154Y-115882244D01*
X188405010Y-115854425D01*
X188536751Y-115799856D01*
X188655316Y-115720634D01*
X188756146Y-115619804D01*
X188835368Y-115501239D01*
X188889937Y-115369498D01*
X188892820Y-115355000D01*
X214159157Y-115355000D01*
X214159157Y-117055000D01*
X214166513Y-117129689D01*
X214188299Y-117201508D01*
X214223678Y-117267696D01*
X214271289Y-117325711D01*
X214329304Y-117373322D01*
X214395492Y-117408701D01*
X214467311Y-117430487D01*
X214542000Y-117437843D01*
X216242000Y-117437843D01*
X216316689Y-117430487D01*
X216388508Y-117408701D01*
X216454696Y-117373322D01*
X216512711Y-117325711D01*
X216560322Y-117267696D01*
X216595701Y-117201508D01*
X216617487Y-117129689D01*
X216624843Y-117055000D01*
X216624843Y-115355000D01*
X216617487Y-115280311D01*
X216595701Y-115208492D01*
X216560322Y-115142304D01*
X216512711Y-115084289D01*
X216454696Y-115036678D01*
X216388508Y-115001299D01*
X216316689Y-114979513D01*
X216242000Y-114972157D01*
X214542000Y-114972157D01*
X214467311Y-114979513D01*
X214395492Y-115001299D01*
X214329304Y-115036678D01*
X214271289Y-115084289D01*
X214223678Y-115142304D01*
X214188299Y-115208492D01*
X214166513Y-115280311D01*
X214159157Y-115355000D01*
X188892820Y-115355000D01*
X188917756Y-115229642D01*
X188917756Y-115087046D01*
X188889937Y-114947190D01*
X188835368Y-114815449D01*
X188756146Y-114696884D01*
X188655316Y-114596054D01*
X188536751Y-114516832D01*
X188405010Y-114462263D01*
X188265154Y-114434444D01*
X188122558Y-114434444D01*
X187982702Y-114462263D01*
X187850961Y-114516832D01*
X187732396Y-114596054D01*
X187631566Y-114696884D01*
X187552344Y-114815449D01*
X187497775Y-114947190D01*
X187469956Y-115087046D01*
X182372997Y-115087046D01*
X182378512Y-115078793D01*
X182433081Y-114947052D01*
X182460900Y-114807196D01*
X182460900Y-114664600D01*
X182433081Y-114524744D01*
X182378512Y-114393003D01*
X182308500Y-114288222D01*
X182308500Y-114236500D01*
X213005088Y-114236500D01*
X213004400Y-114239960D01*
X213004400Y-114360040D01*
X213027826Y-114477814D01*
X213073779Y-114588754D01*
X213140492Y-114688598D01*
X213225402Y-114773508D01*
X213325246Y-114840221D01*
X213436186Y-114886174D01*
X213553960Y-114909600D01*
X213674040Y-114909600D01*
X213791814Y-114886174D01*
X213902754Y-114840221D01*
X214002598Y-114773508D01*
X214087508Y-114688598D01*
X214154221Y-114588754D01*
X214200174Y-114477814D01*
X214223600Y-114360040D01*
X214223600Y-114239960D01*
X214200174Y-114122186D01*
X214159681Y-114024429D01*
X215473063Y-112711048D01*
X215473068Y-112711042D01*
X215815962Y-112368148D01*
X215854228Y-112321522D01*
X215954290Y-112221460D01*
X216033512Y-112102895D01*
X216088081Y-111971154D01*
X216115900Y-111831298D01*
X216115900Y-111688702D01*
X216088081Y-111548846D01*
X216033512Y-111417105D01*
X215954290Y-111298540D01*
X215853460Y-111197710D01*
X215734895Y-111118488D01*
X215603154Y-111063919D01*
X215463298Y-111036100D01*
X215320702Y-111036100D01*
X215180846Y-111063919D01*
X215049105Y-111118488D01*
X215011000Y-111143949D01*
X214972895Y-111118488D01*
X214841154Y-111063919D01*
X214701298Y-111036100D01*
X214558702Y-111036100D01*
X214418846Y-111063919D01*
X214287105Y-111118488D01*
X214168540Y-111197710D01*
X214122000Y-111244250D01*
X214075460Y-111197710D01*
X213956895Y-111118488D01*
X213825154Y-111063919D01*
X213685298Y-111036100D01*
X213542702Y-111036100D01*
X213402846Y-111063919D01*
X213271105Y-111118488D01*
X213152540Y-111197710D01*
X213051710Y-111298540D01*
X212972488Y-111417105D01*
X212917919Y-111548846D01*
X212890100Y-111688702D01*
X212890100Y-111831298D01*
X212917919Y-111971154D01*
X212972488Y-112102895D01*
X213051710Y-112221460D01*
X213152540Y-112322290D01*
X213271105Y-112401512D01*
X213402846Y-112456081D01*
X213542702Y-112483900D01*
X213635980Y-112483900D01*
X213407380Y-112712500D01*
X181546500Y-112712500D01*
X181546500Y-111445849D01*
X181573530Y-111511105D01*
X181640243Y-111610949D01*
X181725153Y-111695859D01*
X181824997Y-111762572D01*
X181935937Y-111808525D01*
X182053711Y-111831951D01*
X182173791Y-111831951D01*
X182255482Y-111815702D01*
X183934100Y-111815702D01*
X183934100Y-111958298D01*
X183961919Y-112098154D01*
X184016488Y-112229895D01*
X184095710Y-112348460D01*
X184196540Y-112449290D01*
X184315105Y-112528512D01*
X184446846Y-112583081D01*
X184586702Y-112610900D01*
X184729298Y-112610900D01*
X184869154Y-112583081D01*
X185000895Y-112528512D01*
X185119460Y-112449290D01*
X185220290Y-112348460D01*
X185299512Y-112229895D01*
X185354081Y-112098154D01*
X185381900Y-111958298D01*
X185381900Y-111815702D01*
X185354081Y-111675846D01*
X185299512Y-111544105D01*
X185220290Y-111425540D01*
X185119460Y-111324710D01*
X185000895Y-111245488D01*
X184869154Y-111190919D01*
X184729298Y-111163100D01*
X184586702Y-111163100D01*
X184446846Y-111190919D01*
X184315105Y-111245488D01*
X184196540Y-111324710D01*
X184095710Y-111425540D01*
X184016488Y-111544105D01*
X183961919Y-111675846D01*
X183934100Y-111815702D01*
X182255482Y-111815702D01*
X182291565Y-111808525D01*
X182402505Y-111762572D01*
X182502349Y-111695859D01*
X182587259Y-111610949D01*
X182653972Y-111511105D01*
X182699925Y-111400165D01*
X182723351Y-111282391D01*
X182723351Y-111162311D01*
X182699925Y-111044537D01*
X182653972Y-110933597D01*
X182587954Y-110834792D01*
X192406568Y-110834792D01*
X192406568Y-110954872D01*
X192429994Y-111072646D01*
X192475947Y-111183586D01*
X192542660Y-111283430D01*
X192627570Y-111368340D01*
X192727414Y-111435053D01*
X192838354Y-111481006D01*
X192956128Y-111504432D01*
X193076208Y-111504432D01*
X193193982Y-111481006D01*
X193304922Y-111435053D01*
X193404766Y-111368340D01*
X193489676Y-111283430D01*
X193556389Y-111183586D01*
X193602342Y-111072646D01*
X193625768Y-110954872D01*
X193625768Y-110834792D01*
X193602342Y-110717018D01*
X193556389Y-110606078D01*
X193489676Y-110506234D01*
X193404766Y-110421324D01*
X193304922Y-110354611D01*
X193193982Y-110308658D01*
X193076208Y-110285232D01*
X192956128Y-110285232D01*
X192838354Y-110308658D01*
X192727414Y-110354611D01*
X192627570Y-110421324D01*
X192542660Y-110506234D01*
X192475947Y-110606078D01*
X192429994Y-110717018D01*
X192406568Y-110834792D01*
X182587954Y-110834792D01*
X182587259Y-110833753D01*
X182502349Y-110748843D01*
X182402505Y-110682130D01*
X182291565Y-110636177D01*
X182173791Y-110612751D01*
X182053711Y-110612751D01*
X181935937Y-110636177D01*
X181824997Y-110682130D01*
X181725153Y-110748843D01*
X181640243Y-110833753D01*
X181573530Y-110933597D01*
X181546500Y-110998853D01*
X181546500Y-110035960D01*
X182283400Y-110035960D01*
X182283400Y-110156040D01*
X182306826Y-110273814D01*
X182352779Y-110384754D01*
X182419492Y-110484598D01*
X182504402Y-110569508D01*
X182604246Y-110636221D01*
X182715186Y-110682174D01*
X182832960Y-110705600D01*
X182953040Y-110705600D01*
X183070814Y-110682174D01*
X183181754Y-110636221D01*
X183281598Y-110569508D01*
X183366508Y-110484598D01*
X183433221Y-110384754D01*
X183479174Y-110273814D01*
X183502600Y-110156040D01*
X183502600Y-110035960D01*
X183479174Y-109918186D01*
X183433221Y-109807246D01*
X183366508Y-109707402D01*
X183281598Y-109622492D01*
X183181754Y-109555779D01*
X183070814Y-109509826D01*
X182953040Y-109486400D01*
X182832960Y-109486400D01*
X182715186Y-109509826D01*
X182604246Y-109555779D01*
X182504402Y-109622492D01*
X182419492Y-109707402D01*
X182352779Y-109807246D01*
X182306826Y-109918186D01*
X182283400Y-110035960D01*
X181546500Y-110035960D01*
X181546500Y-108894043D01*
X183736483Y-108894043D01*
X183736483Y-109014123D01*
X183759909Y-109131897D01*
X183805862Y-109242837D01*
X183872575Y-109342681D01*
X183957485Y-109427591D01*
X184057329Y-109494304D01*
X184168269Y-109540257D01*
X184225151Y-109551571D01*
X184743151Y-110069571D01*
X184759053Y-110088949D01*
X184778430Y-110104851D01*
X184836405Y-110152430D01*
X184880429Y-110175961D01*
X184924658Y-110199602D01*
X185020416Y-110228650D01*
X185095054Y-110236001D01*
X185095056Y-110236001D01*
X185120000Y-110238458D01*
X185144944Y-110236001D01*
X195024837Y-110236001D01*
X194997397Y-110302248D01*
X194973971Y-110420022D01*
X194973971Y-110540102D01*
X194997397Y-110657876D01*
X195043350Y-110768816D01*
X195110063Y-110868660D01*
X195194973Y-110953570D01*
X195294817Y-111020283D01*
X195405757Y-111066236D01*
X195523531Y-111089662D01*
X195643611Y-111089662D01*
X195761385Y-111066236D01*
X195872325Y-111020283D01*
X195972169Y-110953570D01*
X195999037Y-110926702D01*
X201206100Y-110926702D01*
X201206100Y-111069298D01*
X201233919Y-111209154D01*
X201288488Y-111340895D01*
X201367710Y-111459460D01*
X201468540Y-111560290D01*
X201587105Y-111639512D01*
X201718846Y-111694081D01*
X201858702Y-111721900D01*
X202001298Y-111721900D01*
X202141154Y-111694081D01*
X202272895Y-111639512D01*
X202391460Y-111560290D01*
X202492290Y-111459460D01*
X202535253Y-111395160D01*
X205206600Y-111395160D01*
X205206600Y-111515240D01*
X205230026Y-111633014D01*
X205275979Y-111743954D01*
X205342692Y-111843798D01*
X205427602Y-111928708D01*
X205527446Y-111995421D01*
X205638386Y-112041374D01*
X205756160Y-112064800D01*
X205876240Y-112064800D01*
X205994014Y-112041374D01*
X206104954Y-111995421D01*
X206204798Y-111928708D01*
X206289708Y-111843798D01*
X206356421Y-111743954D01*
X206402374Y-111633014D01*
X206425800Y-111515240D01*
X206425800Y-111395160D01*
X206402374Y-111277386D01*
X206356421Y-111166446D01*
X206289708Y-111066602D01*
X206204798Y-110981692D01*
X206104954Y-110914979D01*
X205994014Y-110869026D01*
X205876240Y-110845600D01*
X205756160Y-110845600D01*
X205638386Y-110869026D01*
X205527446Y-110914979D01*
X205427602Y-110981692D01*
X205342692Y-111066602D01*
X205275979Y-111166446D01*
X205230026Y-111277386D01*
X205206600Y-111395160D01*
X202535253Y-111395160D01*
X202571512Y-111340895D01*
X202626081Y-111209154D01*
X202653900Y-111069298D01*
X202653900Y-110926702D01*
X202626081Y-110786846D01*
X202571512Y-110655105D01*
X202498412Y-110545702D01*
X207937100Y-110545702D01*
X207937100Y-110688298D01*
X207964919Y-110828154D01*
X208019488Y-110959895D01*
X208098710Y-111078460D01*
X208199540Y-111179290D01*
X208318105Y-111258512D01*
X208449846Y-111313081D01*
X208589702Y-111340900D01*
X208732298Y-111340900D01*
X208872154Y-111313081D01*
X209003895Y-111258512D01*
X209122460Y-111179290D01*
X209223290Y-111078460D01*
X209302512Y-110959895D01*
X209357081Y-110828154D01*
X209384900Y-110688298D01*
X209384900Y-110545702D01*
X209357081Y-110405846D01*
X209302512Y-110274105D01*
X209223290Y-110155540D01*
X209122460Y-110054710D01*
X209003895Y-109975488D01*
X208872154Y-109920919D01*
X208732298Y-109893100D01*
X208589702Y-109893100D01*
X208449846Y-109920919D01*
X208318105Y-109975488D01*
X208199540Y-110054710D01*
X208098710Y-110155540D01*
X208019488Y-110274105D01*
X207964919Y-110405846D01*
X207937100Y-110545702D01*
X202498412Y-110545702D01*
X202492290Y-110536540D01*
X202391460Y-110435710D01*
X202272895Y-110356488D01*
X202141154Y-110301919D01*
X202001298Y-110274100D01*
X201858702Y-110274100D01*
X201718846Y-110301919D01*
X201587105Y-110356488D01*
X201468540Y-110435710D01*
X201367710Y-110536540D01*
X201288488Y-110655105D01*
X201233919Y-110786846D01*
X201206100Y-110926702D01*
X195999037Y-110926702D01*
X196057079Y-110868660D01*
X196123792Y-110768816D01*
X196169745Y-110657876D01*
X196193171Y-110540102D01*
X196193171Y-110420022D01*
X196169745Y-110302248D01*
X196142305Y-110236001D01*
X199491600Y-110236001D01*
X199491600Y-110296041D01*
X199515026Y-110413815D01*
X199560979Y-110524755D01*
X199627692Y-110624599D01*
X199712602Y-110709509D01*
X199812446Y-110776222D01*
X199923386Y-110822175D01*
X200041160Y-110845601D01*
X200161240Y-110845601D01*
X200279014Y-110822175D01*
X200389954Y-110776222D01*
X200489798Y-110709509D01*
X200574708Y-110624599D01*
X200641421Y-110524755D01*
X200687374Y-110413815D01*
X200710800Y-110296041D01*
X200710800Y-110236001D01*
X202202047Y-110236001D01*
X202226991Y-110238458D01*
X202251935Y-110236001D01*
X202251938Y-110236001D01*
X202326576Y-110228650D01*
X202422334Y-110199602D01*
X202510586Y-110152430D01*
X202587939Y-110088949D01*
X202603846Y-110069566D01*
X203524710Y-109148702D01*
X212890100Y-109148702D01*
X212890100Y-109291298D01*
X212917919Y-109431154D01*
X212972488Y-109562895D01*
X213051710Y-109681460D01*
X213152540Y-109782290D01*
X213271105Y-109861512D01*
X213402846Y-109916081D01*
X213542702Y-109943900D01*
X213685298Y-109943900D01*
X213825154Y-109916081D01*
X213956895Y-109861512D01*
X214075460Y-109782290D01*
X214176290Y-109681460D01*
X214255512Y-109562895D01*
X214310081Y-109431154D01*
X214337900Y-109291298D01*
X214337900Y-109148702D01*
X214310081Y-109008846D01*
X214255512Y-108877105D01*
X214176290Y-108758540D01*
X214075460Y-108657710D01*
X213956895Y-108578488D01*
X213825154Y-108523919D01*
X213685298Y-108496100D01*
X213542702Y-108496100D01*
X213402846Y-108523919D01*
X213271105Y-108578488D01*
X213152540Y-108657710D01*
X213051710Y-108758540D01*
X212972488Y-108877105D01*
X212917919Y-109008846D01*
X212890100Y-109148702D01*
X203524710Y-109148702D01*
X205810710Y-106862702D01*
X212636100Y-106862702D01*
X212636100Y-107005298D01*
X212663919Y-107145154D01*
X212718488Y-107276895D01*
X212797710Y-107395460D01*
X212898540Y-107496290D01*
X213017105Y-107575512D01*
X213148846Y-107630081D01*
X213288702Y-107657900D01*
X213431298Y-107657900D01*
X213571154Y-107630081D01*
X213702895Y-107575512D01*
X213821460Y-107496290D01*
X213922290Y-107395460D01*
X214001512Y-107276895D01*
X214056081Y-107145154D01*
X214083900Y-107005298D01*
X214083900Y-106862702D01*
X214056081Y-106722846D01*
X214001512Y-106591105D01*
X213922290Y-106472540D01*
X213821460Y-106371710D01*
X213702895Y-106292488D01*
X213571154Y-106237919D01*
X213431298Y-106210100D01*
X213288702Y-106210100D01*
X213148846Y-106237919D01*
X213017105Y-106292488D01*
X212898540Y-106371710D01*
X212797710Y-106472540D01*
X212718488Y-106591105D01*
X212663919Y-106722846D01*
X212636100Y-106862702D01*
X205810710Y-106862702D01*
X207385520Y-105287892D01*
X207462298Y-105287892D01*
X207602154Y-105260073D01*
X207733895Y-105205504D01*
X207852460Y-105126282D01*
X207953290Y-105025452D01*
X208032512Y-104906887D01*
X208087081Y-104775146D01*
X208114900Y-104635290D01*
X208114900Y-104492694D01*
X208087081Y-104352838D01*
X208074599Y-104322702D01*
X212636100Y-104322702D01*
X212636100Y-104465298D01*
X212663919Y-104605154D01*
X212718488Y-104736895D01*
X212797710Y-104855460D01*
X212898540Y-104956290D01*
X213017105Y-105035512D01*
X213148846Y-105090081D01*
X213288702Y-105117900D01*
X213431298Y-105117900D01*
X213571154Y-105090081D01*
X213702895Y-105035512D01*
X213821460Y-104956290D01*
X213922290Y-104855460D01*
X214001512Y-104736895D01*
X214056081Y-104605154D01*
X214083900Y-104465298D01*
X214083900Y-104322702D01*
X214056081Y-104182846D01*
X214001512Y-104051105D01*
X213922290Y-103932540D01*
X213821460Y-103831710D01*
X213702895Y-103752488D01*
X213571154Y-103697919D01*
X213431298Y-103670100D01*
X213288702Y-103670100D01*
X213148846Y-103697919D01*
X213017105Y-103752488D01*
X212898540Y-103831710D01*
X212797710Y-103932540D01*
X212718488Y-104051105D01*
X212663919Y-104182846D01*
X212636100Y-104322702D01*
X208074599Y-104322702D01*
X208032512Y-104221097D01*
X207953290Y-104102532D01*
X207852460Y-104001702D01*
X207733895Y-103922480D01*
X207602154Y-103867911D01*
X207462298Y-103840092D01*
X207319702Y-103840092D01*
X207179846Y-103867911D01*
X207048105Y-103922480D01*
X206929540Y-104001702D01*
X206828710Y-104102532D01*
X206749488Y-104221097D01*
X206694919Y-104352838D01*
X206667100Y-104492694D01*
X206667100Y-104569472D01*
X202016571Y-109220001D01*
X201014105Y-109220001D01*
X201031908Y-109202198D01*
X201098621Y-109102354D01*
X201144574Y-108991414D01*
X201168000Y-108873640D01*
X201168000Y-108753560D01*
X201144574Y-108635786D01*
X201098621Y-108524846D01*
X201031908Y-108425002D01*
X200963306Y-108356400D01*
X200981108Y-108338598D01*
X201047821Y-108238754D01*
X201093774Y-108127814D01*
X201117200Y-108010040D01*
X201117200Y-107889960D01*
X201093774Y-107772186D01*
X201047821Y-107661246D01*
X201027890Y-107631416D01*
X201057308Y-107601998D01*
X201124021Y-107502154D01*
X201169974Y-107391214D01*
X201193400Y-107273440D01*
X201193400Y-107153360D01*
X201169974Y-107035586D01*
X201124021Y-106924646D01*
X201057308Y-106824802D01*
X200972398Y-106739892D01*
X200872554Y-106673179D01*
X200761614Y-106627226D01*
X200643840Y-106603800D01*
X200523760Y-106603800D01*
X200405986Y-106627226D01*
X200295046Y-106673179D01*
X200195202Y-106739892D01*
X200110292Y-106824802D01*
X200043579Y-106924646D01*
X199997626Y-107035586D01*
X199974200Y-107153360D01*
X199974200Y-107273440D01*
X199997626Y-107391214D01*
X200043579Y-107502154D01*
X200063510Y-107531984D01*
X200034092Y-107561402D01*
X199967379Y-107661246D01*
X199921426Y-107772186D01*
X199898000Y-107889960D01*
X199898000Y-108010040D01*
X199921426Y-108127814D01*
X199967379Y-108238754D01*
X200034092Y-108338598D01*
X200102694Y-108407200D01*
X200084892Y-108425002D01*
X200018179Y-108524846D01*
X199972226Y-108635786D01*
X199948800Y-108753560D01*
X199948800Y-108873640D01*
X199972226Y-108991414D01*
X200018179Y-109102354D01*
X200084892Y-109202198D01*
X200102695Y-109220001D01*
X185330422Y-109220001D01*
X184943571Y-108833151D01*
X184932257Y-108776269D01*
X184886304Y-108665329D01*
X184819591Y-108565485D01*
X184734681Y-108480575D01*
X184634837Y-108413862D01*
X184523897Y-108367909D01*
X184406123Y-108344483D01*
X184286043Y-108344483D01*
X184168269Y-108367909D01*
X184057329Y-108413862D01*
X183957485Y-108480575D01*
X183872575Y-108565485D01*
X183805862Y-108665329D01*
X183759909Y-108776269D01*
X183736483Y-108894043D01*
X181546500Y-108894043D01*
X181546500Y-108000004D01*
X182151844Y-108000004D01*
X182151844Y-108120084D01*
X182175270Y-108237858D01*
X182221223Y-108348798D01*
X182287936Y-108448642D01*
X182372846Y-108533552D01*
X182472690Y-108600265D01*
X182583630Y-108646218D01*
X182701404Y-108669644D01*
X182821484Y-108669644D01*
X182939258Y-108646218D01*
X183050198Y-108600265D01*
X183150042Y-108533552D01*
X183234952Y-108448642D01*
X183301665Y-108348798D01*
X183347618Y-108237858D01*
X183371044Y-108120084D01*
X183371044Y-108000004D01*
X183347618Y-107882230D01*
X183326109Y-107830302D01*
X188732300Y-107830302D01*
X188732300Y-107972898D01*
X188760119Y-108112754D01*
X188814688Y-108244495D01*
X188893910Y-108363060D01*
X188994740Y-108463890D01*
X189113305Y-108543112D01*
X189245046Y-108597681D01*
X189384902Y-108625500D01*
X189527498Y-108625500D01*
X189667354Y-108597681D01*
X189799095Y-108543112D01*
X189917660Y-108463890D01*
X190018490Y-108363060D01*
X190097712Y-108244495D01*
X190152281Y-108112754D01*
X190180100Y-107972898D01*
X190180100Y-107830302D01*
X190152281Y-107690446D01*
X190097712Y-107558705D01*
X190018490Y-107440140D01*
X189917660Y-107339310D01*
X189799095Y-107260088D01*
X189667354Y-107205519D01*
X189527498Y-107177700D01*
X189384902Y-107177700D01*
X189245046Y-107205519D01*
X189113305Y-107260088D01*
X188994740Y-107339310D01*
X188893910Y-107440140D01*
X188814688Y-107558705D01*
X188760119Y-107690446D01*
X188732300Y-107830302D01*
X183326109Y-107830302D01*
X183301665Y-107771290D01*
X183234952Y-107671446D01*
X183150042Y-107586536D01*
X183050198Y-107519823D01*
X182939258Y-107473870D01*
X182821484Y-107450444D01*
X182701404Y-107450444D01*
X182583630Y-107473870D01*
X182472690Y-107519823D01*
X182372846Y-107586536D01*
X182287936Y-107671446D01*
X182221223Y-107771290D01*
X182175270Y-107882230D01*
X182151844Y-108000004D01*
X181546500Y-108000004D01*
X181546500Y-106873960D01*
X185572400Y-106873960D01*
X185572400Y-106994040D01*
X185595826Y-107111814D01*
X185641779Y-107222754D01*
X185708492Y-107322598D01*
X185793402Y-107407508D01*
X185893246Y-107474221D01*
X186004186Y-107520174D01*
X186121960Y-107543600D01*
X186242040Y-107543600D01*
X186359814Y-107520174D01*
X186470754Y-107474221D01*
X186570598Y-107407508D01*
X186655508Y-107322598D01*
X186722221Y-107222754D01*
X186768174Y-107111814D01*
X186791600Y-106994040D01*
X186791600Y-106873960D01*
X186768174Y-106756186D01*
X186722221Y-106645246D01*
X186655508Y-106545402D01*
X186570598Y-106460492D01*
X186470754Y-106393779D01*
X186359814Y-106347826D01*
X186242040Y-106324400D01*
X186121960Y-106324400D01*
X186004186Y-106347826D01*
X185893246Y-106393779D01*
X185793402Y-106460492D01*
X185708492Y-106545402D01*
X185641779Y-106645246D01*
X185595826Y-106756186D01*
X185572400Y-106873960D01*
X181546500Y-106873960D01*
X181546500Y-103952676D01*
X181616512Y-103847895D01*
X181671081Y-103716154D01*
X181676740Y-103687702D01*
X182029100Y-103687702D01*
X182029100Y-103830298D01*
X182056919Y-103970154D01*
X182111488Y-104101895D01*
X182190710Y-104220460D01*
X182291540Y-104321290D01*
X182305324Y-104330500D01*
X182291540Y-104339710D01*
X182190710Y-104440540D01*
X182111488Y-104559105D01*
X182056919Y-104690846D01*
X182029100Y-104830702D01*
X182029100Y-104973298D01*
X182056919Y-105113154D01*
X182111488Y-105244895D01*
X182190710Y-105363460D01*
X182291540Y-105464290D01*
X182410105Y-105543512D01*
X182541846Y-105598081D01*
X182681702Y-105625900D01*
X182824298Y-105625900D01*
X182964154Y-105598081D01*
X183095895Y-105543512D01*
X183134000Y-105518051D01*
X183172105Y-105543512D01*
X183303846Y-105598081D01*
X183443702Y-105625900D01*
X183586298Y-105625900D01*
X183726154Y-105598081D01*
X183857895Y-105543512D01*
X183881469Y-105527760D01*
X186486800Y-105527760D01*
X186486800Y-105647840D01*
X186510226Y-105765614D01*
X186556179Y-105876554D01*
X186622892Y-105976398D01*
X186707802Y-106061308D01*
X186807646Y-106128021D01*
X186918586Y-106173974D01*
X187036360Y-106197400D01*
X187156440Y-106197400D01*
X187274214Y-106173974D01*
X187385154Y-106128021D01*
X187484998Y-106061308D01*
X187569908Y-105976398D01*
X187636621Y-105876554D01*
X187682574Y-105765614D01*
X187706000Y-105647840D01*
X187706000Y-105527760D01*
X187682574Y-105409986D01*
X187636621Y-105299046D01*
X187569908Y-105199202D01*
X187484998Y-105114292D01*
X187385154Y-105047579D01*
X187274214Y-105001626D01*
X187156440Y-104978200D01*
X187036360Y-104978200D01*
X186918586Y-105001626D01*
X186807646Y-105047579D01*
X186707802Y-105114292D01*
X186622892Y-105199202D01*
X186556179Y-105299046D01*
X186510226Y-105409986D01*
X186486800Y-105527760D01*
X183881469Y-105527760D01*
X183976460Y-105464290D01*
X184077290Y-105363460D01*
X184156512Y-105244895D01*
X184211081Y-105113154D01*
X184238900Y-104973298D01*
X184238900Y-104830702D01*
X184211081Y-104690846D01*
X184156512Y-104559105D01*
X184077290Y-104440540D01*
X183976460Y-104339710D01*
X183962676Y-104330500D01*
X183976460Y-104321290D01*
X184077290Y-104220460D01*
X184103281Y-104181560D01*
X187350400Y-104181560D01*
X187350400Y-104301640D01*
X187373826Y-104419414D01*
X187419779Y-104530354D01*
X187486492Y-104630198D01*
X187571402Y-104715108D01*
X187671246Y-104781821D01*
X187782186Y-104827774D01*
X187899960Y-104851200D01*
X188020040Y-104851200D01*
X188137814Y-104827774D01*
X188248754Y-104781821D01*
X188348598Y-104715108D01*
X188433508Y-104630198D01*
X188485811Y-104551920D01*
X188585760Y-104571800D01*
X188588662Y-104571800D01*
X188613579Y-104631954D01*
X188680292Y-104731798D01*
X188765202Y-104816708D01*
X188865046Y-104883421D01*
X188975986Y-104929374D01*
X189093760Y-104952800D01*
X189213840Y-104952800D01*
X189331614Y-104929374D01*
X189442554Y-104883421D01*
X189519949Y-104831708D01*
X189519949Y-105584405D01*
X189434660Y-105619733D01*
X189334816Y-105686446D01*
X189249906Y-105771356D01*
X189183193Y-105871200D01*
X189137240Y-105982140D01*
X189113814Y-106099914D01*
X189113814Y-106219994D01*
X189137240Y-106337768D01*
X189183193Y-106448708D01*
X189249906Y-106548552D01*
X189334816Y-106633462D01*
X189434660Y-106700175D01*
X189545600Y-106746128D01*
X189663374Y-106769554D01*
X189783454Y-106769554D01*
X189901228Y-106746128D01*
X190012168Y-106700175D01*
X190112012Y-106633462D01*
X190196922Y-106548552D01*
X190263635Y-106448708D01*
X190309588Y-106337768D01*
X190333014Y-106219994D01*
X190333014Y-106113301D01*
X190335824Y-106109877D01*
X190377099Y-106032658D01*
X190402516Y-105948869D01*
X190408948Y-105883562D01*
X190408948Y-105883552D01*
X190411097Y-105861732D01*
X190408948Y-105839912D01*
X190408948Y-105097863D01*
X190430125Y-105112013D01*
X190541065Y-105157966D01*
X190658839Y-105181392D01*
X190778919Y-105181392D01*
X190896693Y-105157966D01*
X191007633Y-105112013D01*
X191107477Y-105045300D01*
X191192387Y-104960390D01*
X191203154Y-104944276D01*
X191203154Y-105057803D01*
X191226580Y-105175577D01*
X191272533Y-105286517D01*
X191339246Y-105386361D01*
X191424156Y-105471271D01*
X191524000Y-105537984D01*
X191634940Y-105583937D01*
X191752714Y-105607363D01*
X191872794Y-105607363D01*
X191990568Y-105583937D01*
X192101508Y-105537984D01*
X192201352Y-105471271D01*
X192286262Y-105386361D01*
X192352975Y-105286517D01*
X192398928Y-105175577D01*
X192422354Y-105057803D01*
X192422354Y-104937723D01*
X192398928Y-104819949D01*
X192378501Y-104770635D01*
X192437221Y-104682754D01*
X192483174Y-104571814D01*
X192506600Y-104454040D01*
X192506600Y-104333960D01*
X192483174Y-104216186D01*
X192437221Y-104105246D01*
X192370508Y-104005402D01*
X192285598Y-103920492D01*
X192185754Y-103853779D01*
X192074814Y-103807826D01*
X191957040Y-103784400D01*
X191836960Y-103784400D01*
X191719186Y-103807826D01*
X191681026Y-103823632D01*
X191675173Y-103794207D01*
X191629220Y-103683267D01*
X191562507Y-103583423D01*
X191477597Y-103498513D01*
X191377753Y-103431800D01*
X191266813Y-103385847D01*
X191149039Y-103362421D01*
X191028959Y-103362421D01*
X190911185Y-103385847D01*
X190800245Y-103431800D01*
X190700401Y-103498513D01*
X190653507Y-103545407D01*
X190561363Y-103507240D01*
X190443589Y-103483814D01*
X190408948Y-103483814D01*
X190408948Y-102047960D01*
X190423800Y-102047960D01*
X190423800Y-102168040D01*
X190447226Y-102285814D01*
X190493179Y-102396754D01*
X190559892Y-102496598D01*
X190644802Y-102581508D01*
X190744646Y-102648221D01*
X190855586Y-102694174D01*
X190973360Y-102717600D01*
X191093440Y-102717600D01*
X191211214Y-102694174D01*
X191322154Y-102648221D01*
X191421998Y-102581508D01*
X191441311Y-102562195D01*
X191532046Y-102622821D01*
X191642986Y-102668774D01*
X191760760Y-102692200D01*
X191880840Y-102692200D01*
X191998614Y-102668774D01*
X192096728Y-102628134D01*
X192071057Y-102690109D01*
X192047631Y-102807883D01*
X192047631Y-102927963D01*
X192071057Y-103045737D01*
X192117010Y-103156677D01*
X192183723Y-103256521D01*
X192268633Y-103341431D01*
X192368477Y-103408144D01*
X192479417Y-103454097D01*
X192597191Y-103477523D01*
X192657233Y-103477523D01*
X192657233Y-104699521D01*
X192624912Y-104731842D01*
X192558199Y-104831686D01*
X192512246Y-104942626D01*
X192488820Y-105060400D01*
X192488820Y-105180480D01*
X192512246Y-105298254D01*
X192558199Y-105409194D01*
X192624912Y-105509038D01*
X192709822Y-105593948D01*
X192809666Y-105660661D01*
X192920606Y-105706614D01*
X193038380Y-105730040D01*
X193132907Y-105730040D01*
X193132907Y-105970664D01*
X192985163Y-106118408D01*
X192968204Y-106132326D01*
X192954288Y-106149283D01*
X192912657Y-106200010D01*
X192894966Y-106233108D01*
X192871382Y-106277230D01*
X192845965Y-106361019D01*
X192839533Y-106426326D01*
X192839533Y-106426335D01*
X192837384Y-106448155D01*
X192839533Y-106469976D01*
X192839534Y-106925957D01*
X192837384Y-106947786D01*
X192845966Y-107034923D01*
X192871382Y-107118711D01*
X192903032Y-107177924D01*
X192903032Y-107236425D01*
X192926458Y-107354199D01*
X192972411Y-107465139D01*
X193039124Y-107564983D01*
X193074915Y-107600774D01*
X192989186Y-107617826D01*
X192878246Y-107663779D01*
X192778402Y-107730492D01*
X192693492Y-107815402D01*
X192626779Y-107915246D01*
X192580826Y-108026186D01*
X192557400Y-108143960D01*
X192557400Y-108264040D01*
X192580826Y-108381814D01*
X192626779Y-108492754D01*
X192693492Y-108592598D01*
X192778402Y-108677508D01*
X192878246Y-108744221D01*
X192989186Y-108790174D01*
X193106960Y-108813600D01*
X193227040Y-108813600D01*
X193344814Y-108790174D01*
X193455754Y-108744221D01*
X193555598Y-108677508D01*
X193640508Y-108592598D01*
X193707221Y-108492754D01*
X193753174Y-108381814D01*
X193776600Y-108264040D01*
X193776600Y-108143960D01*
X193753174Y-108026186D01*
X193707221Y-107915246D01*
X193640508Y-107815402D01*
X193604717Y-107779611D01*
X193690446Y-107762559D01*
X193801386Y-107716606D01*
X193846054Y-107686760D01*
X197789800Y-107686760D01*
X197789800Y-107806840D01*
X197813226Y-107924614D01*
X197859179Y-108035554D01*
X197925029Y-108134107D01*
X197884579Y-108194646D01*
X197838626Y-108305586D01*
X197815200Y-108423360D01*
X197815200Y-108543440D01*
X197838626Y-108661214D01*
X197884579Y-108772154D01*
X197951292Y-108871998D01*
X198036202Y-108956908D01*
X198136046Y-109023621D01*
X198246986Y-109069574D01*
X198364760Y-109093000D01*
X198484840Y-109093000D01*
X198602614Y-109069574D01*
X198713554Y-109023621D01*
X198813398Y-108956908D01*
X198898308Y-108871998D01*
X198965021Y-108772154D01*
X199010974Y-108661214D01*
X199034400Y-108543440D01*
X199034400Y-108423360D01*
X199010974Y-108305586D01*
X198965021Y-108194646D01*
X198899171Y-108096093D01*
X198939621Y-108035554D01*
X198985574Y-107924614D01*
X199009000Y-107806840D01*
X199009000Y-107686760D01*
X198985574Y-107568986D01*
X198939621Y-107458046D01*
X198872908Y-107358202D01*
X198787998Y-107273292D01*
X198688154Y-107206579D01*
X198577214Y-107160626D01*
X198459440Y-107137200D01*
X198339360Y-107137200D01*
X198221586Y-107160626D01*
X198110646Y-107206579D01*
X198010802Y-107273292D01*
X197925892Y-107358202D01*
X197859179Y-107458046D01*
X197813226Y-107568986D01*
X197789800Y-107686760D01*
X193846054Y-107686760D01*
X193901230Y-107649893D01*
X193986140Y-107564983D01*
X194052853Y-107465139D01*
X194098806Y-107354199D01*
X194122232Y-107236425D01*
X194122232Y-107116345D01*
X194116379Y-107086921D01*
X194144094Y-107075441D01*
X194243938Y-107008728D01*
X194328848Y-106923818D01*
X194395561Y-106823974D01*
X194441514Y-106713034D01*
X194464940Y-106595260D01*
X194464940Y-106475180D01*
X194441514Y-106357406D01*
X194395561Y-106246466D01*
X194328848Y-106146622D01*
X194299840Y-106117614D01*
X194299840Y-102691007D01*
X194411614Y-102668774D01*
X194464281Y-102646959D01*
X194435026Y-102717586D01*
X194411600Y-102835360D01*
X194411600Y-102955440D01*
X194435026Y-103073214D01*
X194480979Y-103184154D01*
X194547692Y-103283998D01*
X194632602Y-103368908D01*
X194732446Y-103435621D01*
X194843386Y-103481574D01*
X194961160Y-103505000D01*
X194995802Y-103505000D01*
X194995802Y-104120201D01*
X194994192Y-104136546D01*
X194937402Y-104174492D01*
X194852492Y-104259402D01*
X194785779Y-104359246D01*
X194739826Y-104470186D01*
X194716400Y-104587960D01*
X194716400Y-104708040D01*
X194739826Y-104825814D01*
X194785779Y-104936754D01*
X194852492Y-105036598D01*
X194937402Y-105121508D01*
X195037246Y-105188221D01*
X195148186Y-105234174D01*
X195265960Y-105257600D01*
X195300601Y-105257600D01*
X195300602Y-105519765D01*
X195278171Y-105510474D01*
X195160397Y-105487048D01*
X195040317Y-105487048D01*
X194922543Y-105510474D01*
X194811603Y-105556427D01*
X194711759Y-105623140D01*
X194626849Y-105708050D01*
X194560136Y-105807894D01*
X194514183Y-105918834D01*
X194490757Y-106036608D01*
X194490757Y-106156688D01*
X194514183Y-106274462D01*
X194560136Y-106385402D01*
X194626849Y-106485246D01*
X194706976Y-106565373D01*
X194694339Y-106584286D01*
X194648386Y-106695226D01*
X194624960Y-106813000D01*
X194624960Y-106933080D01*
X194648386Y-107050854D01*
X194694339Y-107161794D01*
X194761052Y-107261638D01*
X194845962Y-107346548D01*
X194945806Y-107413261D01*
X195056746Y-107459214D01*
X195174520Y-107482640D01*
X195294600Y-107482640D01*
X195412374Y-107459214D01*
X195523314Y-107413261D01*
X195623158Y-107346548D01*
X195708068Y-107261638D01*
X195774781Y-107161794D01*
X195820734Y-107050854D01*
X195844160Y-106933080D01*
X195844160Y-106892058D01*
X196043977Y-106692241D01*
X196060930Y-106678328D01*
X196074843Y-106661375D01*
X196074846Y-106661372D01*
X196116477Y-106610645D01*
X196157752Y-106533425D01*
X196183169Y-106449636D01*
X196189601Y-106384329D01*
X196189601Y-106384320D01*
X196191750Y-106362500D01*
X196189601Y-106340680D01*
X196189601Y-104599185D01*
X196189614Y-104599182D01*
X196300554Y-104553229D01*
X196400398Y-104486516D01*
X196485308Y-104401606D01*
X196552021Y-104301762D01*
X196597974Y-104190822D01*
X196621400Y-104073048D01*
X196621400Y-103952968D01*
X196597974Y-103835194D01*
X196552021Y-103724254D01*
X196485308Y-103624410D01*
X196400398Y-103539500D01*
X196300554Y-103472787D01*
X196189614Y-103426834D01*
X196071840Y-103403408D01*
X195951760Y-103403408D01*
X195884801Y-103416727D01*
X195884801Y-102523520D01*
X195886950Y-102501700D01*
X195884801Y-102479880D01*
X195884801Y-102479871D01*
X195878369Y-102414564D01*
X195852952Y-102330775D01*
X195811677Y-102253556D01*
X195756130Y-102185872D01*
X195739178Y-102171960D01*
X195630800Y-102063582D01*
X195630800Y-102022560D01*
X195607374Y-101904786D01*
X195590819Y-101864819D01*
X195630786Y-101881374D01*
X195748560Y-101904800D01*
X195868640Y-101904800D01*
X195986414Y-101881374D01*
X196057041Y-101852119D01*
X196035226Y-101904786D01*
X196011800Y-102022560D01*
X196011800Y-102142640D01*
X196035226Y-102260414D01*
X196081179Y-102371354D01*
X196147892Y-102471198D01*
X196165694Y-102489000D01*
X196147892Y-102506802D01*
X196081179Y-102606646D01*
X196035226Y-102717586D01*
X196011800Y-102835360D01*
X196011800Y-102955440D01*
X196035226Y-103073214D01*
X196081179Y-103184154D01*
X196147892Y-103283998D01*
X196232802Y-103368908D01*
X196332646Y-103435621D01*
X196443586Y-103481574D01*
X196561360Y-103505000D01*
X196681440Y-103505000D01*
X196799214Y-103481574D01*
X196910154Y-103435621D01*
X197009998Y-103368908D01*
X197094908Y-103283998D01*
X197161621Y-103184154D01*
X197207574Y-103073214D01*
X197231000Y-102955440D01*
X197231000Y-102835360D01*
X197207574Y-102717586D01*
X197161621Y-102606646D01*
X197094908Y-102506802D01*
X197077106Y-102489000D01*
X197094908Y-102471198D01*
X197161621Y-102371354D01*
X197207574Y-102260414D01*
X197231000Y-102142640D01*
X197231000Y-102022560D01*
X197207574Y-101904786D01*
X197161621Y-101793846D01*
X197094908Y-101694002D01*
X197009998Y-101609092D01*
X196910154Y-101542379D01*
X196799214Y-101496426D01*
X196681440Y-101473000D01*
X196561360Y-101473000D01*
X196443586Y-101496426D01*
X196372959Y-101525681D01*
X196394774Y-101473014D01*
X196418200Y-101355240D01*
X196418200Y-101235160D01*
X196394774Y-101117386D01*
X196348821Y-101006446D01*
X196282108Y-100906602D01*
X196264306Y-100888800D01*
X196282108Y-100870998D01*
X196293358Y-100854160D01*
X197586591Y-100854160D01*
X197586591Y-100974240D01*
X197610017Y-101092014D01*
X197655970Y-101202954D01*
X197722683Y-101302798D01*
X197727785Y-101307900D01*
X197722683Y-101313002D01*
X197655970Y-101412846D01*
X197610017Y-101523786D01*
X197586591Y-101641560D01*
X197586591Y-101761640D01*
X197610017Y-101879414D01*
X197655970Y-101990354D01*
X197717606Y-102082600D01*
X197655970Y-102174846D01*
X197610017Y-102285786D01*
X197586591Y-102403560D01*
X197586591Y-102523640D01*
X197610017Y-102641414D01*
X197655970Y-102752354D01*
X197722683Y-102852198D01*
X197740485Y-102870000D01*
X197722683Y-102887802D01*
X197655970Y-102987646D01*
X197610017Y-103098586D01*
X197586591Y-103216360D01*
X197586591Y-103336440D01*
X197610017Y-103454214D01*
X197655970Y-103565154D01*
X197722683Y-103664998D01*
X197807593Y-103749908D01*
X197907437Y-103816621D01*
X198018377Y-103862574D01*
X198136151Y-103886000D01*
X198256231Y-103886000D01*
X198374005Y-103862574D01*
X198484945Y-103816621D01*
X198584789Y-103749908D01*
X198669699Y-103664998D01*
X198736412Y-103565154D01*
X198782365Y-103454214D01*
X198805791Y-103336440D01*
X198805791Y-103216360D01*
X198782365Y-103098586D01*
X198736412Y-102987646D01*
X198669699Y-102887802D01*
X198651897Y-102870000D01*
X198669699Y-102852198D01*
X198680949Y-102835360D01*
X205232000Y-102835360D01*
X205232000Y-102955440D01*
X205255426Y-103073214D01*
X205301379Y-103184154D01*
X205368092Y-103283998D01*
X205453002Y-103368908D01*
X205552846Y-103435621D01*
X205597700Y-103454200D01*
X205552846Y-103472779D01*
X205453002Y-103539492D01*
X205368092Y-103624402D01*
X205301379Y-103724246D01*
X205255426Y-103835186D01*
X205232000Y-103952960D01*
X205232000Y-104073040D01*
X205255426Y-104190814D01*
X205301379Y-104301754D01*
X205368092Y-104401598D01*
X205453002Y-104486508D01*
X205552846Y-104553221D01*
X205663786Y-104599174D01*
X205781560Y-104622600D01*
X205901640Y-104622600D01*
X206019414Y-104599174D01*
X206130354Y-104553221D01*
X206230198Y-104486508D01*
X206315108Y-104401598D01*
X206381821Y-104301754D01*
X206427774Y-104190814D01*
X206451200Y-104073040D01*
X206451200Y-103952960D01*
X206427774Y-103835186D01*
X206381821Y-103724246D01*
X206315108Y-103624402D01*
X206230198Y-103539492D01*
X206130354Y-103472779D01*
X206085500Y-103454200D01*
X206130354Y-103435621D01*
X206230198Y-103368908D01*
X206315108Y-103283998D01*
X206381821Y-103184154D01*
X206427774Y-103073214D01*
X206451200Y-102955440D01*
X206451200Y-102835360D01*
X206427774Y-102717586D01*
X206381821Y-102606646D01*
X206315108Y-102506802D01*
X206230198Y-102421892D01*
X206130354Y-102355179D01*
X206019414Y-102309226D01*
X205901640Y-102285800D01*
X205781560Y-102285800D01*
X205663786Y-102309226D01*
X205552846Y-102355179D01*
X205453002Y-102421892D01*
X205368092Y-102506802D01*
X205301379Y-102606646D01*
X205255426Y-102717586D01*
X205232000Y-102835360D01*
X198680949Y-102835360D01*
X198736412Y-102752354D01*
X198782365Y-102641414D01*
X198805791Y-102523640D01*
X198805791Y-102403560D01*
X198782365Y-102285786D01*
X198736412Y-102174846D01*
X198674776Y-102082600D01*
X198736412Y-101990354D01*
X198782365Y-101879414D01*
X198805791Y-101761640D01*
X198805791Y-101641560D01*
X198783343Y-101528702D01*
X208699100Y-101528702D01*
X208699100Y-101671298D01*
X208726919Y-101811154D01*
X208781488Y-101942895D01*
X208860710Y-102061460D01*
X208961540Y-102162290D01*
X209080105Y-102241512D01*
X209211846Y-102296081D01*
X209351702Y-102323900D01*
X209494298Y-102323900D01*
X209634154Y-102296081D01*
X209765895Y-102241512D01*
X209884460Y-102162290D01*
X209985290Y-102061460D01*
X210064512Y-101942895D01*
X210119081Y-101811154D01*
X210146900Y-101671298D01*
X210146900Y-101655702D01*
X212636100Y-101655702D01*
X212636100Y-101798298D01*
X212663919Y-101938154D01*
X212718488Y-102069895D01*
X212797710Y-102188460D01*
X212898540Y-102289290D01*
X213017105Y-102368512D01*
X213148846Y-102423081D01*
X213288702Y-102450900D01*
X213431298Y-102450900D01*
X213571154Y-102423081D01*
X213702895Y-102368512D01*
X213821460Y-102289290D01*
X213922290Y-102188460D01*
X214001512Y-102069895D01*
X214056081Y-101938154D01*
X214083900Y-101798298D01*
X214083900Y-101655702D01*
X214056081Y-101515846D01*
X214001512Y-101384105D01*
X213922290Y-101265540D01*
X213821460Y-101164710D01*
X213702895Y-101085488D01*
X213571154Y-101030919D01*
X213431298Y-101003100D01*
X213288702Y-101003100D01*
X213148846Y-101030919D01*
X213017105Y-101085488D01*
X212898540Y-101164710D01*
X212797710Y-101265540D01*
X212718488Y-101384105D01*
X212663919Y-101515846D01*
X212636100Y-101655702D01*
X210146900Y-101655702D01*
X210146900Y-101528702D01*
X210119081Y-101388846D01*
X210064512Y-101257105D01*
X209985290Y-101138540D01*
X209884460Y-101037710D01*
X209765895Y-100958488D01*
X209634154Y-100903919D01*
X209494298Y-100876100D01*
X209351702Y-100876100D01*
X209211846Y-100903919D01*
X209080105Y-100958488D01*
X208961540Y-101037710D01*
X208860710Y-101138540D01*
X208781488Y-101257105D01*
X208726919Y-101388846D01*
X208699100Y-101528702D01*
X198783343Y-101528702D01*
X198782365Y-101523786D01*
X198736412Y-101412846D01*
X198669699Y-101313002D01*
X198664597Y-101307900D01*
X198669699Y-101302798D01*
X198736412Y-101202954D01*
X198782365Y-101092014D01*
X198805791Y-100974240D01*
X198805791Y-100854160D01*
X198790635Y-100777960D01*
X203403200Y-100777960D01*
X203403200Y-100898040D01*
X203426626Y-101015814D01*
X203472579Y-101126754D01*
X203539292Y-101226598D01*
X203624202Y-101311508D01*
X203724046Y-101378221D01*
X203834986Y-101424174D01*
X203952760Y-101447600D01*
X204072840Y-101447600D01*
X204190614Y-101424174D01*
X204301554Y-101378221D01*
X204401398Y-101311508D01*
X204486308Y-101226598D01*
X204553021Y-101126754D01*
X204598974Y-101015814D01*
X204622400Y-100898040D01*
X204622400Y-100777960D01*
X204598974Y-100660186D01*
X204553021Y-100549246D01*
X204486308Y-100449402D01*
X204401398Y-100364492D01*
X204301554Y-100297779D01*
X204190614Y-100251826D01*
X204072840Y-100228400D01*
X203952760Y-100228400D01*
X203834986Y-100251826D01*
X203724046Y-100297779D01*
X203624202Y-100364492D01*
X203539292Y-100449402D01*
X203472579Y-100549246D01*
X203426626Y-100660186D01*
X203403200Y-100777960D01*
X198790635Y-100777960D01*
X198782365Y-100736386D01*
X198736412Y-100625446D01*
X198669699Y-100525602D01*
X198584789Y-100440692D01*
X198484945Y-100373979D01*
X198374005Y-100328026D01*
X198256231Y-100304600D01*
X198136151Y-100304600D01*
X198018377Y-100328026D01*
X197907437Y-100373979D01*
X197807593Y-100440692D01*
X197722683Y-100525602D01*
X197655970Y-100625446D01*
X197610017Y-100736386D01*
X197586591Y-100854160D01*
X196293358Y-100854160D01*
X196348821Y-100771154D01*
X196394774Y-100660214D01*
X196418200Y-100542440D01*
X196418200Y-100422360D01*
X196394774Y-100304586D01*
X196348821Y-100193646D01*
X196282108Y-100093802D01*
X196197198Y-100008892D01*
X196097354Y-99942179D01*
X195986414Y-99896226D01*
X195868640Y-99872800D01*
X195748560Y-99872800D01*
X195630786Y-99896226D01*
X195519846Y-99942179D01*
X195420002Y-100008892D01*
X195335092Y-100093802D01*
X195268379Y-100193646D01*
X195222426Y-100304586D01*
X195199000Y-100422360D01*
X195199000Y-100542440D01*
X195222426Y-100660214D01*
X195268379Y-100771154D01*
X195321529Y-100850700D01*
X194486497Y-100850700D01*
X195840318Y-99496880D01*
X195881340Y-99496880D01*
X195999114Y-99473454D01*
X196110054Y-99427501D01*
X196209898Y-99360788D01*
X196294808Y-99275878D01*
X196361521Y-99176034D01*
X196386511Y-99115702D01*
X212636100Y-99115702D01*
X212636100Y-99258298D01*
X212663919Y-99398154D01*
X212718488Y-99529895D01*
X212797710Y-99648460D01*
X212898540Y-99749290D01*
X213017105Y-99828512D01*
X213148846Y-99883081D01*
X213288702Y-99910900D01*
X213431298Y-99910900D01*
X213571154Y-99883081D01*
X213702895Y-99828512D01*
X213821460Y-99749290D01*
X213922290Y-99648460D01*
X214001512Y-99529895D01*
X214056081Y-99398154D01*
X214083900Y-99258298D01*
X214083900Y-99115702D01*
X214056081Y-98975846D01*
X214001512Y-98844105D01*
X213922290Y-98725540D01*
X213821460Y-98624710D01*
X213702895Y-98545488D01*
X213571154Y-98490919D01*
X213431298Y-98463100D01*
X213288702Y-98463100D01*
X213148846Y-98490919D01*
X213017105Y-98545488D01*
X212898540Y-98624710D01*
X212797710Y-98725540D01*
X212718488Y-98844105D01*
X212663919Y-98975846D01*
X212636100Y-99115702D01*
X196386511Y-99115702D01*
X196407474Y-99065094D01*
X196430900Y-98947320D01*
X196430900Y-98827240D01*
X196407474Y-98709466D01*
X196361521Y-98598526D01*
X196294808Y-98498682D01*
X196280816Y-98484690D01*
X196282108Y-98483398D01*
X196348821Y-98383554D01*
X196394774Y-98272614D01*
X196418200Y-98154840D01*
X196418200Y-98034760D01*
X196394774Y-97916986D01*
X196360259Y-97833659D01*
X196443586Y-97868174D01*
X196561360Y-97891600D01*
X196681440Y-97891600D01*
X196799214Y-97868174D01*
X196910154Y-97822221D01*
X197009998Y-97755508D01*
X197094908Y-97670598D01*
X197161621Y-97570754D01*
X197207574Y-97459814D01*
X197231000Y-97342040D01*
X197231000Y-97221960D01*
X197228761Y-97210702D01*
X203111100Y-97210702D01*
X203111100Y-97353298D01*
X203138919Y-97493154D01*
X203193488Y-97624895D01*
X203272710Y-97743460D01*
X203319250Y-97790000D01*
X203272710Y-97836540D01*
X203193488Y-97955105D01*
X203138919Y-98086846D01*
X203111100Y-98226702D01*
X203111100Y-98369298D01*
X203138919Y-98509154D01*
X203193488Y-98640895D01*
X203272710Y-98759460D01*
X203373540Y-98860290D01*
X203492105Y-98939512D01*
X203623846Y-98994081D01*
X203763702Y-99021900D01*
X203906298Y-99021900D01*
X204046154Y-98994081D01*
X204177895Y-98939512D01*
X204216000Y-98914051D01*
X204254105Y-98939512D01*
X204385846Y-98994081D01*
X204525702Y-99021900D01*
X204668298Y-99021900D01*
X204808154Y-98994081D01*
X204939895Y-98939512D01*
X205058460Y-98860290D01*
X205159290Y-98759460D01*
X205238512Y-98640895D01*
X205293081Y-98509154D01*
X205320900Y-98369298D01*
X205320900Y-98226702D01*
X205293081Y-98086846D01*
X205238512Y-97955105D01*
X205159290Y-97836540D01*
X205058460Y-97735710D01*
X205029413Y-97716302D01*
X205526500Y-97716302D01*
X205526500Y-97858898D01*
X205554319Y-97998754D01*
X205608888Y-98130495D01*
X205688110Y-98249060D01*
X205788940Y-98349890D01*
X205907505Y-98429112D01*
X206039246Y-98483681D01*
X206179102Y-98511500D01*
X206321698Y-98511500D01*
X206461554Y-98483681D01*
X206593295Y-98429112D01*
X206711860Y-98349890D01*
X206812690Y-98249060D01*
X206891912Y-98130495D01*
X206946481Y-97998754D01*
X206974300Y-97858898D01*
X206974300Y-97716302D01*
X206946481Y-97576446D01*
X206900196Y-97464702D01*
X207175100Y-97464702D01*
X207175100Y-97607298D01*
X207202919Y-97747154D01*
X207245022Y-97848800D01*
X207202919Y-97950446D01*
X207175100Y-98090302D01*
X207175100Y-98232898D01*
X207202919Y-98372754D01*
X207257488Y-98504495D01*
X207336710Y-98623060D01*
X207437540Y-98723890D01*
X207556105Y-98803112D01*
X207687846Y-98857681D01*
X207827702Y-98885500D01*
X207970298Y-98885500D01*
X208110154Y-98857681D01*
X208241895Y-98803112D01*
X208360460Y-98723890D01*
X208461290Y-98623060D01*
X208540512Y-98504495D01*
X208595081Y-98372754D01*
X208622900Y-98232898D01*
X208622900Y-98090302D01*
X208595081Y-97950446D01*
X208552978Y-97848800D01*
X208595081Y-97747154D01*
X208622900Y-97607298D01*
X208622900Y-97464702D01*
X208595081Y-97324846D01*
X208540512Y-97193105D01*
X208461290Y-97074540D01*
X208360460Y-96973710D01*
X208241895Y-96894488D01*
X208110154Y-96839919D01*
X207970298Y-96812100D01*
X207827702Y-96812100D01*
X207687846Y-96839919D01*
X207556105Y-96894488D01*
X207437540Y-96973710D01*
X207336710Y-97074540D01*
X207257488Y-97193105D01*
X207202919Y-97324846D01*
X207175100Y-97464702D01*
X206900196Y-97464702D01*
X206891912Y-97444705D01*
X206812690Y-97326140D01*
X206711860Y-97225310D01*
X206593295Y-97146088D01*
X206461554Y-97091519D01*
X206321698Y-97063700D01*
X206179102Y-97063700D01*
X206039246Y-97091519D01*
X205907505Y-97146088D01*
X205788940Y-97225310D01*
X205688110Y-97326140D01*
X205608888Y-97444705D01*
X205554319Y-97576446D01*
X205526500Y-97716302D01*
X205029413Y-97716302D01*
X205026650Y-97714456D01*
X205070508Y-97670598D01*
X205137221Y-97570754D01*
X205183174Y-97459814D01*
X205206600Y-97342040D01*
X205206600Y-97221960D01*
X205183174Y-97104186D01*
X205137221Y-96993246D01*
X205070508Y-96893402D01*
X204985598Y-96808492D01*
X204885754Y-96741779D01*
X204791415Y-96702702D01*
X212636100Y-96702702D01*
X212636100Y-96845298D01*
X212663919Y-96985154D01*
X212718488Y-97116895D01*
X212797710Y-97235460D01*
X212898540Y-97336290D01*
X213017105Y-97415512D01*
X213148846Y-97470081D01*
X213288702Y-97497900D01*
X213431298Y-97497900D01*
X213571154Y-97470081D01*
X213702895Y-97415512D01*
X213821460Y-97336290D01*
X213922290Y-97235460D01*
X214001512Y-97116895D01*
X214056081Y-96985154D01*
X214083900Y-96845298D01*
X214083900Y-96702702D01*
X214056081Y-96562846D01*
X214001512Y-96431105D01*
X213922290Y-96312540D01*
X213821460Y-96211710D01*
X213702895Y-96132488D01*
X213571154Y-96077919D01*
X213431298Y-96050100D01*
X213288702Y-96050100D01*
X213148846Y-96077919D01*
X213017105Y-96132488D01*
X212898540Y-96211710D01*
X212797710Y-96312540D01*
X212718488Y-96431105D01*
X212663919Y-96562846D01*
X212636100Y-96702702D01*
X204791415Y-96702702D01*
X204774814Y-96695826D01*
X204657040Y-96672400D01*
X204536960Y-96672400D01*
X204419186Y-96695826D01*
X204315517Y-96738767D01*
X204296460Y-96719710D01*
X204177895Y-96640488D01*
X204046154Y-96585919D01*
X203906298Y-96558100D01*
X203763702Y-96558100D01*
X203623846Y-96585919D01*
X203492105Y-96640488D01*
X203373540Y-96719710D01*
X203272710Y-96820540D01*
X203193488Y-96939105D01*
X203138919Y-97070846D01*
X203111100Y-97210702D01*
X197228761Y-97210702D01*
X197207574Y-97104186D01*
X197161621Y-96993246D01*
X197094908Y-96893402D01*
X197009998Y-96808492D01*
X196958101Y-96773816D01*
X197377018Y-96354900D01*
X200928194Y-96354900D01*
X200957202Y-96383908D01*
X201057046Y-96450621D01*
X201167986Y-96496574D01*
X201285760Y-96520000D01*
X201405840Y-96520000D01*
X201523614Y-96496574D01*
X201634554Y-96450621D01*
X201734398Y-96383908D01*
X201819308Y-96298998D01*
X201886021Y-96199154D01*
X201931974Y-96088214D01*
X201955400Y-95970440D01*
X201955400Y-95850360D01*
X201931974Y-95732586D01*
X201886021Y-95621646D01*
X201819308Y-95521802D01*
X201734398Y-95436892D01*
X201634554Y-95370179D01*
X201523614Y-95324226D01*
X201405840Y-95300800D01*
X201285760Y-95300800D01*
X201167986Y-95324226D01*
X201057046Y-95370179D01*
X200957202Y-95436892D01*
X200928194Y-95465900D01*
X200163598Y-95465900D01*
X200179374Y-95427814D01*
X200202800Y-95310040D01*
X200202800Y-95189960D01*
X200179374Y-95072186D01*
X200133421Y-94961246D01*
X200066708Y-94861402D01*
X199981798Y-94776492D01*
X199881954Y-94709779D01*
X199771014Y-94663826D01*
X199653240Y-94640400D01*
X199533160Y-94640400D01*
X199415386Y-94663826D01*
X199304446Y-94709779D01*
X199204602Y-94776492D01*
X199175594Y-94805500D01*
X197075020Y-94805500D01*
X197053200Y-94803351D01*
X197031380Y-94805500D01*
X197031370Y-94805500D01*
X196966063Y-94811932D01*
X196882274Y-94837349D01*
X196805054Y-94878624D01*
X196754327Y-94920255D01*
X196754324Y-94920258D01*
X196737371Y-94934171D01*
X196723458Y-94951124D01*
X195522262Y-96152320D01*
X195494708Y-96111082D01*
X195409798Y-96026172D01*
X195309954Y-95959459D01*
X195199014Y-95913506D01*
X195081240Y-95890080D01*
X194961160Y-95890080D01*
X194843386Y-95913506D01*
X194732446Y-95959459D01*
X194632602Y-96026172D01*
X194547692Y-96111082D01*
X194480979Y-96210926D01*
X194435026Y-96321866D01*
X194411600Y-96439640D01*
X194411600Y-96559720D01*
X194435026Y-96677494D01*
X194480979Y-96788434D01*
X194547692Y-96888278D01*
X194550254Y-96890840D01*
X194522292Y-96918802D01*
X194455579Y-97018646D01*
X194409626Y-97129586D01*
X194386200Y-97247360D01*
X194386200Y-97367440D01*
X194409626Y-97485214D01*
X194455579Y-97596154D01*
X194522292Y-97695998D01*
X194607202Y-97780908D01*
X194707046Y-97847621D01*
X194817986Y-97893574D01*
X194935760Y-97917000D01*
X195055840Y-97917000D01*
X195173614Y-97893574D01*
X195244241Y-97864319D01*
X195222426Y-97916986D01*
X195199000Y-98034760D01*
X195199000Y-98154840D01*
X195222426Y-98272614D01*
X195268379Y-98383554D01*
X195335092Y-98483398D01*
X195349084Y-98497390D01*
X195347792Y-98498682D01*
X195281079Y-98598526D01*
X195235126Y-98709466D01*
X195211700Y-98827240D01*
X195211700Y-98868262D01*
X194799915Y-99280048D01*
X194796474Y-99271742D01*
X194828281Y-99194954D01*
X194856100Y-99055098D01*
X194856100Y-98912502D01*
X194828281Y-98772646D01*
X194773712Y-98640905D01*
X194694490Y-98522340D01*
X194593660Y-98421510D01*
X194475095Y-98342288D01*
X194343354Y-98287719D01*
X194203498Y-98259900D01*
X194060902Y-98259900D01*
X193921046Y-98287719D01*
X193816385Y-98331071D01*
X193702203Y-98283775D01*
X193562347Y-98255956D01*
X193419751Y-98255956D01*
X193279895Y-98283775D01*
X193148154Y-98338344D01*
X193029589Y-98417566D01*
X192928759Y-98518396D01*
X192849537Y-98636961D01*
X192794968Y-98768702D01*
X192767149Y-98908558D01*
X192767149Y-99051154D01*
X192794968Y-99191010D01*
X192843294Y-99307679D01*
X192802429Y-99406336D01*
X192774610Y-99546192D01*
X192774610Y-99688788D01*
X192802429Y-99828644D01*
X192856998Y-99960385D01*
X192936220Y-100078950D01*
X193037050Y-100179780D01*
X193155615Y-100259002D01*
X193287356Y-100313571D01*
X193427212Y-100341390D01*
X193569808Y-100341390D01*
X193709664Y-100313571D01*
X193806505Y-100273458D01*
X193463558Y-100616405D01*
X193446599Y-100630323D01*
X193432683Y-100647280D01*
X193421058Y-100661445D01*
X192802862Y-101279641D01*
X192785903Y-101293559D01*
X192771987Y-101310516D01*
X192730356Y-101361243D01*
X192718136Y-101384105D01*
X192689081Y-101438463D01*
X192663664Y-101522252D01*
X192657232Y-101587559D01*
X192657232Y-101587568D01*
X192655083Y-101609388D01*
X192657232Y-101631208D01*
X192657232Y-102258323D01*
X192597191Y-102258323D01*
X192479417Y-102281749D01*
X192381303Y-102322389D01*
X192406974Y-102260414D01*
X192430400Y-102142640D01*
X192430400Y-102022560D01*
X192406974Y-101904786D01*
X192361021Y-101793846D01*
X192294308Y-101694002D01*
X192288663Y-101688357D01*
X192344023Y-101632997D01*
X192410736Y-101533153D01*
X192456689Y-101422213D01*
X192480115Y-101304439D01*
X192480115Y-101184359D01*
X192456689Y-101066585D01*
X192410736Y-100955645D01*
X192344023Y-100855801D01*
X192330482Y-100842260D01*
X192361021Y-100796554D01*
X192406974Y-100685614D01*
X192430400Y-100567840D01*
X192430400Y-100447760D01*
X192406974Y-100329986D01*
X192361021Y-100219046D01*
X192294308Y-100119202D01*
X192209398Y-100034292D01*
X192109554Y-99967579D01*
X191998614Y-99921626D01*
X191880840Y-99898200D01*
X191760760Y-99898200D01*
X191642986Y-99921626D01*
X191532046Y-99967579D01*
X191432202Y-100034292D01*
X191347292Y-100119202D01*
X191280579Y-100219046D01*
X191234626Y-100329986D01*
X191211200Y-100447760D01*
X191211200Y-100567840D01*
X191234626Y-100685614D01*
X191280579Y-100796554D01*
X191347292Y-100896398D01*
X191360833Y-100909939D01*
X191330294Y-100955645D01*
X191284341Y-101066585D01*
X191260915Y-101184359D01*
X191260915Y-101304439D01*
X191284341Y-101422213D01*
X191330294Y-101533153D01*
X191378655Y-101605532D01*
X191322154Y-101567779D01*
X191211214Y-101521826D01*
X191093440Y-101498400D01*
X190973360Y-101498400D01*
X190855586Y-101521826D01*
X190744646Y-101567779D01*
X190644802Y-101634492D01*
X190559892Y-101719402D01*
X190493179Y-101819246D01*
X190447226Y-101930186D01*
X190423800Y-102047960D01*
X190408948Y-102047960D01*
X190408948Y-100932829D01*
X193437478Y-97904300D01*
X193478500Y-97904300D01*
X193596274Y-97880874D01*
X193707214Y-97834921D01*
X193807058Y-97768208D01*
X193891968Y-97683298D01*
X193958681Y-97583454D01*
X194004634Y-97472514D01*
X194028060Y-97354740D01*
X194028060Y-97234660D01*
X194004634Y-97116886D01*
X193958681Y-97005946D01*
X193891968Y-96906102D01*
X193807058Y-96821192D01*
X193707214Y-96754479D01*
X193596274Y-96708526D01*
X193478500Y-96685100D01*
X193358420Y-96685100D01*
X193240646Y-96708526D01*
X193129706Y-96754479D01*
X193029862Y-96821192D01*
X192944952Y-96906102D01*
X192878239Y-97005946D01*
X192832286Y-97116886D01*
X192808860Y-97234660D01*
X192808860Y-97275682D01*
X192327966Y-97756576D01*
X192294308Y-97706202D01*
X192276506Y-97688400D01*
X192294308Y-97670598D01*
X192361021Y-97570754D01*
X192406974Y-97459814D01*
X192430400Y-97342040D01*
X192430400Y-97221960D01*
X192406974Y-97104186D01*
X192361021Y-96993246D01*
X192294308Y-96893402D01*
X192276506Y-96875600D01*
X192294308Y-96857798D01*
X192361021Y-96757954D01*
X192406974Y-96647014D01*
X192430400Y-96529240D01*
X192430400Y-96409160D01*
X192406974Y-96291386D01*
X192361021Y-96180446D01*
X192294308Y-96080602D01*
X192209398Y-95995692D01*
X192109554Y-95928979D01*
X191998614Y-95883026D01*
X191880840Y-95859600D01*
X191760760Y-95859600D01*
X191642986Y-95883026D01*
X191532046Y-95928979D01*
X191432202Y-95995692D01*
X191347292Y-96080602D01*
X191280579Y-96180446D01*
X191234626Y-96291386D01*
X191211200Y-96409160D01*
X191211200Y-96529240D01*
X191234626Y-96647014D01*
X191280579Y-96757954D01*
X191347292Y-96857798D01*
X191365094Y-96875600D01*
X191347292Y-96893402D01*
X191280579Y-96993246D01*
X191234626Y-97104186D01*
X191211200Y-97221960D01*
X191211200Y-97342040D01*
X191234626Y-97459814D01*
X191280579Y-97570754D01*
X191347292Y-97670598D01*
X191365094Y-97688400D01*
X191347292Y-97706202D01*
X191280579Y-97806046D01*
X191234626Y-97916986D01*
X191211200Y-98034760D01*
X191211200Y-98075783D01*
X189762311Y-99524672D01*
X189744821Y-99482446D01*
X189678108Y-99382602D01*
X189593198Y-99297692D01*
X189493354Y-99230979D01*
X189382414Y-99185026D01*
X189264640Y-99161600D01*
X189144560Y-99161600D01*
X189026786Y-99185026D01*
X188915846Y-99230979D01*
X188816002Y-99297692D01*
X188731092Y-99382602D01*
X188664379Y-99482446D01*
X188618426Y-99593386D01*
X188595000Y-99711160D01*
X188595000Y-99831240D01*
X188618426Y-99949014D01*
X188664379Y-100059954D01*
X188731092Y-100159798D01*
X188736194Y-100164900D01*
X188731092Y-100170002D01*
X188664379Y-100269846D01*
X188618426Y-100380786D01*
X188595000Y-100498560D01*
X188595000Y-100618640D01*
X188618426Y-100736414D01*
X188636633Y-100780369D01*
X188612802Y-100796292D01*
X188527892Y-100881202D01*
X188461179Y-100981046D01*
X188415226Y-101091986D01*
X188391800Y-101209760D01*
X188391800Y-101329840D01*
X188415226Y-101447614D01*
X188461179Y-101558554D01*
X188527892Y-101658398D01*
X188566173Y-101696679D01*
X188346925Y-101915928D01*
X188329972Y-101929841D01*
X188316059Y-101946794D01*
X188316055Y-101946798D01*
X188274424Y-101997525D01*
X188233149Y-102074745D01*
X188207733Y-102158533D01*
X188199151Y-102245670D01*
X188201301Y-102267500D01*
X188201300Y-103544594D01*
X188172292Y-103573602D01*
X188119989Y-103651880D01*
X188020040Y-103632000D01*
X187899960Y-103632000D01*
X187782186Y-103655426D01*
X187671246Y-103701379D01*
X187571402Y-103768092D01*
X187486492Y-103853002D01*
X187419779Y-103952846D01*
X187373826Y-104063786D01*
X187350400Y-104181560D01*
X184103281Y-104181560D01*
X184156512Y-104101895D01*
X184211081Y-103970154D01*
X184238900Y-103830298D01*
X184238900Y-103687702D01*
X184211081Y-103547846D01*
X184156512Y-103416105D01*
X184077290Y-103297540D01*
X183976460Y-103196710D01*
X183857895Y-103117488D01*
X183726154Y-103062919D01*
X183586298Y-103035100D01*
X183443702Y-103035100D01*
X183303846Y-103062919D01*
X183172105Y-103117488D01*
X183134000Y-103142949D01*
X183095895Y-103117488D01*
X182964154Y-103062919D01*
X182824298Y-103035100D01*
X182681702Y-103035100D01*
X182541846Y-103062919D01*
X182410105Y-103117488D01*
X182291540Y-103196710D01*
X182190710Y-103297540D01*
X182111488Y-103416105D01*
X182056919Y-103547846D01*
X182029100Y-103687702D01*
X181676740Y-103687702D01*
X181698900Y-103576298D01*
X181698900Y-103433702D01*
X181671081Y-103293846D01*
X181616512Y-103162105D01*
X181537290Y-103043540D01*
X181436460Y-102942710D01*
X181317895Y-102863488D01*
X181186154Y-102808919D01*
X181046298Y-102781100D01*
X180903702Y-102781100D01*
X180763846Y-102808919D01*
X180632105Y-102863488D01*
X180513540Y-102942710D01*
X180412710Y-103043540D01*
X180333488Y-103162105D01*
X180278919Y-103293846D01*
X180251100Y-103433702D01*
X180251100Y-103576298D01*
X180278919Y-103716154D01*
X180333488Y-103847895D01*
X180403501Y-103952678D01*
X180403500Y-113255925D01*
X180400735Y-113284000D01*
X180403500Y-113312073D01*
X180403500Y-113636926D01*
X180400735Y-113665000D01*
X180403501Y-113693084D01*
X180403500Y-114288221D01*
X180333488Y-114393003D01*
X180278919Y-114524744D01*
X180251100Y-114664600D01*
X180251100Y-114807196D01*
X180278919Y-114947052D01*
X180333488Y-115078793D01*
X180369897Y-115133283D01*
X180251105Y-115182488D01*
X180132540Y-115261710D01*
X180031710Y-115362540D01*
X179952488Y-115481105D01*
X179897919Y-115612846D01*
X179870100Y-115752702D01*
X171856000Y-115752702D01*
X171856000Y-111053702D01*
X176187100Y-111053702D01*
X176187100Y-111196298D01*
X176214919Y-111336154D01*
X176269488Y-111467895D01*
X176348710Y-111586460D01*
X176449540Y-111687290D01*
X176568105Y-111766512D01*
X176699846Y-111821081D01*
X176839702Y-111848900D01*
X176982298Y-111848900D01*
X177122154Y-111821081D01*
X177253895Y-111766512D01*
X177372460Y-111687290D01*
X177473290Y-111586460D01*
X177552512Y-111467895D01*
X177607081Y-111336154D01*
X177630710Y-111217360D01*
X178460400Y-111217360D01*
X178460400Y-111337440D01*
X178483826Y-111455214D01*
X178529779Y-111566154D01*
X178596492Y-111665998D01*
X178681402Y-111750908D01*
X178781246Y-111817621D01*
X178892186Y-111863574D01*
X179009960Y-111887000D01*
X179130040Y-111887000D01*
X179247814Y-111863574D01*
X179358754Y-111817621D01*
X179458598Y-111750908D01*
X179543508Y-111665998D01*
X179610221Y-111566154D01*
X179656174Y-111455214D01*
X179679600Y-111337440D01*
X179679600Y-111217360D01*
X179656174Y-111099586D01*
X179610221Y-110988646D01*
X179543508Y-110888802D01*
X179458598Y-110803892D01*
X179358754Y-110737179D01*
X179247814Y-110691226D01*
X179130040Y-110667800D01*
X179009960Y-110667800D01*
X178892186Y-110691226D01*
X178781246Y-110737179D01*
X178681402Y-110803892D01*
X178596492Y-110888802D01*
X178529779Y-110988646D01*
X178483826Y-111099586D01*
X178460400Y-111217360D01*
X177630710Y-111217360D01*
X177634900Y-111196298D01*
X177634900Y-111053702D01*
X177607081Y-110913846D01*
X177552512Y-110782105D01*
X177473290Y-110663540D01*
X177372460Y-110562710D01*
X177253895Y-110483488D01*
X177122154Y-110428919D01*
X176982298Y-110401100D01*
X176839702Y-110401100D01*
X176699846Y-110428919D01*
X176568105Y-110483488D01*
X176449540Y-110562710D01*
X176348710Y-110663540D01*
X176269488Y-110782105D01*
X176214919Y-110913846D01*
X176187100Y-111053702D01*
X171856000Y-111053702D01*
X171856000Y-107116702D01*
X175679100Y-107116702D01*
X175679100Y-107259298D01*
X175706919Y-107399154D01*
X175761488Y-107530895D01*
X175840710Y-107649460D01*
X175941540Y-107750290D01*
X176060105Y-107829512D01*
X176191846Y-107884081D01*
X176331702Y-107911900D01*
X176474298Y-107911900D01*
X176614154Y-107884081D01*
X176745895Y-107829512D01*
X176864460Y-107750290D01*
X176965290Y-107649460D01*
X177044512Y-107530895D01*
X177099081Y-107399154D01*
X177126900Y-107259298D01*
X177126900Y-107116702D01*
X177099081Y-106976846D01*
X177044512Y-106845105D01*
X176965290Y-106726540D01*
X176864460Y-106625710D01*
X176745895Y-106546488D01*
X176614154Y-106491919D01*
X176474298Y-106464100D01*
X176331702Y-106464100D01*
X176191846Y-106491919D01*
X176060105Y-106546488D01*
X175941540Y-106625710D01*
X175840710Y-106726540D01*
X175761488Y-106845105D01*
X175706919Y-106976846D01*
X175679100Y-107116702D01*
X171856000Y-107116702D01*
X171856000Y-102417702D01*
X178219100Y-102417702D01*
X178219100Y-102560298D01*
X178246919Y-102700154D01*
X178301488Y-102831895D01*
X178380710Y-102950460D01*
X178481540Y-103051290D01*
X178600105Y-103130512D01*
X178731846Y-103185081D01*
X178871702Y-103212900D01*
X179014298Y-103212900D01*
X179154154Y-103185081D01*
X179285895Y-103130512D01*
X179404460Y-103051290D01*
X179505290Y-102950460D01*
X179584512Y-102831895D01*
X179639081Y-102700154D01*
X179666900Y-102560298D01*
X179666900Y-102417702D01*
X179639081Y-102277846D01*
X179584512Y-102146105D01*
X179505290Y-102027540D01*
X179404460Y-101926710D01*
X179285895Y-101847488D01*
X179154154Y-101792919D01*
X179014298Y-101765100D01*
X178871702Y-101765100D01*
X178731846Y-101792919D01*
X178600105Y-101847488D01*
X178481540Y-101926710D01*
X178380710Y-102027540D01*
X178301488Y-102146105D01*
X178246919Y-102277846D01*
X178219100Y-102417702D01*
X171856000Y-102417702D01*
X171856000Y-99990560D01*
X172796200Y-99990560D01*
X172796200Y-100110640D01*
X172819626Y-100228414D01*
X172865579Y-100339354D01*
X172932292Y-100439198D01*
X173017202Y-100524108D01*
X173117046Y-100590821D01*
X173227986Y-100636774D01*
X173345760Y-100660200D01*
X173465840Y-100660200D01*
X173583614Y-100636774D01*
X173694554Y-100590821D01*
X173794398Y-100524108D01*
X173879308Y-100439198D01*
X173946021Y-100339354D01*
X173991974Y-100228414D01*
X174015400Y-100110640D01*
X174015400Y-99990560D01*
X174003057Y-99928502D01*
X185199844Y-99928502D01*
X185199844Y-100071098D01*
X185227663Y-100210954D01*
X185282232Y-100342695D01*
X185361454Y-100461260D01*
X185462284Y-100562090D01*
X185580849Y-100641312D01*
X185712590Y-100695881D01*
X185852446Y-100723700D01*
X185995042Y-100723700D01*
X186134898Y-100695881D01*
X186266639Y-100641312D01*
X186385204Y-100562090D01*
X186455013Y-100492281D01*
X186455492Y-100492998D01*
X186540402Y-100577908D01*
X186640246Y-100644621D01*
X186751186Y-100690574D01*
X186868960Y-100714000D01*
X186989040Y-100714000D01*
X187106814Y-100690574D01*
X187217754Y-100644621D01*
X187317598Y-100577908D01*
X187402508Y-100492998D01*
X187469221Y-100393154D01*
X187515174Y-100282214D01*
X187538600Y-100164440D01*
X187538600Y-100044360D01*
X187515174Y-99926586D01*
X187469221Y-99815646D01*
X187402508Y-99715802D01*
X187317598Y-99630892D01*
X187217754Y-99564179D01*
X187106814Y-99518226D01*
X186989040Y-99494800D01*
X186868960Y-99494800D01*
X186751186Y-99518226D01*
X186640246Y-99564179D01*
X186545568Y-99627440D01*
X186486034Y-99538340D01*
X186385204Y-99437510D01*
X186266639Y-99358288D01*
X186134898Y-99303719D01*
X185995042Y-99275900D01*
X185852446Y-99275900D01*
X185712590Y-99303719D01*
X185580849Y-99358288D01*
X185462284Y-99437510D01*
X185361454Y-99538340D01*
X185282232Y-99656905D01*
X185227663Y-99788646D01*
X185199844Y-99928502D01*
X174003057Y-99928502D01*
X173991974Y-99872786D01*
X173947026Y-99764272D01*
X174045702Y-99783900D01*
X174188298Y-99783900D01*
X174328154Y-99756081D01*
X174459895Y-99701512D01*
X174578460Y-99622290D01*
X174679290Y-99521460D01*
X174758512Y-99402895D01*
X174813081Y-99271154D01*
X174840900Y-99131298D01*
X174840900Y-99126960D01*
X183667400Y-99126960D01*
X183667400Y-99247040D01*
X183690826Y-99364814D01*
X183736779Y-99475754D01*
X183803492Y-99575598D01*
X183888402Y-99660508D01*
X183988246Y-99727221D01*
X184099186Y-99773174D01*
X184216960Y-99796600D01*
X184337040Y-99796600D01*
X184454814Y-99773174D01*
X184565754Y-99727221D01*
X184665598Y-99660508D01*
X184750508Y-99575598D01*
X184817221Y-99475754D01*
X184863174Y-99364814D01*
X184886600Y-99247040D01*
X184886600Y-99126960D01*
X184863174Y-99009186D01*
X184817221Y-98898246D01*
X184750508Y-98798402D01*
X184665598Y-98713492D01*
X184565754Y-98646779D01*
X184454814Y-98600826D01*
X184337040Y-98577400D01*
X184216960Y-98577400D01*
X184099186Y-98600826D01*
X183988246Y-98646779D01*
X183888402Y-98713492D01*
X183803492Y-98798402D01*
X183736779Y-98898246D01*
X183690826Y-99009186D01*
X183667400Y-99126960D01*
X174840900Y-99126960D01*
X174840900Y-98988702D01*
X174813081Y-98848846D01*
X174758512Y-98717105D01*
X174679290Y-98598540D01*
X174578460Y-98497710D01*
X174485745Y-98435761D01*
X174488908Y-98432598D01*
X174555621Y-98332754D01*
X174601574Y-98221814D01*
X174625000Y-98104040D01*
X174625000Y-97983960D01*
X174601574Y-97866186D01*
X174555621Y-97755246D01*
X174488908Y-97655402D01*
X174403998Y-97570492D01*
X174304154Y-97503779D01*
X174193214Y-97457826D01*
X174075440Y-97434400D01*
X173955360Y-97434400D01*
X173837586Y-97457826D01*
X173726646Y-97503779D01*
X173626802Y-97570492D01*
X173541892Y-97655402D01*
X173475179Y-97755246D01*
X173429226Y-97866186D01*
X173405800Y-97983960D01*
X173405800Y-98104040D01*
X173429226Y-98221814D01*
X173475179Y-98332754D01*
X173541892Y-98432598D01*
X173626802Y-98517508D01*
X173632161Y-98521089D01*
X173554710Y-98598540D01*
X173475488Y-98717105D01*
X173420919Y-98848846D01*
X173393100Y-98988702D01*
X173393100Y-99131298D01*
X173420919Y-99271154D01*
X173475488Y-99402895D01*
X173506330Y-99449054D01*
X173465840Y-99441000D01*
X173345760Y-99441000D01*
X173227986Y-99464426D01*
X173117046Y-99510379D01*
X173017202Y-99577092D01*
X172932292Y-99662002D01*
X172865579Y-99761846D01*
X172819626Y-99872786D01*
X172796200Y-99990560D01*
X171856000Y-99990560D01*
X171856000Y-97094960D01*
X176047400Y-97094960D01*
X176047400Y-97215040D01*
X176070826Y-97332814D01*
X176116779Y-97443754D01*
X176183492Y-97543598D01*
X176268402Y-97628508D01*
X176368246Y-97695221D01*
X176479186Y-97741174D01*
X176596960Y-97764600D01*
X176717040Y-97764600D01*
X176834814Y-97741174D01*
X176945754Y-97695221D01*
X177045598Y-97628508D01*
X177130508Y-97543598D01*
X177197221Y-97443754D01*
X177243174Y-97332814D01*
X177266600Y-97215040D01*
X177266600Y-97094960D01*
X177243174Y-96977186D01*
X177197221Y-96866246D01*
X177180326Y-96840960D01*
X177444400Y-96840960D01*
X177444400Y-96961040D01*
X177467826Y-97078814D01*
X177513779Y-97189754D01*
X177580492Y-97289598D01*
X177665402Y-97374508D01*
X177765246Y-97441221D01*
X177876186Y-97487174D01*
X177993960Y-97510600D01*
X178114040Y-97510600D01*
X178231814Y-97487174D01*
X178342754Y-97441221D01*
X178442598Y-97374508D01*
X178527508Y-97289598D01*
X178594221Y-97189754D01*
X178640174Y-97078814D01*
X178663600Y-96961040D01*
X178663600Y-96840960D01*
X178640174Y-96723186D01*
X178614955Y-96662302D01*
X187505100Y-96662302D01*
X187505100Y-96804898D01*
X187532919Y-96944754D01*
X187587488Y-97076495D01*
X187666710Y-97195060D01*
X187767540Y-97295890D01*
X187886105Y-97375112D01*
X188017846Y-97429681D01*
X188157702Y-97457500D01*
X188300298Y-97457500D01*
X188440154Y-97429681D01*
X188571895Y-97375112D01*
X188690460Y-97295890D01*
X188764390Y-97221960D01*
X189611000Y-97221960D01*
X189611000Y-97342040D01*
X189634426Y-97459814D01*
X189680379Y-97570754D01*
X189747092Y-97670598D01*
X189832002Y-97755508D01*
X189931846Y-97822221D01*
X190042786Y-97868174D01*
X190160560Y-97891600D01*
X190280640Y-97891600D01*
X190398414Y-97868174D01*
X190509354Y-97822221D01*
X190609198Y-97755508D01*
X190694108Y-97670598D01*
X190760821Y-97570754D01*
X190806774Y-97459814D01*
X190830200Y-97342040D01*
X190830200Y-97221960D01*
X190806774Y-97104186D01*
X190760821Y-96993246D01*
X190694108Y-96893402D01*
X190609198Y-96808492D01*
X190509354Y-96741779D01*
X190398414Y-96695826D01*
X190280640Y-96672400D01*
X190160560Y-96672400D01*
X190042786Y-96695826D01*
X189931846Y-96741779D01*
X189832002Y-96808492D01*
X189747092Y-96893402D01*
X189680379Y-96993246D01*
X189634426Y-97104186D01*
X189611000Y-97221960D01*
X188764390Y-97221960D01*
X188791290Y-97195060D01*
X188870512Y-97076495D01*
X188925081Y-96944754D01*
X188952900Y-96804898D01*
X188952900Y-96662302D01*
X188925081Y-96522446D01*
X188870512Y-96390705D01*
X188791290Y-96272140D01*
X188690460Y-96171310D01*
X188571895Y-96092088D01*
X188440154Y-96037519D01*
X188300298Y-96009700D01*
X188157702Y-96009700D01*
X188017846Y-96037519D01*
X187886105Y-96092088D01*
X187767540Y-96171310D01*
X187666710Y-96272140D01*
X187587488Y-96390705D01*
X187532919Y-96522446D01*
X187505100Y-96662302D01*
X178614955Y-96662302D01*
X178594221Y-96612246D01*
X178527508Y-96512402D01*
X178442598Y-96427492D01*
X178342754Y-96360779D01*
X178231814Y-96314826D01*
X178114040Y-96291400D01*
X177993960Y-96291400D01*
X177876186Y-96314826D01*
X177765246Y-96360779D01*
X177665402Y-96427492D01*
X177580492Y-96512402D01*
X177513779Y-96612246D01*
X177467826Y-96723186D01*
X177444400Y-96840960D01*
X177180326Y-96840960D01*
X177130508Y-96766402D01*
X177045598Y-96681492D01*
X176945754Y-96614779D01*
X176834814Y-96568826D01*
X176717040Y-96545400D01*
X176596960Y-96545400D01*
X176479186Y-96568826D01*
X176368246Y-96614779D01*
X176268402Y-96681492D01*
X176183492Y-96766402D01*
X176116779Y-96866246D01*
X176070826Y-96977186D01*
X176047400Y-97094960D01*
X171856000Y-97094960D01*
X171856000Y-94386000D01*
X183188312Y-94386000D01*
X183172100Y-94467502D01*
X183172100Y-94467502D01*
G37*
X183172100Y-94467502D02*
X183172100Y-94610098D01*
X183199919Y-94749954D01*
X183254488Y-94881695D01*
X183333710Y-95000260D01*
X183434540Y-95101090D01*
X183553105Y-95180312D01*
X183684846Y-95234881D01*
X183824702Y-95262700D01*
X183967298Y-95262700D01*
X184107154Y-95234881D01*
X184238895Y-95180312D01*
X184357460Y-95101090D01*
X184458290Y-95000260D01*
X184537512Y-94881695D01*
X184592081Y-94749954D01*
X184619900Y-94610098D01*
X184619900Y-94467502D01*
X184603688Y-94386000D01*
X188928425Y-94386000D01*
X188910400Y-94476617D01*
X188910400Y-94619213D01*
X188938219Y-94759069D01*
X188992788Y-94890810D01*
X189072010Y-95009375D01*
X189172840Y-95110205D01*
X189291405Y-95189427D01*
X189423146Y-95243996D01*
X189563002Y-95271815D01*
X189705598Y-95271815D01*
X189845454Y-95243996D01*
X189977195Y-95189427D01*
X190095760Y-95110205D01*
X190196590Y-95009375D01*
X190275812Y-94890810D01*
X190330381Y-94759069D01*
X190358200Y-94619213D01*
X190358200Y-94476617D01*
X190340175Y-94386000D01*
X216764001Y-94386000D01*
X216764000Y-121514000D01*
X211466000Y-121514000D01*
X211466000Y-120564560D01*
X211937600Y-120564560D01*
X211937600Y-120684640D01*
X211961026Y-120802414D01*
X212006979Y-120913354D01*
X212073692Y-121013198D01*
X212158602Y-121098108D01*
X212258446Y-121164821D01*
X212369386Y-121210774D01*
X212487160Y-121234200D01*
X212607240Y-121234200D01*
X212725014Y-121210774D01*
X212835954Y-121164821D01*
X212935798Y-121098108D01*
X213020708Y-121013198D01*
X213087421Y-120913354D01*
X213133374Y-120802414D01*
X213156800Y-120684640D01*
X213156800Y-120564560D01*
X213133374Y-120446786D01*
X213087421Y-120335846D01*
X213020708Y-120236002D01*
X212935798Y-120151092D01*
X212835954Y-120084379D01*
X212725014Y-120038426D01*
X212607240Y-120015000D01*
X212487160Y-120015000D01*
X212369386Y-120038426D01*
X212258446Y-120084379D01*
X212158602Y-120151092D01*
X212073692Y-120236002D01*
X212006979Y-120335846D01*
X211961026Y-120446786D01*
X211937600Y-120564560D01*
X211466000Y-120564560D01*
X211466000Y-119368000D01*
X208904000Y-119368000D01*
X208904000Y-119380000D01*
X207518000Y-119380000D01*
X207493224Y-119382440D01*
X207469399Y-119389667D01*
X207447443Y-119401403D01*
X207428197Y-119417197D01*
X207412403Y-119436443D01*
X207400667Y-119458399D01*
X207393440Y-119482224D01*
X207391000Y-119507000D01*
X207391000Y-121514000D01*
X171856000Y-121514000D01*
X171856000Y-117400272D01*
X173135670Y-117400272D01*
X173135670Y-117542868D01*
X173163489Y-117682724D01*
X173218058Y-117814465D01*
X173297280Y-117933030D01*
X173398110Y-118033860D01*
X173516675Y-118113082D01*
X173648416Y-118167651D01*
X173788272Y-118195470D01*
X173930868Y-118195470D01*
X174070724Y-118167651D01*
X174202465Y-118113082D01*
X174321030Y-118033860D01*
X174421860Y-117933030D01*
X174428588Y-117922960D01*
X177825400Y-117922960D01*
X177825400Y-118043040D01*
X177848826Y-118160814D01*
X177894779Y-118271754D01*
X177961492Y-118371598D01*
X178046402Y-118456508D01*
X178146246Y-118523221D01*
X178257186Y-118569174D01*
X178374960Y-118592600D01*
X178495040Y-118592600D01*
X178612814Y-118569174D01*
X178723754Y-118523221D01*
X178823598Y-118456508D01*
X178908508Y-118371598D01*
X178975221Y-118271754D01*
X179021174Y-118160814D01*
X179029374Y-118119589D01*
X179042626Y-118186214D01*
X179088579Y-118297154D01*
X179155292Y-118396998D01*
X179240202Y-118481908D01*
X179340046Y-118548621D01*
X179450986Y-118594574D01*
X179568760Y-118618000D01*
X179688840Y-118618000D01*
X179806614Y-118594574D01*
X179917554Y-118548621D01*
X180005733Y-118489702D01*
X181591100Y-118489702D01*
X181591100Y-118632298D01*
X181618919Y-118772154D01*
X181673488Y-118903895D01*
X181752710Y-119022460D01*
X181853540Y-119123290D01*
X181972105Y-119202512D01*
X182103846Y-119257081D01*
X182243702Y-119284900D01*
X182386298Y-119284900D01*
X182526154Y-119257081D01*
X182657895Y-119202512D01*
X182689039Y-119181702D01*
X201841100Y-119181702D01*
X201841100Y-119324298D01*
X201868919Y-119464154D01*
X201923488Y-119595895D01*
X202002710Y-119714460D01*
X202103540Y-119815290D01*
X202222105Y-119894512D01*
X202353846Y-119949081D01*
X202493702Y-119976900D01*
X202636298Y-119976900D01*
X202776154Y-119949081D01*
X202907895Y-119894512D01*
X203026460Y-119815290D01*
X203127290Y-119714460D01*
X203206512Y-119595895D01*
X203261081Y-119464154D01*
X203288900Y-119324298D01*
X203288900Y-119181702D01*
X203261081Y-119041846D01*
X203206512Y-118910105D01*
X203127290Y-118791540D01*
X203026460Y-118690710D01*
X202907895Y-118611488D01*
X202776154Y-118556919D01*
X202724790Y-118546702D01*
X212509100Y-118546702D01*
X212509100Y-118689298D01*
X212536919Y-118829154D01*
X212591488Y-118960895D01*
X212670710Y-119079460D01*
X212771540Y-119180290D01*
X212890105Y-119259512D01*
X213021846Y-119314081D01*
X213161702Y-119341900D01*
X213304298Y-119341900D01*
X213444154Y-119314081D01*
X213575895Y-119259512D01*
X213694460Y-119180290D01*
X213795290Y-119079460D01*
X213874512Y-118960895D01*
X213929081Y-118829154D01*
X213956900Y-118689298D01*
X213956900Y-118546702D01*
X213929081Y-118406846D01*
X213874512Y-118275105D01*
X213795290Y-118156540D01*
X213694460Y-118055710D01*
X213575895Y-117976488D01*
X213444154Y-117921919D01*
X213304298Y-117894100D01*
X213161702Y-117894100D01*
X213021846Y-117921919D01*
X212890105Y-117976488D01*
X212771540Y-118055710D01*
X212670710Y-118156540D01*
X212591488Y-118275105D01*
X212536919Y-118406846D01*
X212509100Y-118546702D01*
X202724790Y-118546702D01*
X202636298Y-118529100D01*
X202493702Y-118529100D01*
X202353846Y-118556919D01*
X202222105Y-118611488D01*
X202103540Y-118690710D01*
X202002710Y-118791540D01*
X201923488Y-118910105D01*
X201868919Y-119041846D01*
X201841100Y-119181702D01*
X182689039Y-119181702D01*
X182776460Y-119123290D01*
X182877290Y-119022460D01*
X182956512Y-118903895D01*
X183011081Y-118772154D01*
X183038900Y-118632298D01*
X183038900Y-118489702D01*
X183017533Y-118382283D01*
X183053540Y-118418290D01*
X183172105Y-118497512D01*
X183303846Y-118552081D01*
X183443702Y-118579900D01*
X183586298Y-118579900D01*
X183726154Y-118552081D01*
X183857895Y-118497512D01*
X183976460Y-118418290D01*
X184077290Y-118317460D01*
X184156512Y-118198895D01*
X184211081Y-118067154D01*
X184238900Y-117927298D01*
X184238900Y-117784702D01*
X184211081Y-117644846D01*
X184156512Y-117513105D01*
X184077290Y-117394540D01*
X183976460Y-117293710D01*
X183857895Y-117214488D01*
X183726154Y-117159919D01*
X183586298Y-117132100D01*
X183443702Y-117132100D01*
X183303846Y-117159919D01*
X183172105Y-117214488D01*
X183053540Y-117293710D01*
X182952710Y-117394540D01*
X182873488Y-117513105D01*
X182818919Y-117644846D01*
X182791100Y-117784702D01*
X182791100Y-117927298D01*
X182812467Y-118034717D01*
X182776460Y-117998710D01*
X182657895Y-117919488D01*
X182526154Y-117864919D01*
X182386298Y-117837100D01*
X182243702Y-117837100D01*
X182103846Y-117864919D01*
X181972105Y-117919488D01*
X181853540Y-117998710D01*
X181752710Y-118099540D01*
X181673488Y-118218105D01*
X181618919Y-118349846D01*
X181591100Y-118489702D01*
X180005733Y-118489702D01*
X180017398Y-118481908D01*
X180102308Y-118396998D01*
X180169021Y-118297154D01*
X180214974Y-118186214D01*
X180238400Y-118068440D01*
X180238400Y-117948360D01*
X180214974Y-117830586D01*
X180169021Y-117719646D01*
X180102308Y-117619802D01*
X180017398Y-117534892D01*
X179917554Y-117468179D01*
X179806614Y-117422226D01*
X179688840Y-117398800D01*
X179568760Y-117398800D01*
X179450986Y-117422226D01*
X179340046Y-117468179D01*
X179240202Y-117534892D01*
X179155292Y-117619802D01*
X179088579Y-117719646D01*
X179042626Y-117830586D01*
X179034426Y-117871811D01*
X179021174Y-117805186D01*
X178975221Y-117694246D01*
X178908508Y-117594402D01*
X178823598Y-117509492D01*
X178723754Y-117442779D01*
X178612814Y-117396826D01*
X178495040Y-117373400D01*
X178374960Y-117373400D01*
X178257186Y-117396826D01*
X178146246Y-117442779D01*
X178046402Y-117509492D01*
X177961492Y-117594402D01*
X177894779Y-117694246D01*
X177848826Y-117805186D01*
X177825400Y-117922960D01*
X174428588Y-117922960D01*
X174501082Y-117814465D01*
X174555651Y-117682724D01*
X174583470Y-117542868D01*
X174583470Y-117400272D01*
X174555651Y-117260416D01*
X174501082Y-117128675D01*
X174421860Y-117010110D01*
X174321030Y-116909280D01*
X174202465Y-116830058D01*
X174070724Y-116775489D01*
X173930868Y-116747670D01*
X173788272Y-116747670D01*
X173648416Y-116775489D01*
X173516675Y-116830058D01*
X173398110Y-116909280D01*
X173297280Y-117010110D01*
X173218058Y-117128675D01*
X173163489Y-117260416D01*
X173135670Y-117400272D01*
X171856000Y-117400272D01*
X171856000Y-115752702D01*
X179870100Y-115752702D01*
X179870100Y-115895298D01*
X179897919Y-116035154D01*
X179952488Y-116166895D01*
X180031710Y-116285460D01*
X180078250Y-116332000D01*
X180031710Y-116378540D01*
X179952488Y-116497105D01*
X179897919Y-116628846D01*
X179870100Y-116768702D01*
X179870100Y-116911298D01*
X179897919Y-117051154D01*
X179952488Y-117182895D01*
X180031710Y-117301460D01*
X180132540Y-117402290D01*
X180251105Y-117481512D01*
X180382846Y-117536081D01*
X180522702Y-117563900D01*
X180665298Y-117563900D01*
X180805154Y-117536081D01*
X180936895Y-117481512D01*
X180975000Y-117456051D01*
X181013105Y-117481512D01*
X181144846Y-117536081D01*
X181284702Y-117563900D01*
X181427298Y-117563900D01*
X181567154Y-117536081D01*
X181698895Y-117481512D01*
X181817460Y-117402290D01*
X181918290Y-117301460D01*
X181997512Y-117182895D01*
X182052081Y-117051154D01*
X182055501Y-117033960D01*
X191109600Y-117033960D01*
X191109600Y-117154040D01*
X191133026Y-117271814D01*
X191178979Y-117382754D01*
X191245692Y-117482598D01*
X191330602Y-117567508D01*
X191430446Y-117634221D01*
X191501483Y-117663646D01*
X191420300Y-117717890D01*
X191319470Y-117818720D01*
X191240248Y-117937285D01*
X191185679Y-118069026D01*
X191157860Y-118208882D01*
X191157860Y-118351478D01*
X191185679Y-118491334D01*
X191240248Y-118623075D01*
X191319470Y-118741640D01*
X191420300Y-118842470D01*
X191538865Y-118921692D01*
X191670606Y-118976261D01*
X191810462Y-119004080D01*
X191953058Y-119004080D01*
X192092914Y-118976261D01*
X192224655Y-118921692D01*
X192343220Y-118842470D01*
X192444050Y-118741640D01*
X192523272Y-118623075D01*
X192577841Y-118491334D01*
X192605660Y-118351478D01*
X192605660Y-118262399D01*
X192668240Y-118262399D01*
X192786014Y-118238973D01*
X192896954Y-118193020D01*
X192996798Y-118126307D01*
X193081708Y-118041397D01*
X193148421Y-117941553D01*
X193194374Y-117830613D01*
X193217800Y-117712839D01*
X193217800Y-117592759D01*
X193194374Y-117474985D01*
X193148421Y-117364045D01*
X193081708Y-117264201D01*
X193071349Y-117253842D01*
X194878960Y-117253842D01*
X194878960Y-117396438D01*
X194906779Y-117536294D01*
X194961348Y-117668035D01*
X195040570Y-117786600D01*
X195141400Y-117887430D01*
X195259965Y-117966652D01*
X195391706Y-118021221D01*
X195531562Y-118049040D01*
X195674158Y-118049040D01*
X195814014Y-118021221D01*
X195945755Y-117966652D01*
X196064320Y-117887430D01*
X196165150Y-117786600D01*
X196244372Y-117668035D01*
X196298941Y-117536294D01*
X196326760Y-117396438D01*
X196326760Y-117253842D01*
X196298941Y-117113986D01*
X196244372Y-116982245D01*
X196165150Y-116863680D01*
X196064320Y-116762850D01*
X195945755Y-116683628D01*
X195814014Y-116629059D01*
X195674158Y-116601240D01*
X195531562Y-116601240D01*
X195391706Y-116629059D01*
X195259965Y-116683628D01*
X195141400Y-116762850D01*
X195040570Y-116863680D01*
X194961348Y-116982245D01*
X194906779Y-117113986D01*
X194878960Y-117253842D01*
X193071349Y-117253842D01*
X192996798Y-117179291D01*
X192896954Y-117112578D01*
X192786014Y-117066625D01*
X192668240Y-117043199D01*
X192548160Y-117043199D01*
X192430386Y-117066625D01*
X192328800Y-117108703D01*
X192328800Y-117033960D01*
X192305374Y-116916186D01*
X192259421Y-116805246D01*
X192192708Y-116705402D01*
X192107798Y-116620492D01*
X192007954Y-116553779D01*
X191897014Y-116507826D01*
X191779240Y-116484400D01*
X191659160Y-116484400D01*
X191541386Y-116507826D01*
X191430446Y-116553779D01*
X191330602Y-116620492D01*
X191245692Y-116705402D01*
X191178979Y-116805246D01*
X191133026Y-116916186D01*
X191109600Y-117033960D01*
X182055501Y-117033960D01*
X182079900Y-116911298D01*
X182079900Y-116768702D01*
X182052081Y-116628846D01*
X181997512Y-116497105D01*
X181918290Y-116378540D01*
X181871750Y-116332000D01*
X181918290Y-116285460D01*
X181997512Y-116166895D01*
X182052081Y-116035154D01*
X182079900Y-115895298D01*
X182079900Y-115752702D01*
X182052081Y-115612846D01*
X181997512Y-115481105D01*
X181961103Y-115426615D01*
X182079895Y-115377410D01*
X182198460Y-115298188D01*
X182299290Y-115197358D01*
X182372997Y-115087046D01*
X187469956Y-115087046D01*
X187469956Y-115229642D01*
X187497775Y-115369498D01*
X187552344Y-115501239D01*
X187631566Y-115619804D01*
X187732396Y-115720634D01*
X187850961Y-115799856D01*
X187982702Y-115854425D01*
X188122558Y-115882244D01*
X188265154Y-115882244D01*
X188405010Y-115854425D01*
X188536751Y-115799856D01*
X188655316Y-115720634D01*
X188756146Y-115619804D01*
X188835368Y-115501239D01*
X188889937Y-115369498D01*
X188892820Y-115355000D01*
X214159157Y-115355000D01*
X214159157Y-117055000D01*
X214166513Y-117129689D01*
X214188299Y-117201508D01*
X214223678Y-117267696D01*
X214271289Y-117325711D01*
X214329304Y-117373322D01*
X214395492Y-117408701D01*
X214467311Y-117430487D01*
X214542000Y-117437843D01*
X216242000Y-117437843D01*
X216316689Y-117430487D01*
X216388508Y-117408701D01*
X216454696Y-117373322D01*
X216512711Y-117325711D01*
X216560322Y-117267696D01*
X216595701Y-117201508D01*
X216617487Y-117129689D01*
X216624843Y-117055000D01*
X216624843Y-115355000D01*
X216617487Y-115280311D01*
X216595701Y-115208492D01*
X216560322Y-115142304D01*
X216512711Y-115084289D01*
X216454696Y-115036678D01*
X216388508Y-115001299D01*
X216316689Y-114979513D01*
X216242000Y-114972157D01*
X214542000Y-114972157D01*
X214467311Y-114979513D01*
X214395492Y-115001299D01*
X214329304Y-115036678D01*
X214271289Y-115084289D01*
X214223678Y-115142304D01*
X214188299Y-115208492D01*
X214166513Y-115280311D01*
X214159157Y-115355000D01*
X188892820Y-115355000D01*
X188917756Y-115229642D01*
X188917756Y-115087046D01*
X188889937Y-114947190D01*
X188835368Y-114815449D01*
X188756146Y-114696884D01*
X188655316Y-114596054D01*
X188536751Y-114516832D01*
X188405010Y-114462263D01*
X188265154Y-114434444D01*
X188122558Y-114434444D01*
X187982702Y-114462263D01*
X187850961Y-114516832D01*
X187732396Y-114596054D01*
X187631566Y-114696884D01*
X187552344Y-114815449D01*
X187497775Y-114947190D01*
X187469956Y-115087046D01*
X182372997Y-115087046D01*
X182378512Y-115078793D01*
X182433081Y-114947052D01*
X182460900Y-114807196D01*
X182460900Y-114664600D01*
X182433081Y-114524744D01*
X182378512Y-114393003D01*
X182308500Y-114288222D01*
X182308500Y-114236500D01*
X213005088Y-114236500D01*
X213004400Y-114239960D01*
X213004400Y-114360040D01*
X213027826Y-114477814D01*
X213073779Y-114588754D01*
X213140492Y-114688598D01*
X213225402Y-114773508D01*
X213325246Y-114840221D01*
X213436186Y-114886174D01*
X213553960Y-114909600D01*
X213674040Y-114909600D01*
X213791814Y-114886174D01*
X213902754Y-114840221D01*
X214002598Y-114773508D01*
X214087508Y-114688598D01*
X214154221Y-114588754D01*
X214200174Y-114477814D01*
X214223600Y-114360040D01*
X214223600Y-114239960D01*
X214200174Y-114122186D01*
X214159681Y-114024429D01*
X215473063Y-112711048D01*
X215473068Y-112711042D01*
X215815962Y-112368148D01*
X215854228Y-112321522D01*
X215954290Y-112221460D01*
X216033512Y-112102895D01*
X216088081Y-111971154D01*
X216115900Y-111831298D01*
X216115900Y-111688702D01*
X216088081Y-111548846D01*
X216033512Y-111417105D01*
X215954290Y-111298540D01*
X215853460Y-111197710D01*
X215734895Y-111118488D01*
X215603154Y-111063919D01*
X215463298Y-111036100D01*
X215320702Y-111036100D01*
X215180846Y-111063919D01*
X215049105Y-111118488D01*
X215011000Y-111143949D01*
X214972895Y-111118488D01*
X214841154Y-111063919D01*
X214701298Y-111036100D01*
X214558702Y-111036100D01*
X214418846Y-111063919D01*
X214287105Y-111118488D01*
X214168540Y-111197710D01*
X214122000Y-111244250D01*
X214075460Y-111197710D01*
X213956895Y-111118488D01*
X213825154Y-111063919D01*
X213685298Y-111036100D01*
X213542702Y-111036100D01*
X213402846Y-111063919D01*
X213271105Y-111118488D01*
X213152540Y-111197710D01*
X213051710Y-111298540D01*
X212972488Y-111417105D01*
X212917919Y-111548846D01*
X212890100Y-111688702D01*
X212890100Y-111831298D01*
X212917919Y-111971154D01*
X212972488Y-112102895D01*
X213051710Y-112221460D01*
X213152540Y-112322290D01*
X213271105Y-112401512D01*
X213402846Y-112456081D01*
X213542702Y-112483900D01*
X213635980Y-112483900D01*
X213407380Y-112712500D01*
X181546500Y-112712500D01*
X181546500Y-111445849D01*
X181573530Y-111511105D01*
X181640243Y-111610949D01*
X181725153Y-111695859D01*
X181824997Y-111762572D01*
X181935937Y-111808525D01*
X182053711Y-111831951D01*
X182173791Y-111831951D01*
X182255482Y-111815702D01*
X183934100Y-111815702D01*
X183934100Y-111958298D01*
X183961919Y-112098154D01*
X184016488Y-112229895D01*
X184095710Y-112348460D01*
X184196540Y-112449290D01*
X184315105Y-112528512D01*
X184446846Y-112583081D01*
X184586702Y-112610900D01*
X184729298Y-112610900D01*
X184869154Y-112583081D01*
X185000895Y-112528512D01*
X185119460Y-112449290D01*
X185220290Y-112348460D01*
X185299512Y-112229895D01*
X185354081Y-112098154D01*
X185381900Y-111958298D01*
X185381900Y-111815702D01*
X185354081Y-111675846D01*
X185299512Y-111544105D01*
X185220290Y-111425540D01*
X185119460Y-111324710D01*
X185000895Y-111245488D01*
X184869154Y-111190919D01*
X184729298Y-111163100D01*
X184586702Y-111163100D01*
X184446846Y-111190919D01*
X184315105Y-111245488D01*
X184196540Y-111324710D01*
X184095710Y-111425540D01*
X184016488Y-111544105D01*
X183961919Y-111675846D01*
X183934100Y-111815702D01*
X182255482Y-111815702D01*
X182291565Y-111808525D01*
X182402505Y-111762572D01*
X182502349Y-111695859D01*
X182587259Y-111610949D01*
X182653972Y-111511105D01*
X182699925Y-111400165D01*
X182723351Y-111282391D01*
X182723351Y-111162311D01*
X182699925Y-111044537D01*
X182653972Y-110933597D01*
X182587954Y-110834792D01*
X192406568Y-110834792D01*
X192406568Y-110954872D01*
X192429994Y-111072646D01*
X192475947Y-111183586D01*
X192542660Y-111283430D01*
X192627570Y-111368340D01*
X192727414Y-111435053D01*
X192838354Y-111481006D01*
X192956128Y-111504432D01*
X193076208Y-111504432D01*
X193193982Y-111481006D01*
X193304922Y-111435053D01*
X193404766Y-111368340D01*
X193489676Y-111283430D01*
X193556389Y-111183586D01*
X193602342Y-111072646D01*
X193625768Y-110954872D01*
X193625768Y-110834792D01*
X193602342Y-110717018D01*
X193556389Y-110606078D01*
X193489676Y-110506234D01*
X193404766Y-110421324D01*
X193304922Y-110354611D01*
X193193982Y-110308658D01*
X193076208Y-110285232D01*
X192956128Y-110285232D01*
X192838354Y-110308658D01*
X192727414Y-110354611D01*
X192627570Y-110421324D01*
X192542660Y-110506234D01*
X192475947Y-110606078D01*
X192429994Y-110717018D01*
X192406568Y-110834792D01*
X182587954Y-110834792D01*
X182587259Y-110833753D01*
X182502349Y-110748843D01*
X182402505Y-110682130D01*
X182291565Y-110636177D01*
X182173791Y-110612751D01*
X182053711Y-110612751D01*
X181935937Y-110636177D01*
X181824997Y-110682130D01*
X181725153Y-110748843D01*
X181640243Y-110833753D01*
X181573530Y-110933597D01*
X181546500Y-110998853D01*
X181546500Y-110035960D01*
X182283400Y-110035960D01*
X182283400Y-110156040D01*
X182306826Y-110273814D01*
X182352779Y-110384754D01*
X182419492Y-110484598D01*
X182504402Y-110569508D01*
X182604246Y-110636221D01*
X182715186Y-110682174D01*
X182832960Y-110705600D01*
X182953040Y-110705600D01*
X183070814Y-110682174D01*
X183181754Y-110636221D01*
X183281598Y-110569508D01*
X183366508Y-110484598D01*
X183433221Y-110384754D01*
X183479174Y-110273814D01*
X183502600Y-110156040D01*
X183502600Y-110035960D01*
X183479174Y-109918186D01*
X183433221Y-109807246D01*
X183366508Y-109707402D01*
X183281598Y-109622492D01*
X183181754Y-109555779D01*
X183070814Y-109509826D01*
X182953040Y-109486400D01*
X182832960Y-109486400D01*
X182715186Y-109509826D01*
X182604246Y-109555779D01*
X182504402Y-109622492D01*
X182419492Y-109707402D01*
X182352779Y-109807246D01*
X182306826Y-109918186D01*
X182283400Y-110035960D01*
X181546500Y-110035960D01*
X181546500Y-108894043D01*
X183736483Y-108894043D01*
X183736483Y-109014123D01*
X183759909Y-109131897D01*
X183805862Y-109242837D01*
X183872575Y-109342681D01*
X183957485Y-109427591D01*
X184057329Y-109494304D01*
X184168269Y-109540257D01*
X184225151Y-109551571D01*
X184743151Y-110069571D01*
X184759053Y-110088949D01*
X184778430Y-110104851D01*
X184836405Y-110152430D01*
X184880429Y-110175961D01*
X184924658Y-110199602D01*
X185020416Y-110228650D01*
X185095054Y-110236001D01*
X185095056Y-110236001D01*
X185120000Y-110238458D01*
X185144944Y-110236001D01*
X195024837Y-110236001D01*
X194997397Y-110302248D01*
X194973971Y-110420022D01*
X194973971Y-110540102D01*
X194997397Y-110657876D01*
X195043350Y-110768816D01*
X195110063Y-110868660D01*
X195194973Y-110953570D01*
X195294817Y-111020283D01*
X195405757Y-111066236D01*
X195523531Y-111089662D01*
X195643611Y-111089662D01*
X195761385Y-111066236D01*
X195872325Y-111020283D01*
X195972169Y-110953570D01*
X195999037Y-110926702D01*
X201206100Y-110926702D01*
X201206100Y-111069298D01*
X201233919Y-111209154D01*
X201288488Y-111340895D01*
X201367710Y-111459460D01*
X201468540Y-111560290D01*
X201587105Y-111639512D01*
X201718846Y-111694081D01*
X201858702Y-111721900D01*
X202001298Y-111721900D01*
X202141154Y-111694081D01*
X202272895Y-111639512D01*
X202391460Y-111560290D01*
X202492290Y-111459460D01*
X202535253Y-111395160D01*
X205206600Y-111395160D01*
X205206600Y-111515240D01*
X205230026Y-111633014D01*
X205275979Y-111743954D01*
X205342692Y-111843798D01*
X205427602Y-111928708D01*
X205527446Y-111995421D01*
X205638386Y-112041374D01*
X205756160Y-112064800D01*
X205876240Y-112064800D01*
X205994014Y-112041374D01*
X206104954Y-111995421D01*
X206204798Y-111928708D01*
X206289708Y-111843798D01*
X206356421Y-111743954D01*
X206402374Y-111633014D01*
X206425800Y-111515240D01*
X206425800Y-111395160D01*
X206402374Y-111277386D01*
X206356421Y-111166446D01*
X206289708Y-111066602D01*
X206204798Y-110981692D01*
X206104954Y-110914979D01*
X205994014Y-110869026D01*
X205876240Y-110845600D01*
X205756160Y-110845600D01*
X205638386Y-110869026D01*
X205527446Y-110914979D01*
X205427602Y-110981692D01*
X205342692Y-111066602D01*
X205275979Y-111166446D01*
X205230026Y-111277386D01*
X205206600Y-111395160D01*
X202535253Y-111395160D01*
X202571512Y-111340895D01*
X202626081Y-111209154D01*
X202653900Y-111069298D01*
X202653900Y-110926702D01*
X202626081Y-110786846D01*
X202571512Y-110655105D01*
X202498412Y-110545702D01*
X207937100Y-110545702D01*
X207937100Y-110688298D01*
X207964919Y-110828154D01*
X208019488Y-110959895D01*
X208098710Y-111078460D01*
X208199540Y-111179290D01*
X208318105Y-111258512D01*
X208449846Y-111313081D01*
X208589702Y-111340900D01*
X208732298Y-111340900D01*
X208872154Y-111313081D01*
X209003895Y-111258512D01*
X209122460Y-111179290D01*
X209223290Y-111078460D01*
X209302512Y-110959895D01*
X209357081Y-110828154D01*
X209384900Y-110688298D01*
X209384900Y-110545702D01*
X209357081Y-110405846D01*
X209302512Y-110274105D01*
X209223290Y-110155540D01*
X209122460Y-110054710D01*
X209003895Y-109975488D01*
X208872154Y-109920919D01*
X208732298Y-109893100D01*
X208589702Y-109893100D01*
X208449846Y-109920919D01*
X208318105Y-109975488D01*
X208199540Y-110054710D01*
X208098710Y-110155540D01*
X208019488Y-110274105D01*
X207964919Y-110405846D01*
X207937100Y-110545702D01*
X202498412Y-110545702D01*
X202492290Y-110536540D01*
X202391460Y-110435710D01*
X202272895Y-110356488D01*
X202141154Y-110301919D01*
X202001298Y-110274100D01*
X201858702Y-110274100D01*
X201718846Y-110301919D01*
X201587105Y-110356488D01*
X201468540Y-110435710D01*
X201367710Y-110536540D01*
X201288488Y-110655105D01*
X201233919Y-110786846D01*
X201206100Y-110926702D01*
X195999037Y-110926702D01*
X196057079Y-110868660D01*
X196123792Y-110768816D01*
X196169745Y-110657876D01*
X196193171Y-110540102D01*
X196193171Y-110420022D01*
X196169745Y-110302248D01*
X196142305Y-110236001D01*
X199491600Y-110236001D01*
X199491600Y-110296041D01*
X199515026Y-110413815D01*
X199560979Y-110524755D01*
X199627692Y-110624599D01*
X199712602Y-110709509D01*
X199812446Y-110776222D01*
X199923386Y-110822175D01*
X200041160Y-110845601D01*
X200161240Y-110845601D01*
X200279014Y-110822175D01*
X200389954Y-110776222D01*
X200489798Y-110709509D01*
X200574708Y-110624599D01*
X200641421Y-110524755D01*
X200687374Y-110413815D01*
X200710800Y-110296041D01*
X200710800Y-110236001D01*
X202202047Y-110236001D01*
X202226991Y-110238458D01*
X202251935Y-110236001D01*
X202251938Y-110236001D01*
X202326576Y-110228650D01*
X202422334Y-110199602D01*
X202510586Y-110152430D01*
X202587939Y-110088949D01*
X202603846Y-110069566D01*
X203524710Y-109148702D01*
X212890100Y-109148702D01*
X212890100Y-109291298D01*
X212917919Y-109431154D01*
X212972488Y-109562895D01*
X213051710Y-109681460D01*
X213152540Y-109782290D01*
X213271105Y-109861512D01*
X213402846Y-109916081D01*
X213542702Y-109943900D01*
X213685298Y-109943900D01*
X213825154Y-109916081D01*
X213956895Y-109861512D01*
X214075460Y-109782290D01*
X214176290Y-109681460D01*
X214255512Y-109562895D01*
X214310081Y-109431154D01*
X214337900Y-109291298D01*
X214337900Y-109148702D01*
X214310081Y-109008846D01*
X214255512Y-108877105D01*
X214176290Y-108758540D01*
X214075460Y-108657710D01*
X213956895Y-108578488D01*
X213825154Y-108523919D01*
X213685298Y-108496100D01*
X213542702Y-108496100D01*
X213402846Y-108523919D01*
X213271105Y-108578488D01*
X213152540Y-108657710D01*
X213051710Y-108758540D01*
X212972488Y-108877105D01*
X212917919Y-109008846D01*
X212890100Y-109148702D01*
X203524710Y-109148702D01*
X205810710Y-106862702D01*
X212636100Y-106862702D01*
X212636100Y-107005298D01*
X212663919Y-107145154D01*
X212718488Y-107276895D01*
X212797710Y-107395460D01*
X212898540Y-107496290D01*
X213017105Y-107575512D01*
X213148846Y-107630081D01*
X213288702Y-107657900D01*
X213431298Y-107657900D01*
X213571154Y-107630081D01*
X213702895Y-107575512D01*
X213821460Y-107496290D01*
X213922290Y-107395460D01*
X214001512Y-107276895D01*
X214056081Y-107145154D01*
X214083900Y-107005298D01*
X214083900Y-106862702D01*
X214056081Y-106722846D01*
X214001512Y-106591105D01*
X213922290Y-106472540D01*
X213821460Y-106371710D01*
X213702895Y-106292488D01*
X213571154Y-106237919D01*
X213431298Y-106210100D01*
X213288702Y-106210100D01*
X213148846Y-106237919D01*
X213017105Y-106292488D01*
X212898540Y-106371710D01*
X212797710Y-106472540D01*
X212718488Y-106591105D01*
X212663919Y-106722846D01*
X212636100Y-106862702D01*
X205810710Y-106862702D01*
X207385520Y-105287892D01*
X207462298Y-105287892D01*
X207602154Y-105260073D01*
X207733895Y-105205504D01*
X207852460Y-105126282D01*
X207953290Y-105025452D01*
X208032512Y-104906887D01*
X208087081Y-104775146D01*
X208114900Y-104635290D01*
X208114900Y-104492694D01*
X208087081Y-104352838D01*
X208074599Y-104322702D01*
X212636100Y-104322702D01*
X212636100Y-104465298D01*
X212663919Y-104605154D01*
X212718488Y-104736895D01*
X212797710Y-104855460D01*
X212898540Y-104956290D01*
X213017105Y-105035512D01*
X213148846Y-105090081D01*
X213288702Y-105117900D01*
X213431298Y-105117900D01*
X213571154Y-105090081D01*
X213702895Y-105035512D01*
X213821460Y-104956290D01*
X213922290Y-104855460D01*
X214001512Y-104736895D01*
X214056081Y-104605154D01*
X214083900Y-104465298D01*
X214083900Y-104322702D01*
X214056081Y-104182846D01*
X214001512Y-104051105D01*
X213922290Y-103932540D01*
X213821460Y-103831710D01*
X213702895Y-103752488D01*
X213571154Y-103697919D01*
X213431298Y-103670100D01*
X213288702Y-103670100D01*
X213148846Y-103697919D01*
X213017105Y-103752488D01*
X212898540Y-103831710D01*
X212797710Y-103932540D01*
X212718488Y-104051105D01*
X212663919Y-104182846D01*
X212636100Y-104322702D01*
X208074599Y-104322702D01*
X208032512Y-104221097D01*
X207953290Y-104102532D01*
X207852460Y-104001702D01*
X207733895Y-103922480D01*
X207602154Y-103867911D01*
X207462298Y-103840092D01*
X207319702Y-103840092D01*
X207179846Y-103867911D01*
X207048105Y-103922480D01*
X206929540Y-104001702D01*
X206828710Y-104102532D01*
X206749488Y-104221097D01*
X206694919Y-104352838D01*
X206667100Y-104492694D01*
X206667100Y-104569472D01*
X202016571Y-109220001D01*
X201014105Y-109220001D01*
X201031908Y-109202198D01*
X201098621Y-109102354D01*
X201144574Y-108991414D01*
X201168000Y-108873640D01*
X201168000Y-108753560D01*
X201144574Y-108635786D01*
X201098621Y-108524846D01*
X201031908Y-108425002D01*
X200963306Y-108356400D01*
X200981108Y-108338598D01*
X201047821Y-108238754D01*
X201093774Y-108127814D01*
X201117200Y-108010040D01*
X201117200Y-107889960D01*
X201093774Y-107772186D01*
X201047821Y-107661246D01*
X201027890Y-107631416D01*
X201057308Y-107601998D01*
X201124021Y-107502154D01*
X201169974Y-107391214D01*
X201193400Y-107273440D01*
X201193400Y-107153360D01*
X201169974Y-107035586D01*
X201124021Y-106924646D01*
X201057308Y-106824802D01*
X200972398Y-106739892D01*
X200872554Y-106673179D01*
X200761614Y-106627226D01*
X200643840Y-106603800D01*
X200523760Y-106603800D01*
X200405986Y-106627226D01*
X200295046Y-106673179D01*
X200195202Y-106739892D01*
X200110292Y-106824802D01*
X200043579Y-106924646D01*
X199997626Y-107035586D01*
X199974200Y-107153360D01*
X199974200Y-107273440D01*
X199997626Y-107391214D01*
X200043579Y-107502154D01*
X200063510Y-107531984D01*
X200034092Y-107561402D01*
X199967379Y-107661246D01*
X199921426Y-107772186D01*
X199898000Y-107889960D01*
X199898000Y-108010040D01*
X199921426Y-108127814D01*
X199967379Y-108238754D01*
X200034092Y-108338598D01*
X200102694Y-108407200D01*
X200084892Y-108425002D01*
X200018179Y-108524846D01*
X199972226Y-108635786D01*
X199948800Y-108753560D01*
X199948800Y-108873640D01*
X199972226Y-108991414D01*
X200018179Y-109102354D01*
X200084892Y-109202198D01*
X200102695Y-109220001D01*
X185330422Y-109220001D01*
X184943571Y-108833151D01*
X184932257Y-108776269D01*
X184886304Y-108665329D01*
X184819591Y-108565485D01*
X184734681Y-108480575D01*
X184634837Y-108413862D01*
X184523897Y-108367909D01*
X184406123Y-108344483D01*
X184286043Y-108344483D01*
X184168269Y-108367909D01*
X184057329Y-108413862D01*
X183957485Y-108480575D01*
X183872575Y-108565485D01*
X183805862Y-108665329D01*
X183759909Y-108776269D01*
X183736483Y-108894043D01*
X181546500Y-108894043D01*
X181546500Y-108000004D01*
X182151844Y-108000004D01*
X182151844Y-108120084D01*
X182175270Y-108237858D01*
X182221223Y-108348798D01*
X182287936Y-108448642D01*
X182372846Y-108533552D01*
X182472690Y-108600265D01*
X182583630Y-108646218D01*
X182701404Y-108669644D01*
X182821484Y-108669644D01*
X182939258Y-108646218D01*
X183050198Y-108600265D01*
X183150042Y-108533552D01*
X183234952Y-108448642D01*
X183301665Y-108348798D01*
X183347618Y-108237858D01*
X183371044Y-108120084D01*
X183371044Y-108000004D01*
X183347618Y-107882230D01*
X183326109Y-107830302D01*
X188732300Y-107830302D01*
X188732300Y-107972898D01*
X188760119Y-108112754D01*
X188814688Y-108244495D01*
X188893910Y-108363060D01*
X188994740Y-108463890D01*
X189113305Y-108543112D01*
X189245046Y-108597681D01*
X189384902Y-108625500D01*
X189527498Y-108625500D01*
X189667354Y-108597681D01*
X189799095Y-108543112D01*
X189917660Y-108463890D01*
X190018490Y-108363060D01*
X190097712Y-108244495D01*
X190152281Y-108112754D01*
X190180100Y-107972898D01*
X190180100Y-107830302D01*
X190152281Y-107690446D01*
X190097712Y-107558705D01*
X190018490Y-107440140D01*
X189917660Y-107339310D01*
X189799095Y-107260088D01*
X189667354Y-107205519D01*
X189527498Y-107177700D01*
X189384902Y-107177700D01*
X189245046Y-107205519D01*
X189113305Y-107260088D01*
X188994740Y-107339310D01*
X188893910Y-107440140D01*
X188814688Y-107558705D01*
X188760119Y-107690446D01*
X188732300Y-107830302D01*
X183326109Y-107830302D01*
X183301665Y-107771290D01*
X183234952Y-107671446D01*
X183150042Y-107586536D01*
X183050198Y-107519823D01*
X182939258Y-107473870D01*
X182821484Y-107450444D01*
X182701404Y-107450444D01*
X182583630Y-107473870D01*
X182472690Y-107519823D01*
X182372846Y-107586536D01*
X182287936Y-107671446D01*
X182221223Y-107771290D01*
X182175270Y-107882230D01*
X182151844Y-108000004D01*
X181546500Y-108000004D01*
X181546500Y-106873960D01*
X185572400Y-106873960D01*
X185572400Y-106994040D01*
X185595826Y-107111814D01*
X185641779Y-107222754D01*
X185708492Y-107322598D01*
X185793402Y-107407508D01*
X185893246Y-107474221D01*
X186004186Y-107520174D01*
X186121960Y-107543600D01*
X186242040Y-107543600D01*
X186359814Y-107520174D01*
X186470754Y-107474221D01*
X186570598Y-107407508D01*
X186655508Y-107322598D01*
X186722221Y-107222754D01*
X186768174Y-107111814D01*
X186791600Y-106994040D01*
X186791600Y-106873960D01*
X186768174Y-106756186D01*
X186722221Y-106645246D01*
X186655508Y-106545402D01*
X186570598Y-106460492D01*
X186470754Y-106393779D01*
X186359814Y-106347826D01*
X186242040Y-106324400D01*
X186121960Y-106324400D01*
X186004186Y-106347826D01*
X185893246Y-106393779D01*
X185793402Y-106460492D01*
X185708492Y-106545402D01*
X185641779Y-106645246D01*
X185595826Y-106756186D01*
X185572400Y-106873960D01*
X181546500Y-106873960D01*
X181546500Y-103952676D01*
X181616512Y-103847895D01*
X181671081Y-103716154D01*
X181676740Y-103687702D01*
X182029100Y-103687702D01*
X182029100Y-103830298D01*
X182056919Y-103970154D01*
X182111488Y-104101895D01*
X182190710Y-104220460D01*
X182291540Y-104321290D01*
X182305324Y-104330500D01*
X182291540Y-104339710D01*
X182190710Y-104440540D01*
X182111488Y-104559105D01*
X182056919Y-104690846D01*
X182029100Y-104830702D01*
X182029100Y-104973298D01*
X182056919Y-105113154D01*
X182111488Y-105244895D01*
X182190710Y-105363460D01*
X182291540Y-105464290D01*
X182410105Y-105543512D01*
X182541846Y-105598081D01*
X182681702Y-105625900D01*
X182824298Y-105625900D01*
X182964154Y-105598081D01*
X183095895Y-105543512D01*
X183134000Y-105518051D01*
X183172105Y-105543512D01*
X183303846Y-105598081D01*
X183443702Y-105625900D01*
X183586298Y-105625900D01*
X183726154Y-105598081D01*
X183857895Y-105543512D01*
X183881469Y-105527760D01*
X186486800Y-105527760D01*
X186486800Y-105647840D01*
X186510226Y-105765614D01*
X186556179Y-105876554D01*
X186622892Y-105976398D01*
X186707802Y-106061308D01*
X186807646Y-106128021D01*
X186918586Y-106173974D01*
X187036360Y-106197400D01*
X187156440Y-106197400D01*
X187274214Y-106173974D01*
X187385154Y-106128021D01*
X187484998Y-106061308D01*
X187569908Y-105976398D01*
X187636621Y-105876554D01*
X187682574Y-105765614D01*
X187706000Y-105647840D01*
X187706000Y-105527760D01*
X187682574Y-105409986D01*
X187636621Y-105299046D01*
X187569908Y-105199202D01*
X187484998Y-105114292D01*
X187385154Y-105047579D01*
X187274214Y-105001626D01*
X187156440Y-104978200D01*
X187036360Y-104978200D01*
X186918586Y-105001626D01*
X186807646Y-105047579D01*
X186707802Y-105114292D01*
X186622892Y-105199202D01*
X186556179Y-105299046D01*
X186510226Y-105409986D01*
X186486800Y-105527760D01*
X183881469Y-105527760D01*
X183976460Y-105464290D01*
X184077290Y-105363460D01*
X184156512Y-105244895D01*
X184211081Y-105113154D01*
X184238900Y-104973298D01*
X184238900Y-104830702D01*
X184211081Y-104690846D01*
X184156512Y-104559105D01*
X184077290Y-104440540D01*
X183976460Y-104339710D01*
X183962676Y-104330500D01*
X183976460Y-104321290D01*
X184077290Y-104220460D01*
X184103281Y-104181560D01*
X187350400Y-104181560D01*
X187350400Y-104301640D01*
X187373826Y-104419414D01*
X187419779Y-104530354D01*
X187486492Y-104630198D01*
X187571402Y-104715108D01*
X187671246Y-104781821D01*
X187782186Y-104827774D01*
X187899960Y-104851200D01*
X188020040Y-104851200D01*
X188137814Y-104827774D01*
X188248754Y-104781821D01*
X188348598Y-104715108D01*
X188433508Y-104630198D01*
X188485811Y-104551920D01*
X188585760Y-104571800D01*
X188588662Y-104571800D01*
X188613579Y-104631954D01*
X188680292Y-104731798D01*
X188765202Y-104816708D01*
X188865046Y-104883421D01*
X188975986Y-104929374D01*
X189093760Y-104952800D01*
X189213840Y-104952800D01*
X189331614Y-104929374D01*
X189442554Y-104883421D01*
X189519949Y-104831708D01*
X189519949Y-105584405D01*
X189434660Y-105619733D01*
X189334816Y-105686446D01*
X189249906Y-105771356D01*
X189183193Y-105871200D01*
X189137240Y-105982140D01*
X189113814Y-106099914D01*
X189113814Y-106219994D01*
X189137240Y-106337768D01*
X189183193Y-106448708D01*
X189249906Y-106548552D01*
X189334816Y-106633462D01*
X189434660Y-106700175D01*
X189545600Y-106746128D01*
X189663374Y-106769554D01*
X189783454Y-106769554D01*
X189901228Y-106746128D01*
X190012168Y-106700175D01*
X190112012Y-106633462D01*
X190196922Y-106548552D01*
X190263635Y-106448708D01*
X190309588Y-106337768D01*
X190333014Y-106219994D01*
X190333014Y-106113301D01*
X190335824Y-106109877D01*
X190377099Y-106032658D01*
X190402516Y-105948869D01*
X190408948Y-105883562D01*
X190408948Y-105883552D01*
X190411097Y-105861732D01*
X190408948Y-105839912D01*
X190408948Y-105097863D01*
X190430125Y-105112013D01*
X190541065Y-105157966D01*
X190658839Y-105181392D01*
X190778919Y-105181392D01*
X190896693Y-105157966D01*
X191007633Y-105112013D01*
X191107477Y-105045300D01*
X191192387Y-104960390D01*
X191203154Y-104944276D01*
X191203154Y-105057803D01*
X191226580Y-105175577D01*
X191272533Y-105286517D01*
X191339246Y-105386361D01*
X191424156Y-105471271D01*
X191524000Y-105537984D01*
X191634940Y-105583937D01*
X191752714Y-105607363D01*
X191872794Y-105607363D01*
X191990568Y-105583937D01*
X192101508Y-105537984D01*
X192201352Y-105471271D01*
X192286262Y-105386361D01*
X192352975Y-105286517D01*
X192398928Y-105175577D01*
X192422354Y-105057803D01*
X192422354Y-104937723D01*
X192398928Y-104819949D01*
X192378501Y-104770635D01*
X192437221Y-104682754D01*
X192483174Y-104571814D01*
X192506600Y-104454040D01*
X192506600Y-104333960D01*
X192483174Y-104216186D01*
X192437221Y-104105246D01*
X192370508Y-104005402D01*
X192285598Y-103920492D01*
X192185754Y-103853779D01*
X192074814Y-103807826D01*
X191957040Y-103784400D01*
X191836960Y-103784400D01*
X191719186Y-103807826D01*
X191681026Y-103823632D01*
X191675173Y-103794207D01*
X191629220Y-103683267D01*
X191562507Y-103583423D01*
X191477597Y-103498513D01*
X191377753Y-103431800D01*
X191266813Y-103385847D01*
X191149039Y-103362421D01*
X191028959Y-103362421D01*
X190911185Y-103385847D01*
X190800245Y-103431800D01*
X190700401Y-103498513D01*
X190653507Y-103545407D01*
X190561363Y-103507240D01*
X190443589Y-103483814D01*
X190408948Y-103483814D01*
X190408948Y-102047960D01*
X190423800Y-102047960D01*
X190423800Y-102168040D01*
X190447226Y-102285814D01*
X190493179Y-102396754D01*
X190559892Y-102496598D01*
X190644802Y-102581508D01*
X190744646Y-102648221D01*
X190855586Y-102694174D01*
X190973360Y-102717600D01*
X191093440Y-102717600D01*
X191211214Y-102694174D01*
X191322154Y-102648221D01*
X191421998Y-102581508D01*
X191441311Y-102562195D01*
X191532046Y-102622821D01*
X191642986Y-102668774D01*
X191760760Y-102692200D01*
X191880840Y-102692200D01*
X191998614Y-102668774D01*
X192096728Y-102628134D01*
X192071057Y-102690109D01*
X192047631Y-102807883D01*
X192047631Y-102927963D01*
X192071057Y-103045737D01*
X192117010Y-103156677D01*
X192183723Y-103256521D01*
X192268633Y-103341431D01*
X192368477Y-103408144D01*
X192479417Y-103454097D01*
X192597191Y-103477523D01*
X192657233Y-103477523D01*
X192657233Y-104699521D01*
X192624912Y-104731842D01*
X192558199Y-104831686D01*
X192512246Y-104942626D01*
X192488820Y-105060400D01*
X192488820Y-105180480D01*
X192512246Y-105298254D01*
X192558199Y-105409194D01*
X192624912Y-105509038D01*
X192709822Y-105593948D01*
X192809666Y-105660661D01*
X192920606Y-105706614D01*
X193038380Y-105730040D01*
X193132907Y-105730040D01*
X193132907Y-105970664D01*
X192985163Y-106118408D01*
X192968204Y-106132326D01*
X192954288Y-106149283D01*
X192912657Y-106200010D01*
X192894966Y-106233108D01*
X192871382Y-106277230D01*
X192845965Y-106361019D01*
X192839533Y-106426326D01*
X192839533Y-106426335D01*
X192837384Y-106448155D01*
X192839533Y-106469976D01*
X192839534Y-106925957D01*
X192837384Y-106947786D01*
X192845966Y-107034923D01*
X192871382Y-107118711D01*
X192903032Y-107177924D01*
X192903032Y-107236425D01*
X192926458Y-107354199D01*
X192972411Y-107465139D01*
X193039124Y-107564983D01*
X193074915Y-107600774D01*
X192989186Y-107617826D01*
X192878246Y-107663779D01*
X192778402Y-107730492D01*
X192693492Y-107815402D01*
X192626779Y-107915246D01*
X192580826Y-108026186D01*
X192557400Y-108143960D01*
X192557400Y-108264040D01*
X192580826Y-108381814D01*
X192626779Y-108492754D01*
X192693492Y-108592598D01*
X192778402Y-108677508D01*
X192878246Y-108744221D01*
X192989186Y-108790174D01*
X193106960Y-108813600D01*
X193227040Y-108813600D01*
X193344814Y-108790174D01*
X193455754Y-108744221D01*
X193555598Y-108677508D01*
X193640508Y-108592598D01*
X193707221Y-108492754D01*
X193753174Y-108381814D01*
X193776600Y-108264040D01*
X193776600Y-108143960D01*
X193753174Y-108026186D01*
X193707221Y-107915246D01*
X193640508Y-107815402D01*
X193604717Y-107779611D01*
X193690446Y-107762559D01*
X193801386Y-107716606D01*
X193846054Y-107686760D01*
X197789800Y-107686760D01*
X197789800Y-107806840D01*
X197813226Y-107924614D01*
X197859179Y-108035554D01*
X197925029Y-108134107D01*
X197884579Y-108194646D01*
X197838626Y-108305586D01*
X197815200Y-108423360D01*
X197815200Y-108543440D01*
X197838626Y-108661214D01*
X197884579Y-108772154D01*
X197951292Y-108871998D01*
X198036202Y-108956908D01*
X198136046Y-109023621D01*
X198246986Y-109069574D01*
X198364760Y-109093000D01*
X198484840Y-109093000D01*
X198602614Y-109069574D01*
X198713554Y-109023621D01*
X198813398Y-108956908D01*
X198898308Y-108871998D01*
X198965021Y-108772154D01*
X199010974Y-108661214D01*
X199034400Y-108543440D01*
X199034400Y-108423360D01*
X199010974Y-108305586D01*
X198965021Y-108194646D01*
X198899171Y-108096093D01*
X198939621Y-108035554D01*
X198985574Y-107924614D01*
X199009000Y-107806840D01*
X199009000Y-107686760D01*
X198985574Y-107568986D01*
X198939621Y-107458046D01*
X198872908Y-107358202D01*
X198787998Y-107273292D01*
X198688154Y-107206579D01*
X198577214Y-107160626D01*
X198459440Y-107137200D01*
X198339360Y-107137200D01*
X198221586Y-107160626D01*
X198110646Y-107206579D01*
X198010802Y-107273292D01*
X197925892Y-107358202D01*
X197859179Y-107458046D01*
X197813226Y-107568986D01*
X197789800Y-107686760D01*
X193846054Y-107686760D01*
X193901230Y-107649893D01*
X193986140Y-107564983D01*
X194052853Y-107465139D01*
X194098806Y-107354199D01*
X194122232Y-107236425D01*
X194122232Y-107116345D01*
X194116379Y-107086921D01*
X194144094Y-107075441D01*
X194243938Y-107008728D01*
X194328848Y-106923818D01*
X194395561Y-106823974D01*
X194441514Y-106713034D01*
X194464940Y-106595260D01*
X194464940Y-106475180D01*
X194441514Y-106357406D01*
X194395561Y-106246466D01*
X194328848Y-106146622D01*
X194299840Y-106117614D01*
X194299840Y-102691007D01*
X194411614Y-102668774D01*
X194464281Y-102646959D01*
X194435026Y-102717586D01*
X194411600Y-102835360D01*
X194411600Y-102955440D01*
X194435026Y-103073214D01*
X194480979Y-103184154D01*
X194547692Y-103283998D01*
X194632602Y-103368908D01*
X194732446Y-103435621D01*
X194843386Y-103481574D01*
X194961160Y-103505000D01*
X194995802Y-103505000D01*
X194995802Y-104120201D01*
X194994192Y-104136546D01*
X194937402Y-104174492D01*
X194852492Y-104259402D01*
X194785779Y-104359246D01*
X194739826Y-104470186D01*
X194716400Y-104587960D01*
X194716400Y-104708040D01*
X194739826Y-104825814D01*
X194785779Y-104936754D01*
X194852492Y-105036598D01*
X194937402Y-105121508D01*
X195037246Y-105188221D01*
X195148186Y-105234174D01*
X195265960Y-105257600D01*
X195300601Y-105257600D01*
X195300602Y-105519765D01*
X195278171Y-105510474D01*
X195160397Y-105487048D01*
X195040317Y-105487048D01*
X194922543Y-105510474D01*
X194811603Y-105556427D01*
X194711759Y-105623140D01*
X194626849Y-105708050D01*
X194560136Y-105807894D01*
X194514183Y-105918834D01*
X194490757Y-106036608D01*
X194490757Y-106156688D01*
X194514183Y-106274462D01*
X194560136Y-106385402D01*
X194626849Y-106485246D01*
X194706976Y-106565373D01*
X194694339Y-106584286D01*
X194648386Y-106695226D01*
X194624960Y-106813000D01*
X194624960Y-106933080D01*
X194648386Y-107050854D01*
X194694339Y-107161794D01*
X194761052Y-107261638D01*
X194845962Y-107346548D01*
X194945806Y-107413261D01*
X195056746Y-107459214D01*
X195174520Y-107482640D01*
X195294600Y-107482640D01*
X195412374Y-107459214D01*
X195523314Y-107413261D01*
X195623158Y-107346548D01*
X195708068Y-107261638D01*
X195774781Y-107161794D01*
X195820734Y-107050854D01*
X195844160Y-106933080D01*
X195844160Y-106892058D01*
X196043977Y-106692241D01*
X196060930Y-106678328D01*
X196074843Y-106661375D01*
X196074846Y-106661372D01*
X196116477Y-106610645D01*
X196157752Y-106533425D01*
X196183169Y-106449636D01*
X196189601Y-106384329D01*
X196189601Y-106384320D01*
X196191750Y-106362500D01*
X196189601Y-106340680D01*
X196189601Y-104599185D01*
X196189614Y-104599182D01*
X196300554Y-104553229D01*
X196400398Y-104486516D01*
X196485308Y-104401606D01*
X196552021Y-104301762D01*
X196597974Y-104190822D01*
X196621400Y-104073048D01*
X196621400Y-103952968D01*
X196597974Y-103835194D01*
X196552021Y-103724254D01*
X196485308Y-103624410D01*
X196400398Y-103539500D01*
X196300554Y-103472787D01*
X196189614Y-103426834D01*
X196071840Y-103403408D01*
X195951760Y-103403408D01*
X195884801Y-103416727D01*
X195884801Y-102523520D01*
X195886950Y-102501700D01*
X195884801Y-102479880D01*
X195884801Y-102479871D01*
X195878369Y-102414564D01*
X195852952Y-102330775D01*
X195811677Y-102253556D01*
X195756130Y-102185872D01*
X195739178Y-102171960D01*
X195630800Y-102063582D01*
X195630800Y-102022560D01*
X195607374Y-101904786D01*
X195590819Y-101864819D01*
X195630786Y-101881374D01*
X195748560Y-101904800D01*
X195868640Y-101904800D01*
X195986414Y-101881374D01*
X196057041Y-101852119D01*
X196035226Y-101904786D01*
X196011800Y-102022560D01*
X196011800Y-102142640D01*
X196035226Y-102260414D01*
X196081179Y-102371354D01*
X196147892Y-102471198D01*
X196165694Y-102489000D01*
X196147892Y-102506802D01*
X196081179Y-102606646D01*
X196035226Y-102717586D01*
X196011800Y-102835360D01*
X196011800Y-102955440D01*
X196035226Y-103073214D01*
X196081179Y-103184154D01*
X196147892Y-103283998D01*
X196232802Y-103368908D01*
X196332646Y-103435621D01*
X196443586Y-103481574D01*
X196561360Y-103505000D01*
X196681440Y-103505000D01*
X196799214Y-103481574D01*
X196910154Y-103435621D01*
X197009998Y-103368908D01*
X197094908Y-103283998D01*
X197161621Y-103184154D01*
X197207574Y-103073214D01*
X197231000Y-102955440D01*
X197231000Y-102835360D01*
X197207574Y-102717586D01*
X197161621Y-102606646D01*
X197094908Y-102506802D01*
X197077106Y-102489000D01*
X197094908Y-102471198D01*
X197161621Y-102371354D01*
X197207574Y-102260414D01*
X197231000Y-102142640D01*
X197231000Y-102022560D01*
X197207574Y-101904786D01*
X197161621Y-101793846D01*
X197094908Y-101694002D01*
X197009998Y-101609092D01*
X196910154Y-101542379D01*
X196799214Y-101496426D01*
X196681440Y-101473000D01*
X196561360Y-101473000D01*
X196443586Y-101496426D01*
X196372959Y-101525681D01*
X196394774Y-101473014D01*
X196418200Y-101355240D01*
X196418200Y-101235160D01*
X196394774Y-101117386D01*
X196348821Y-101006446D01*
X196282108Y-100906602D01*
X196264306Y-100888800D01*
X196282108Y-100870998D01*
X196293358Y-100854160D01*
X197586591Y-100854160D01*
X197586591Y-100974240D01*
X197610017Y-101092014D01*
X197655970Y-101202954D01*
X197722683Y-101302798D01*
X197727785Y-101307900D01*
X197722683Y-101313002D01*
X197655970Y-101412846D01*
X197610017Y-101523786D01*
X197586591Y-101641560D01*
X197586591Y-101761640D01*
X197610017Y-101879414D01*
X197655970Y-101990354D01*
X197717606Y-102082600D01*
X197655970Y-102174846D01*
X197610017Y-102285786D01*
X197586591Y-102403560D01*
X197586591Y-102523640D01*
X197610017Y-102641414D01*
X197655970Y-102752354D01*
X197722683Y-102852198D01*
X197740485Y-102870000D01*
X197722683Y-102887802D01*
X197655970Y-102987646D01*
X197610017Y-103098586D01*
X197586591Y-103216360D01*
X197586591Y-103336440D01*
X197610017Y-103454214D01*
X197655970Y-103565154D01*
X197722683Y-103664998D01*
X197807593Y-103749908D01*
X197907437Y-103816621D01*
X198018377Y-103862574D01*
X198136151Y-103886000D01*
X198256231Y-103886000D01*
X198374005Y-103862574D01*
X198484945Y-103816621D01*
X198584789Y-103749908D01*
X198669699Y-103664998D01*
X198736412Y-103565154D01*
X198782365Y-103454214D01*
X198805791Y-103336440D01*
X198805791Y-103216360D01*
X198782365Y-103098586D01*
X198736412Y-102987646D01*
X198669699Y-102887802D01*
X198651897Y-102870000D01*
X198669699Y-102852198D01*
X198680949Y-102835360D01*
X205232000Y-102835360D01*
X205232000Y-102955440D01*
X205255426Y-103073214D01*
X205301379Y-103184154D01*
X205368092Y-103283998D01*
X205453002Y-103368908D01*
X205552846Y-103435621D01*
X205597700Y-103454200D01*
X205552846Y-103472779D01*
X205453002Y-103539492D01*
X205368092Y-103624402D01*
X205301379Y-103724246D01*
X205255426Y-103835186D01*
X205232000Y-103952960D01*
X205232000Y-104073040D01*
X205255426Y-104190814D01*
X205301379Y-104301754D01*
X205368092Y-104401598D01*
X205453002Y-104486508D01*
X205552846Y-104553221D01*
X205663786Y-104599174D01*
X205781560Y-104622600D01*
X205901640Y-104622600D01*
X206019414Y-104599174D01*
X206130354Y-104553221D01*
X206230198Y-104486508D01*
X206315108Y-104401598D01*
X206381821Y-104301754D01*
X206427774Y-104190814D01*
X206451200Y-104073040D01*
X206451200Y-103952960D01*
X206427774Y-103835186D01*
X206381821Y-103724246D01*
X206315108Y-103624402D01*
X206230198Y-103539492D01*
X206130354Y-103472779D01*
X206085500Y-103454200D01*
X206130354Y-103435621D01*
X206230198Y-103368908D01*
X206315108Y-103283998D01*
X206381821Y-103184154D01*
X206427774Y-103073214D01*
X206451200Y-102955440D01*
X206451200Y-102835360D01*
X206427774Y-102717586D01*
X206381821Y-102606646D01*
X206315108Y-102506802D01*
X206230198Y-102421892D01*
X206130354Y-102355179D01*
X206019414Y-102309226D01*
X205901640Y-102285800D01*
X205781560Y-102285800D01*
X205663786Y-102309226D01*
X205552846Y-102355179D01*
X205453002Y-102421892D01*
X205368092Y-102506802D01*
X205301379Y-102606646D01*
X205255426Y-102717586D01*
X205232000Y-102835360D01*
X198680949Y-102835360D01*
X198736412Y-102752354D01*
X198782365Y-102641414D01*
X198805791Y-102523640D01*
X198805791Y-102403560D01*
X198782365Y-102285786D01*
X198736412Y-102174846D01*
X198674776Y-102082600D01*
X198736412Y-101990354D01*
X198782365Y-101879414D01*
X198805791Y-101761640D01*
X198805791Y-101641560D01*
X198783343Y-101528702D01*
X208699100Y-101528702D01*
X208699100Y-101671298D01*
X208726919Y-101811154D01*
X208781488Y-101942895D01*
X208860710Y-102061460D01*
X208961540Y-102162290D01*
X209080105Y-102241512D01*
X209211846Y-102296081D01*
X209351702Y-102323900D01*
X209494298Y-102323900D01*
X209634154Y-102296081D01*
X209765895Y-102241512D01*
X209884460Y-102162290D01*
X209985290Y-102061460D01*
X210064512Y-101942895D01*
X210119081Y-101811154D01*
X210146900Y-101671298D01*
X210146900Y-101655702D01*
X212636100Y-101655702D01*
X212636100Y-101798298D01*
X212663919Y-101938154D01*
X212718488Y-102069895D01*
X212797710Y-102188460D01*
X212898540Y-102289290D01*
X213017105Y-102368512D01*
X213148846Y-102423081D01*
X213288702Y-102450900D01*
X213431298Y-102450900D01*
X213571154Y-102423081D01*
X213702895Y-102368512D01*
X213821460Y-102289290D01*
X213922290Y-102188460D01*
X214001512Y-102069895D01*
X214056081Y-101938154D01*
X214083900Y-101798298D01*
X214083900Y-101655702D01*
X214056081Y-101515846D01*
X214001512Y-101384105D01*
X213922290Y-101265540D01*
X213821460Y-101164710D01*
X213702895Y-101085488D01*
X213571154Y-101030919D01*
X213431298Y-101003100D01*
X213288702Y-101003100D01*
X213148846Y-101030919D01*
X213017105Y-101085488D01*
X212898540Y-101164710D01*
X212797710Y-101265540D01*
X212718488Y-101384105D01*
X212663919Y-101515846D01*
X212636100Y-101655702D01*
X210146900Y-101655702D01*
X210146900Y-101528702D01*
X210119081Y-101388846D01*
X210064512Y-101257105D01*
X209985290Y-101138540D01*
X209884460Y-101037710D01*
X209765895Y-100958488D01*
X209634154Y-100903919D01*
X209494298Y-100876100D01*
X209351702Y-100876100D01*
X209211846Y-100903919D01*
X209080105Y-100958488D01*
X208961540Y-101037710D01*
X208860710Y-101138540D01*
X208781488Y-101257105D01*
X208726919Y-101388846D01*
X208699100Y-101528702D01*
X198783343Y-101528702D01*
X198782365Y-101523786D01*
X198736412Y-101412846D01*
X198669699Y-101313002D01*
X198664597Y-101307900D01*
X198669699Y-101302798D01*
X198736412Y-101202954D01*
X198782365Y-101092014D01*
X198805791Y-100974240D01*
X198805791Y-100854160D01*
X198790635Y-100777960D01*
X203403200Y-100777960D01*
X203403200Y-100898040D01*
X203426626Y-101015814D01*
X203472579Y-101126754D01*
X203539292Y-101226598D01*
X203624202Y-101311508D01*
X203724046Y-101378221D01*
X203834986Y-101424174D01*
X203952760Y-101447600D01*
X204072840Y-101447600D01*
X204190614Y-101424174D01*
X204301554Y-101378221D01*
X204401398Y-101311508D01*
X204486308Y-101226598D01*
X204553021Y-101126754D01*
X204598974Y-101015814D01*
X204622400Y-100898040D01*
X204622400Y-100777960D01*
X204598974Y-100660186D01*
X204553021Y-100549246D01*
X204486308Y-100449402D01*
X204401398Y-100364492D01*
X204301554Y-100297779D01*
X204190614Y-100251826D01*
X204072840Y-100228400D01*
X203952760Y-100228400D01*
X203834986Y-100251826D01*
X203724046Y-100297779D01*
X203624202Y-100364492D01*
X203539292Y-100449402D01*
X203472579Y-100549246D01*
X203426626Y-100660186D01*
X203403200Y-100777960D01*
X198790635Y-100777960D01*
X198782365Y-100736386D01*
X198736412Y-100625446D01*
X198669699Y-100525602D01*
X198584789Y-100440692D01*
X198484945Y-100373979D01*
X198374005Y-100328026D01*
X198256231Y-100304600D01*
X198136151Y-100304600D01*
X198018377Y-100328026D01*
X197907437Y-100373979D01*
X197807593Y-100440692D01*
X197722683Y-100525602D01*
X197655970Y-100625446D01*
X197610017Y-100736386D01*
X197586591Y-100854160D01*
X196293358Y-100854160D01*
X196348821Y-100771154D01*
X196394774Y-100660214D01*
X196418200Y-100542440D01*
X196418200Y-100422360D01*
X196394774Y-100304586D01*
X196348821Y-100193646D01*
X196282108Y-100093802D01*
X196197198Y-100008892D01*
X196097354Y-99942179D01*
X195986414Y-99896226D01*
X195868640Y-99872800D01*
X195748560Y-99872800D01*
X195630786Y-99896226D01*
X195519846Y-99942179D01*
X195420002Y-100008892D01*
X195335092Y-100093802D01*
X195268379Y-100193646D01*
X195222426Y-100304586D01*
X195199000Y-100422360D01*
X195199000Y-100542440D01*
X195222426Y-100660214D01*
X195268379Y-100771154D01*
X195321529Y-100850700D01*
X194486497Y-100850700D01*
X195840318Y-99496880D01*
X195881340Y-99496880D01*
X195999114Y-99473454D01*
X196110054Y-99427501D01*
X196209898Y-99360788D01*
X196294808Y-99275878D01*
X196361521Y-99176034D01*
X196386511Y-99115702D01*
X212636100Y-99115702D01*
X212636100Y-99258298D01*
X212663919Y-99398154D01*
X212718488Y-99529895D01*
X212797710Y-99648460D01*
X212898540Y-99749290D01*
X213017105Y-99828512D01*
X213148846Y-99883081D01*
X213288702Y-99910900D01*
X213431298Y-99910900D01*
X213571154Y-99883081D01*
X213702895Y-99828512D01*
X213821460Y-99749290D01*
X213922290Y-99648460D01*
X214001512Y-99529895D01*
X214056081Y-99398154D01*
X214083900Y-99258298D01*
X214083900Y-99115702D01*
X214056081Y-98975846D01*
X214001512Y-98844105D01*
X213922290Y-98725540D01*
X213821460Y-98624710D01*
X213702895Y-98545488D01*
X213571154Y-98490919D01*
X213431298Y-98463100D01*
X213288702Y-98463100D01*
X213148846Y-98490919D01*
X213017105Y-98545488D01*
X212898540Y-98624710D01*
X212797710Y-98725540D01*
X212718488Y-98844105D01*
X212663919Y-98975846D01*
X212636100Y-99115702D01*
X196386511Y-99115702D01*
X196407474Y-99065094D01*
X196430900Y-98947320D01*
X196430900Y-98827240D01*
X196407474Y-98709466D01*
X196361521Y-98598526D01*
X196294808Y-98498682D01*
X196280816Y-98484690D01*
X196282108Y-98483398D01*
X196348821Y-98383554D01*
X196394774Y-98272614D01*
X196418200Y-98154840D01*
X196418200Y-98034760D01*
X196394774Y-97916986D01*
X196360259Y-97833659D01*
X196443586Y-97868174D01*
X196561360Y-97891600D01*
X196681440Y-97891600D01*
X196799214Y-97868174D01*
X196910154Y-97822221D01*
X197009998Y-97755508D01*
X197094908Y-97670598D01*
X197161621Y-97570754D01*
X197207574Y-97459814D01*
X197231000Y-97342040D01*
X197231000Y-97221960D01*
X197228761Y-97210702D01*
X203111100Y-97210702D01*
X203111100Y-97353298D01*
X203138919Y-97493154D01*
X203193488Y-97624895D01*
X203272710Y-97743460D01*
X203319250Y-97790000D01*
X203272710Y-97836540D01*
X203193488Y-97955105D01*
X203138919Y-98086846D01*
X203111100Y-98226702D01*
X203111100Y-98369298D01*
X203138919Y-98509154D01*
X203193488Y-98640895D01*
X203272710Y-98759460D01*
X203373540Y-98860290D01*
X203492105Y-98939512D01*
X203623846Y-98994081D01*
X203763702Y-99021900D01*
X203906298Y-99021900D01*
X204046154Y-98994081D01*
X204177895Y-98939512D01*
X204216000Y-98914051D01*
X204254105Y-98939512D01*
X204385846Y-98994081D01*
X204525702Y-99021900D01*
X204668298Y-99021900D01*
X204808154Y-98994081D01*
X204939895Y-98939512D01*
X205058460Y-98860290D01*
X205159290Y-98759460D01*
X205238512Y-98640895D01*
X205293081Y-98509154D01*
X205320900Y-98369298D01*
X205320900Y-98226702D01*
X205293081Y-98086846D01*
X205238512Y-97955105D01*
X205159290Y-97836540D01*
X205058460Y-97735710D01*
X205029413Y-97716302D01*
X205526500Y-97716302D01*
X205526500Y-97858898D01*
X205554319Y-97998754D01*
X205608888Y-98130495D01*
X205688110Y-98249060D01*
X205788940Y-98349890D01*
X205907505Y-98429112D01*
X206039246Y-98483681D01*
X206179102Y-98511500D01*
X206321698Y-98511500D01*
X206461554Y-98483681D01*
X206593295Y-98429112D01*
X206711860Y-98349890D01*
X206812690Y-98249060D01*
X206891912Y-98130495D01*
X206946481Y-97998754D01*
X206974300Y-97858898D01*
X206974300Y-97716302D01*
X206946481Y-97576446D01*
X206900196Y-97464702D01*
X207175100Y-97464702D01*
X207175100Y-97607298D01*
X207202919Y-97747154D01*
X207245022Y-97848800D01*
X207202919Y-97950446D01*
X207175100Y-98090302D01*
X207175100Y-98232898D01*
X207202919Y-98372754D01*
X207257488Y-98504495D01*
X207336710Y-98623060D01*
X207437540Y-98723890D01*
X207556105Y-98803112D01*
X207687846Y-98857681D01*
X207827702Y-98885500D01*
X207970298Y-98885500D01*
X208110154Y-98857681D01*
X208241895Y-98803112D01*
X208360460Y-98723890D01*
X208461290Y-98623060D01*
X208540512Y-98504495D01*
X208595081Y-98372754D01*
X208622900Y-98232898D01*
X208622900Y-98090302D01*
X208595081Y-97950446D01*
X208552978Y-97848800D01*
X208595081Y-97747154D01*
X208622900Y-97607298D01*
X208622900Y-97464702D01*
X208595081Y-97324846D01*
X208540512Y-97193105D01*
X208461290Y-97074540D01*
X208360460Y-96973710D01*
X208241895Y-96894488D01*
X208110154Y-96839919D01*
X207970298Y-96812100D01*
X207827702Y-96812100D01*
X207687846Y-96839919D01*
X207556105Y-96894488D01*
X207437540Y-96973710D01*
X207336710Y-97074540D01*
X207257488Y-97193105D01*
X207202919Y-97324846D01*
X207175100Y-97464702D01*
X206900196Y-97464702D01*
X206891912Y-97444705D01*
X206812690Y-97326140D01*
X206711860Y-97225310D01*
X206593295Y-97146088D01*
X206461554Y-97091519D01*
X206321698Y-97063700D01*
X206179102Y-97063700D01*
X206039246Y-97091519D01*
X205907505Y-97146088D01*
X205788940Y-97225310D01*
X205688110Y-97326140D01*
X205608888Y-97444705D01*
X205554319Y-97576446D01*
X205526500Y-97716302D01*
X205029413Y-97716302D01*
X205026650Y-97714456D01*
X205070508Y-97670598D01*
X205137221Y-97570754D01*
X205183174Y-97459814D01*
X205206600Y-97342040D01*
X205206600Y-97221960D01*
X205183174Y-97104186D01*
X205137221Y-96993246D01*
X205070508Y-96893402D01*
X204985598Y-96808492D01*
X204885754Y-96741779D01*
X204791415Y-96702702D01*
X212636100Y-96702702D01*
X212636100Y-96845298D01*
X212663919Y-96985154D01*
X212718488Y-97116895D01*
X212797710Y-97235460D01*
X212898540Y-97336290D01*
X213017105Y-97415512D01*
X213148846Y-97470081D01*
X213288702Y-97497900D01*
X213431298Y-97497900D01*
X213571154Y-97470081D01*
X213702895Y-97415512D01*
X213821460Y-97336290D01*
X213922290Y-97235460D01*
X214001512Y-97116895D01*
X214056081Y-96985154D01*
X214083900Y-96845298D01*
X214083900Y-96702702D01*
X214056081Y-96562846D01*
X214001512Y-96431105D01*
X213922290Y-96312540D01*
X213821460Y-96211710D01*
X213702895Y-96132488D01*
X213571154Y-96077919D01*
X213431298Y-96050100D01*
X213288702Y-96050100D01*
X213148846Y-96077919D01*
X213017105Y-96132488D01*
X212898540Y-96211710D01*
X212797710Y-96312540D01*
X212718488Y-96431105D01*
X212663919Y-96562846D01*
X212636100Y-96702702D01*
X204791415Y-96702702D01*
X204774814Y-96695826D01*
X204657040Y-96672400D01*
X204536960Y-96672400D01*
X204419186Y-96695826D01*
X204315517Y-96738767D01*
X204296460Y-96719710D01*
X204177895Y-96640488D01*
X204046154Y-96585919D01*
X203906298Y-96558100D01*
X203763702Y-96558100D01*
X203623846Y-96585919D01*
X203492105Y-96640488D01*
X203373540Y-96719710D01*
X203272710Y-96820540D01*
X203193488Y-96939105D01*
X203138919Y-97070846D01*
X203111100Y-97210702D01*
X197228761Y-97210702D01*
X197207574Y-97104186D01*
X197161621Y-96993246D01*
X197094908Y-96893402D01*
X197009998Y-96808492D01*
X196958101Y-96773816D01*
X197377018Y-96354900D01*
X200928194Y-96354900D01*
X200957202Y-96383908D01*
X201057046Y-96450621D01*
X201167986Y-96496574D01*
X201285760Y-96520000D01*
X201405840Y-96520000D01*
X201523614Y-96496574D01*
X201634554Y-96450621D01*
X201734398Y-96383908D01*
X201819308Y-96298998D01*
X201886021Y-96199154D01*
X201931974Y-96088214D01*
X201955400Y-95970440D01*
X201955400Y-95850360D01*
X201931974Y-95732586D01*
X201886021Y-95621646D01*
X201819308Y-95521802D01*
X201734398Y-95436892D01*
X201634554Y-95370179D01*
X201523614Y-95324226D01*
X201405840Y-95300800D01*
X201285760Y-95300800D01*
X201167986Y-95324226D01*
X201057046Y-95370179D01*
X200957202Y-95436892D01*
X200928194Y-95465900D01*
X200163598Y-95465900D01*
X200179374Y-95427814D01*
X200202800Y-95310040D01*
X200202800Y-95189960D01*
X200179374Y-95072186D01*
X200133421Y-94961246D01*
X200066708Y-94861402D01*
X199981798Y-94776492D01*
X199881954Y-94709779D01*
X199771014Y-94663826D01*
X199653240Y-94640400D01*
X199533160Y-94640400D01*
X199415386Y-94663826D01*
X199304446Y-94709779D01*
X199204602Y-94776492D01*
X199175594Y-94805500D01*
X197075020Y-94805500D01*
X197053200Y-94803351D01*
X197031380Y-94805500D01*
X197031370Y-94805500D01*
X196966063Y-94811932D01*
X196882274Y-94837349D01*
X196805054Y-94878624D01*
X196754327Y-94920255D01*
X196754324Y-94920258D01*
X196737371Y-94934171D01*
X196723458Y-94951124D01*
X195522262Y-96152320D01*
X195494708Y-96111082D01*
X195409798Y-96026172D01*
X195309954Y-95959459D01*
X195199014Y-95913506D01*
X195081240Y-95890080D01*
X194961160Y-95890080D01*
X194843386Y-95913506D01*
X194732446Y-95959459D01*
X194632602Y-96026172D01*
X194547692Y-96111082D01*
X194480979Y-96210926D01*
X194435026Y-96321866D01*
X194411600Y-96439640D01*
X194411600Y-96559720D01*
X194435026Y-96677494D01*
X194480979Y-96788434D01*
X194547692Y-96888278D01*
X194550254Y-96890840D01*
X194522292Y-96918802D01*
X194455579Y-97018646D01*
X194409626Y-97129586D01*
X194386200Y-97247360D01*
X194386200Y-97367440D01*
X194409626Y-97485214D01*
X194455579Y-97596154D01*
X194522292Y-97695998D01*
X194607202Y-97780908D01*
X194707046Y-97847621D01*
X194817986Y-97893574D01*
X194935760Y-97917000D01*
X195055840Y-97917000D01*
X195173614Y-97893574D01*
X195244241Y-97864319D01*
X195222426Y-97916986D01*
X195199000Y-98034760D01*
X195199000Y-98154840D01*
X195222426Y-98272614D01*
X195268379Y-98383554D01*
X195335092Y-98483398D01*
X195349084Y-98497390D01*
X195347792Y-98498682D01*
X195281079Y-98598526D01*
X195235126Y-98709466D01*
X195211700Y-98827240D01*
X195211700Y-98868262D01*
X194799915Y-99280048D01*
X194796474Y-99271742D01*
X194828281Y-99194954D01*
X194856100Y-99055098D01*
X194856100Y-98912502D01*
X194828281Y-98772646D01*
X194773712Y-98640905D01*
X194694490Y-98522340D01*
X194593660Y-98421510D01*
X194475095Y-98342288D01*
X194343354Y-98287719D01*
X194203498Y-98259900D01*
X194060902Y-98259900D01*
X193921046Y-98287719D01*
X193816385Y-98331071D01*
X193702203Y-98283775D01*
X193562347Y-98255956D01*
X193419751Y-98255956D01*
X193279895Y-98283775D01*
X193148154Y-98338344D01*
X193029589Y-98417566D01*
X192928759Y-98518396D01*
X192849537Y-98636961D01*
X192794968Y-98768702D01*
X192767149Y-98908558D01*
X192767149Y-99051154D01*
X192794968Y-99191010D01*
X192843294Y-99307679D01*
X192802429Y-99406336D01*
X192774610Y-99546192D01*
X192774610Y-99688788D01*
X192802429Y-99828644D01*
X192856998Y-99960385D01*
X192936220Y-100078950D01*
X193037050Y-100179780D01*
X193155615Y-100259002D01*
X193287356Y-100313571D01*
X193427212Y-100341390D01*
X193569808Y-100341390D01*
X193709664Y-100313571D01*
X193806505Y-100273458D01*
X193463558Y-100616405D01*
X193446599Y-100630323D01*
X193432683Y-100647280D01*
X193421058Y-100661445D01*
X192802862Y-101279641D01*
X192785903Y-101293559D01*
X192771987Y-101310516D01*
X192730356Y-101361243D01*
X192718136Y-101384105D01*
X192689081Y-101438463D01*
X192663664Y-101522252D01*
X192657232Y-101587559D01*
X192657232Y-101587568D01*
X192655083Y-101609388D01*
X192657232Y-101631208D01*
X192657232Y-102258323D01*
X192597191Y-102258323D01*
X192479417Y-102281749D01*
X192381303Y-102322389D01*
X192406974Y-102260414D01*
X192430400Y-102142640D01*
X192430400Y-102022560D01*
X192406974Y-101904786D01*
X192361021Y-101793846D01*
X192294308Y-101694002D01*
X192288663Y-101688357D01*
X192344023Y-101632997D01*
X192410736Y-101533153D01*
X192456689Y-101422213D01*
X192480115Y-101304439D01*
X192480115Y-101184359D01*
X192456689Y-101066585D01*
X192410736Y-100955645D01*
X192344023Y-100855801D01*
X192330482Y-100842260D01*
X192361021Y-100796554D01*
X192406974Y-100685614D01*
X192430400Y-100567840D01*
X192430400Y-100447760D01*
X192406974Y-100329986D01*
X192361021Y-100219046D01*
X192294308Y-100119202D01*
X192209398Y-100034292D01*
X192109554Y-99967579D01*
X191998614Y-99921626D01*
X191880840Y-99898200D01*
X191760760Y-99898200D01*
X191642986Y-99921626D01*
X191532046Y-99967579D01*
X191432202Y-100034292D01*
X191347292Y-100119202D01*
X191280579Y-100219046D01*
X191234626Y-100329986D01*
X191211200Y-100447760D01*
X191211200Y-100567840D01*
X191234626Y-100685614D01*
X191280579Y-100796554D01*
X191347292Y-100896398D01*
X191360833Y-100909939D01*
X191330294Y-100955645D01*
X191284341Y-101066585D01*
X191260915Y-101184359D01*
X191260915Y-101304439D01*
X191284341Y-101422213D01*
X191330294Y-101533153D01*
X191378655Y-101605532D01*
X191322154Y-101567779D01*
X191211214Y-101521826D01*
X191093440Y-101498400D01*
X190973360Y-101498400D01*
X190855586Y-101521826D01*
X190744646Y-101567779D01*
X190644802Y-101634492D01*
X190559892Y-101719402D01*
X190493179Y-101819246D01*
X190447226Y-101930186D01*
X190423800Y-102047960D01*
X190408948Y-102047960D01*
X190408948Y-100932829D01*
X193437478Y-97904300D01*
X193478500Y-97904300D01*
X193596274Y-97880874D01*
X193707214Y-97834921D01*
X193807058Y-97768208D01*
X193891968Y-97683298D01*
X193958681Y-97583454D01*
X194004634Y-97472514D01*
X194028060Y-97354740D01*
X194028060Y-97234660D01*
X194004634Y-97116886D01*
X193958681Y-97005946D01*
X193891968Y-96906102D01*
X193807058Y-96821192D01*
X193707214Y-96754479D01*
X193596274Y-96708526D01*
X193478500Y-96685100D01*
X193358420Y-96685100D01*
X193240646Y-96708526D01*
X193129706Y-96754479D01*
X193029862Y-96821192D01*
X192944952Y-96906102D01*
X192878239Y-97005946D01*
X192832286Y-97116886D01*
X192808860Y-97234660D01*
X192808860Y-97275682D01*
X192327966Y-97756576D01*
X192294308Y-97706202D01*
X192276506Y-97688400D01*
X192294308Y-97670598D01*
X192361021Y-97570754D01*
X192406974Y-97459814D01*
X192430400Y-97342040D01*
X192430400Y-97221960D01*
X192406974Y-97104186D01*
X192361021Y-96993246D01*
X192294308Y-96893402D01*
X192276506Y-96875600D01*
X192294308Y-96857798D01*
X192361021Y-96757954D01*
X192406974Y-96647014D01*
X192430400Y-96529240D01*
X192430400Y-96409160D01*
X192406974Y-96291386D01*
X192361021Y-96180446D01*
X192294308Y-96080602D01*
X192209398Y-95995692D01*
X192109554Y-95928979D01*
X191998614Y-95883026D01*
X191880840Y-95859600D01*
X191760760Y-95859600D01*
X191642986Y-95883026D01*
X191532046Y-95928979D01*
X191432202Y-95995692D01*
X191347292Y-96080602D01*
X191280579Y-96180446D01*
X191234626Y-96291386D01*
X191211200Y-96409160D01*
X191211200Y-96529240D01*
X191234626Y-96647014D01*
X191280579Y-96757954D01*
X191347292Y-96857798D01*
X191365094Y-96875600D01*
X191347292Y-96893402D01*
X191280579Y-96993246D01*
X191234626Y-97104186D01*
X191211200Y-97221960D01*
X191211200Y-97342040D01*
X191234626Y-97459814D01*
X191280579Y-97570754D01*
X191347292Y-97670598D01*
X191365094Y-97688400D01*
X191347292Y-97706202D01*
X191280579Y-97806046D01*
X191234626Y-97916986D01*
X191211200Y-98034760D01*
X191211200Y-98075783D01*
X189762311Y-99524672D01*
X189744821Y-99482446D01*
X189678108Y-99382602D01*
X189593198Y-99297692D01*
X189493354Y-99230979D01*
X189382414Y-99185026D01*
X189264640Y-99161600D01*
X189144560Y-99161600D01*
X189026786Y-99185026D01*
X188915846Y-99230979D01*
X188816002Y-99297692D01*
X188731092Y-99382602D01*
X188664379Y-99482446D01*
X188618426Y-99593386D01*
X188595000Y-99711160D01*
X188595000Y-99831240D01*
X188618426Y-99949014D01*
X188664379Y-100059954D01*
X188731092Y-100159798D01*
X188736194Y-100164900D01*
X188731092Y-100170002D01*
X188664379Y-100269846D01*
X188618426Y-100380786D01*
X188595000Y-100498560D01*
X188595000Y-100618640D01*
X188618426Y-100736414D01*
X188636633Y-100780369D01*
X188612802Y-100796292D01*
X188527892Y-100881202D01*
X188461179Y-100981046D01*
X188415226Y-101091986D01*
X188391800Y-101209760D01*
X188391800Y-101329840D01*
X188415226Y-101447614D01*
X188461179Y-101558554D01*
X188527892Y-101658398D01*
X188566173Y-101696679D01*
X188346925Y-101915928D01*
X188329972Y-101929841D01*
X188316059Y-101946794D01*
X188316055Y-101946798D01*
X188274424Y-101997525D01*
X188233149Y-102074745D01*
X188207733Y-102158533D01*
X188199151Y-102245670D01*
X188201301Y-102267500D01*
X188201300Y-103544594D01*
X188172292Y-103573602D01*
X188119989Y-103651880D01*
X188020040Y-103632000D01*
X187899960Y-103632000D01*
X187782186Y-103655426D01*
X187671246Y-103701379D01*
X187571402Y-103768092D01*
X187486492Y-103853002D01*
X187419779Y-103952846D01*
X187373826Y-104063786D01*
X187350400Y-104181560D01*
X184103281Y-104181560D01*
X184156512Y-104101895D01*
X184211081Y-103970154D01*
X184238900Y-103830298D01*
X184238900Y-103687702D01*
X184211081Y-103547846D01*
X184156512Y-103416105D01*
X184077290Y-103297540D01*
X183976460Y-103196710D01*
X183857895Y-103117488D01*
X183726154Y-103062919D01*
X183586298Y-103035100D01*
X183443702Y-103035100D01*
X183303846Y-103062919D01*
X183172105Y-103117488D01*
X183134000Y-103142949D01*
X183095895Y-103117488D01*
X182964154Y-103062919D01*
X182824298Y-103035100D01*
X182681702Y-103035100D01*
X182541846Y-103062919D01*
X182410105Y-103117488D01*
X182291540Y-103196710D01*
X182190710Y-103297540D01*
X182111488Y-103416105D01*
X182056919Y-103547846D01*
X182029100Y-103687702D01*
X181676740Y-103687702D01*
X181698900Y-103576298D01*
X181698900Y-103433702D01*
X181671081Y-103293846D01*
X181616512Y-103162105D01*
X181537290Y-103043540D01*
X181436460Y-102942710D01*
X181317895Y-102863488D01*
X181186154Y-102808919D01*
X181046298Y-102781100D01*
X180903702Y-102781100D01*
X180763846Y-102808919D01*
X180632105Y-102863488D01*
X180513540Y-102942710D01*
X180412710Y-103043540D01*
X180333488Y-103162105D01*
X180278919Y-103293846D01*
X180251100Y-103433702D01*
X180251100Y-103576298D01*
X180278919Y-103716154D01*
X180333488Y-103847895D01*
X180403501Y-103952678D01*
X180403500Y-113255925D01*
X180400735Y-113284000D01*
X180403500Y-113312073D01*
X180403500Y-113636926D01*
X180400735Y-113665000D01*
X180403501Y-113693084D01*
X180403500Y-114288221D01*
X180333488Y-114393003D01*
X180278919Y-114524744D01*
X180251100Y-114664600D01*
X180251100Y-114807196D01*
X180278919Y-114947052D01*
X180333488Y-115078793D01*
X180369897Y-115133283D01*
X180251105Y-115182488D01*
X180132540Y-115261710D01*
X180031710Y-115362540D01*
X179952488Y-115481105D01*
X179897919Y-115612846D01*
X179870100Y-115752702D01*
X171856000Y-115752702D01*
X171856000Y-111053702D01*
X176187100Y-111053702D01*
X176187100Y-111196298D01*
X176214919Y-111336154D01*
X176269488Y-111467895D01*
X176348710Y-111586460D01*
X176449540Y-111687290D01*
X176568105Y-111766512D01*
X176699846Y-111821081D01*
X176839702Y-111848900D01*
X176982298Y-111848900D01*
X177122154Y-111821081D01*
X177253895Y-111766512D01*
X177372460Y-111687290D01*
X177473290Y-111586460D01*
X177552512Y-111467895D01*
X177607081Y-111336154D01*
X177630710Y-111217360D01*
X178460400Y-111217360D01*
X178460400Y-111337440D01*
X178483826Y-111455214D01*
X178529779Y-111566154D01*
X178596492Y-111665998D01*
X178681402Y-111750908D01*
X178781246Y-111817621D01*
X178892186Y-111863574D01*
X179009960Y-111887000D01*
X179130040Y-111887000D01*
X179247814Y-111863574D01*
X179358754Y-111817621D01*
X179458598Y-111750908D01*
X179543508Y-111665998D01*
X179610221Y-111566154D01*
X179656174Y-111455214D01*
X179679600Y-111337440D01*
X179679600Y-111217360D01*
X179656174Y-111099586D01*
X179610221Y-110988646D01*
X179543508Y-110888802D01*
X179458598Y-110803892D01*
X179358754Y-110737179D01*
X179247814Y-110691226D01*
X179130040Y-110667800D01*
X179009960Y-110667800D01*
X178892186Y-110691226D01*
X178781246Y-110737179D01*
X178681402Y-110803892D01*
X178596492Y-110888802D01*
X178529779Y-110988646D01*
X178483826Y-111099586D01*
X178460400Y-111217360D01*
X177630710Y-111217360D01*
X177634900Y-111196298D01*
X177634900Y-111053702D01*
X177607081Y-110913846D01*
X177552512Y-110782105D01*
X177473290Y-110663540D01*
X177372460Y-110562710D01*
X177253895Y-110483488D01*
X177122154Y-110428919D01*
X176982298Y-110401100D01*
X176839702Y-110401100D01*
X176699846Y-110428919D01*
X176568105Y-110483488D01*
X176449540Y-110562710D01*
X176348710Y-110663540D01*
X176269488Y-110782105D01*
X176214919Y-110913846D01*
X176187100Y-111053702D01*
X171856000Y-111053702D01*
X171856000Y-107116702D01*
X175679100Y-107116702D01*
X175679100Y-107259298D01*
X175706919Y-107399154D01*
X175761488Y-107530895D01*
X175840710Y-107649460D01*
X175941540Y-107750290D01*
X176060105Y-107829512D01*
X176191846Y-107884081D01*
X176331702Y-107911900D01*
X176474298Y-107911900D01*
X176614154Y-107884081D01*
X176745895Y-107829512D01*
X176864460Y-107750290D01*
X176965290Y-107649460D01*
X177044512Y-107530895D01*
X177099081Y-107399154D01*
X177126900Y-107259298D01*
X177126900Y-107116702D01*
X177099081Y-106976846D01*
X177044512Y-106845105D01*
X176965290Y-106726540D01*
X176864460Y-106625710D01*
X176745895Y-106546488D01*
X176614154Y-106491919D01*
X176474298Y-106464100D01*
X176331702Y-106464100D01*
X176191846Y-106491919D01*
X176060105Y-106546488D01*
X175941540Y-106625710D01*
X175840710Y-106726540D01*
X175761488Y-106845105D01*
X175706919Y-106976846D01*
X175679100Y-107116702D01*
X171856000Y-107116702D01*
X171856000Y-102417702D01*
X178219100Y-102417702D01*
X178219100Y-102560298D01*
X178246919Y-102700154D01*
X178301488Y-102831895D01*
X178380710Y-102950460D01*
X178481540Y-103051290D01*
X178600105Y-103130512D01*
X178731846Y-103185081D01*
X178871702Y-103212900D01*
X179014298Y-103212900D01*
X179154154Y-103185081D01*
X179285895Y-103130512D01*
X179404460Y-103051290D01*
X179505290Y-102950460D01*
X179584512Y-102831895D01*
X179639081Y-102700154D01*
X179666900Y-102560298D01*
X179666900Y-102417702D01*
X179639081Y-102277846D01*
X179584512Y-102146105D01*
X179505290Y-102027540D01*
X179404460Y-101926710D01*
X179285895Y-101847488D01*
X179154154Y-101792919D01*
X179014298Y-101765100D01*
X178871702Y-101765100D01*
X178731846Y-101792919D01*
X178600105Y-101847488D01*
X178481540Y-101926710D01*
X178380710Y-102027540D01*
X178301488Y-102146105D01*
X178246919Y-102277846D01*
X178219100Y-102417702D01*
X171856000Y-102417702D01*
X171856000Y-99990560D01*
X172796200Y-99990560D01*
X172796200Y-100110640D01*
X172819626Y-100228414D01*
X172865579Y-100339354D01*
X172932292Y-100439198D01*
X173017202Y-100524108D01*
X173117046Y-100590821D01*
X173227986Y-100636774D01*
X173345760Y-100660200D01*
X173465840Y-100660200D01*
X173583614Y-100636774D01*
X173694554Y-100590821D01*
X173794398Y-100524108D01*
X173879308Y-100439198D01*
X173946021Y-100339354D01*
X173991974Y-100228414D01*
X174015400Y-100110640D01*
X174015400Y-99990560D01*
X174003057Y-99928502D01*
X185199844Y-99928502D01*
X185199844Y-100071098D01*
X185227663Y-100210954D01*
X185282232Y-100342695D01*
X185361454Y-100461260D01*
X185462284Y-100562090D01*
X185580849Y-100641312D01*
X185712590Y-100695881D01*
X185852446Y-100723700D01*
X185995042Y-100723700D01*
X186134898Y-100695881D01*
X186266639Y-100641312D01*
X186385204Y-100562090D01*
X186455013Y-100492281D01*
X186455492Y-100492998D01*
X186540402Y-100577908D01*
X186640246Y-100644621D01*
X186751186Y-100690574D01*
X186868960Y-100714000D01*
X186989040Y-100714000D01*
X187106814Y-100690574D01*
X187217754Y-100644621D01*
X187317598Y-100577908D01*
X187402508Y-100492998D01*
X187469221Y-100393154D01*
X187515174Y-100282214D01*
X187538600Y-100164440D01*
X187538600Y-100044360D01*
X187515174Y-99926586D01*
X187469221Y-99815646D01*
X187402508Y-99715802D01*
X187317598Y-99630892D01*
X187217754Y-99564179D01*
X187106814Y-99518226D01*
X186989040Y-99494800D01*
X186868960Y-99494800D01*
X186751186Y-99518226D01*
X186640246Y-99564179D01*
X186545568Y-99627440D01*
X186486034Y-99538340D01*
X186385204Y-99437510D01*
X186266639Y-99358288D01*
X186134898Y-99303719D01*
X185995042Y-99275900D01*
X185852446Y-99275900D01*
X185712590Y-99303719D01*
X185580849Y-99358288D01*
X185462284Y-99437510D01*
X185361454Y-99538340D01*
X185282232Y-99656905D01*
X185227663Y-99788646D01*
X185199844Y-99928502D01*
X174003057Y-99928502D01*
X173991974Y-99872786D01*
X173947026Y-99764272D01*
X174045702Y-99783900D01*
X174188298Y-99783900D01*
X174328154Y-99756081D01*
X174459895Y-99701512D01*
X174578460Y-99622290D01*
X174679290Y-99521460D01*
X174758512Y-99402895D01*
X174813081Y-99271154D01*
X174840900Y-99131298D01*
X174840900Y-99126960D01*
X183667400Y-99126960D01*
X183667400Y-99247040D01*
X183690826Y-99364814D01*
X183736779Y-99475754D01*
X183803492Y-99575598D01*
X183888402Y-99660508D01*
X183988246Y-99727221D01*
X184099186Y-99773174D01*
X184216960Y-99796600D01*
X184337040Y-99796600D01*
X184454814Y-99773174D01*
X184565754Y-99727221D01*
X184665598Y-99660508D01*
X184750508Y-99575598D01*
X184817221Y-99475754D01*
X184863174Y-99364814D01*
X184886600Y-99247040D01*
X184886600Y-99126960D01*
X184863174Y-99009186D01*
X184817221Y-98898246D01*
X184750508Y-98798402D01*
X184665598Y-98713492D01*
X184565754Y-98646779D01*
X184454814Y-98600826D01*
X184337040Y-98577400D01*
X184216960Y-98577400D01*
X184099186Y-98600826D01*
X183988246Y-98646779D01*
X183888402Y-98713492D01*
X183803492Y-98798402D01*
X183736779Y-98898246D01*
X183690826Y-99009186D01*
X183667400Y-99126960D01*
X174840900Y-99126960D01*
X174840900Y-98988702D01*
X174813081Y-98848846D01*
X174758512Y-98717105D01*
X174679290Y-98598540D01*
X174578460Y-98497710D01*
X174485745Y-98435761D01*
X174488908Y-98432598D01*
X174555621Y-98332754D01*
X174601574Y-98221814D01*
X174625000Y-98104040D01*
X174625000Y-97983960D01*
X174601574Y-97866186D01*
X174555621Y-97755246D01*
X174488908Y-97655402D01*
X174403998Y-97570492D01*
X174304154Y-97503779D01*
X174193214Y-97457826D01*
X174075440Y-97434400D01*
X173955360Y-97434400D01*
X173837586Y-97457826D01*
X173726646Y-97503779D01*
X173626802Y-97570492D01*
X173541892Y-97655402D01*
X173475179Y-97755246D01*
X173429226Y-97866186D01*
X173405800Y-97983960D01*
X173405800Y-98104040D01*
X173429226Y-98221814D01*
X173475179Y-98332754D01*
X173541892Y-98432598D01*
X173626802Y-98517508D01*
X173632161Y-98521089D01*
X173554710Y-98598540D01*
X173475488Y-98717105D01*
X173420919Y-98848846D01*
X173393100Y-98988702D01*
X173393100Y-99131298D01*
X173420919Y-99271154D01*
X173475488Y-99402895D01*
X173506330Y-99449054D01*
X173465840Y-99441000D01*
X173345760Y-99441000D01*
X173227986Y-99464426D01*
X173117046Y-99510379D01*
X173017202Y-99577092D01*
X172932292Y-99662002D01*
X172865579Y-99761846D01*
X172819626Y-99872786D01*
X172796200Y-99990560D01*
X171856000Y-99990560D01*
X171856000Y-97094960D01*
X176047400Y-97094960D01*
X176047400Y-97215040D01*
X176070826Y-97332814D01*
X176116779Y-97443754D01*
X176183492Y-97543598D01*
X176268402Y-97628508D01*
X176368246Y-97695221D01*
X176479186Y-97741174D01*
X176596960Y-97764600D01*
X176717040Y-97764600D01*
X176834814Y-97741174D01*
X176945754Y-97695221D01*
X177045598Y-97628508D01*
X177130508Y-97543598D01*
X177197221Y-97443754D01*
X177243174Y-97332814D01*
X177266600Y-97215040D01*
X177266600Y-97094960D01*
X177243174Y-96977186D01*
X177197221Y-96866246D01*
X177180326Y-96840960D01*
X177444400Y-96840960D01*
X177444400Y-96961040D01*
X177467826Y-97078814D01*
X177513779Y-97189754D01*
X177580492Y-97289598D01*
X177665402Y-97374508D01*
X177765246Y-97441221D01*
X177876186Y-97487174D01*
X177993960Y-97510600D01*
X178114040Y-97510600D01*
X178231814Y-97487174D01*
X178342754Y-97441221D01*
X178442598Y-97374508D01*
X178527508Y-97289598D01*
X178594221Y-97189754D01*
X178640174Y-97078814D01*
X178663600Y-96961040D01*
X178663600Y-96840960D01*
X178640174Y-96723186D01*
X178614955Y-96662302D01*
X187505100Y-96662302D01*
X187505100Y-96804898D01*
X187532919Y-96944754D01*
X187587488Y-97076495D01*
X187666710Y-97195060D01*
X187767540Y-97295890D01*
X187886105Y-97375112D01*
X188017846Y-97429681D01*
X188157702Y-97457500D01*
X188300298Y-97457500D01*
X188440154Y-97429681D01*
X188571895Y-97375112D01*
X188690460Y-97295890D01*
X188764390Y-97221960D01*
X189611000Y-97221960D01*
X189611000Y-97342040D01*
X189634426Y-97459814D01*
X189680379Y-97570754D01*
X189747092Y-97670598D01*
X189832002Y-97755508D01*
X189931846Y-97822221D01*
X190042786Y-97868174D01*
X190160560Y-97891600D01*
X190280640Y-97891600D01*
X190398414Y-97868174D01*
X190509354Y-97822221D01*
X190609198Y-97755508D01*
X190694108Y-97670598D01*
X190760821Y-97570754D01*
X190806774Y-97459814D01*
X190830200Y-97342040D01*
X190830200Y-97221960D01*
X190806774Y-97104186D01*
X190760821Y-96993246D01*
X190694108Y-96893402D01*
X190609198Y-96808492D01*
X190509354Y-96741779D01*
X190398414Y-96695826D01*
X190280640Y-96672400D01*
X190160560Y-96672400D01*
X190042786Y-96695826D01*
X189931846Y-96741779D01*
X189832002Y-96808492D01*
X189747092Y-96893402D01*
X189680379Y-96993246D01*
X189634426Y-97104186D01*
X189611000Y-97221960D01*
X188764390Y-97221960D01*
X188791290Y-97195060D01*
X188870512Y-97076495D01*
X188925081Y-96944754D01*
X188952900Y-96804898D01*
X188952900Y-96662302D01*
X188925081Y-96522446D01*
X188870512Y-96390705D01*
X188791290Y-96272140D01*
X188690460Y-96171310D01*
X188571895Y-96092088D01*
X188440154Y-96037519D01*
X188300298Y-96009700D01*
X188157702Y-96009700D01*
X188017846Y-96037519D01*
X187886105Y-96092088D01*
X187767540Y-96171310D01*
X187666710Y-96272140D01*
X187587488Y-96390705D01*
X187532919Y-96522446D01*
X187505100Y-96662302D01*
X178614955Y-96662302D01*
X178594221Y-96612246D01*
X178527508Y-96512402D01*
X178442598Y-96427492D01*
X178342754Y-96360779D01*
X178231814Y-96314826D01*
X178114040Y-96291400D01*
X177993960Y-96291400D01*
X177876186Y-96314826D01*
X177765246Y-96360779D01*
X177665402Y-96427492D01*
X177580492Y-96512402D01*
X177513779Y-96612246D01*
X177467826Y-96723186D01*
X177444400Y-96840960D01*
X177180326Y-96840960D01*
X177130508Y-96766402D01*
X177045598Y-96681492D01*
X176945754Y-96614779D01*
X176834814Y-96568826D01*
X176717040Y-96545400D01*
X176596960Y-96545400D01*
X176479186Y-96568826D01*
X176368246Y-96614779D01*
X176268402Y-96681492D01*
X176183492Y-96766402D01*
X176116779Y-96866246D01*
X176070826Y-96977186D01*
X176047400Y-97094960D01*
X171856000Y-97094960D01*
X171856000Y-94386000D01*
X183188312Y-94386000D01*
X183172100Y-94467502D01*
M02*
