G04 #@! TF.GenerationSoftware,KiCad,Pcbnew,(5.1.4-0-10_14)*
G04 #@! TF.CreationDate,2020-03-30T10:54:37+02:00*
G04 #@! TF.ProjectId,kapukiTRX-hw-trx,6b617075-6b69-4545-9258-2d68772d7472,rev?*
G04 #@! TF.SameCoordinates,Original*
G04 #@! TF.FileFunction,Legend,Bot*
G04 #@! TF.FilePolarity,Positive*
%FSLAX46Y46*%
G04 Gerber Fmt 4.6, Leading zero omitted, Abs format (unit mm)*
G04 Created by KiCad (PCBNEW (5.1.4-0-10_14)) date 2020-03-30 10:54:37*
%MOMM*%
%LPD*%
G04 APERTURE LIST*
%ADD10C,0.150000*%
G04 APERTURE END LIST*
D10*
X176228952Y-96051619D02*
X176228952Y-95337333D01*
X176181333Y-95194476D01*
X176086095Y-95099238D01*
X175943238Y-95051619D01*
X175848000Y-95051619D01*
X177181333Y-95051619D02*
X176705142Y-95051619D01*
X176705142Y-96051619D01*
X178086095Y-95146857D02*
X178038476Y-95099238D01*
X177895619Y-95051619D01*
X177800380Y-95051619D01*
X177657523Y-95099238D01*
X177562285Y-95194476D01*
X177514666Y-95289714D01*
X177467047Y-95480190D01*
X177467047Y-95623047D01*
X177514666Y-95813523D01*
X177562285Y-95908761D01*
X177657523Y-96004000D01*
X177800380Y-96051619D01*
X177895619Y-96051619D01*
X178038476Y-96004000D01*
X178086095Y-95956380D01*
X178800380Y-96051619D02*
X178800380Y-95337333D01*
X178752761Y-95194476D01*
X178657523Y-95099238D01*
X178514666Y-95051619D01*
X178419428Y-95051619D01*
X179752761Y-95051619D02*
X179276571Y-95051619D01*
X179276571Y-96051619D01*
X180657523Y-95146857D02*
X180609904Y-95099238D01*
X180467047Y-95051619D01*
X180371809Y-95051619D01*
X180228952Y-95099238D01*
X180133714Y-95194476D01*
X180086095Y-95289714D01*
X180038476Y-95480190D01*
X180038476Y-95623047D01*
X180086095Y-95813523D01*
X180133714Y-95908761D01*
X180228952Y-96004000D01*
X180371809Y-96051619D01*
X180467047Y-96051619D01*
X180609904Y-96004000D01*
X180657523Y-95956380D01*
X181371809Y-96051619D02*
X181371809Y-95337333D01*
X181324190Y-95194476D01*
X181228952Y-95099238D01*
X181086095Y-95051619D01*
X180990857Y-95051619D01*
X182324190Y-95051619D02*
X181848000Y-95051619D01*
X181848000Y-96051619D01*
X183228952Y-95146857D02*
X183181333Y-95099238D01*
X183038476Y-95051619D01*
X182943238Y-95051619D01*
X182800380Y-95099238D01*
X182705142Y-95194476D01*
X182657523Y-95289714D01*
X182609904Y-95480190D01*
X182609904Y-95623047D01*
X182657523Y-95813523D01*
X182705142Y-95908761D01*
X182800380Y-96004000D01*
X182943238Y-96051619D01*
X183038476Y-96051619D01*
X183181333Y-96004000D01*
X183228952Y-95956380D01*
X183943238Y-96051619D02*
X183943238Y-95337333D01*
X183895619Y-95194476D01*
X183800380Y-95099238D01*
X183657523Y-95051619D01*
X183562285Y-95051619D01*
X184895619Y-95051619D02*
X184419428Y-95051619D01*
X184419428Y-96051619D01*
X185800380Y-95146857D02*
X185752761Y-95099238D01*
X185609904Y-95051619D01*
X185514666Y-95051619D01*
X185371809Y-95099238D01*
X185276571Y-95194476D01*
X185228952Y-95289714D01*
X185181333Y-95480190D01*
X185181333Y-95623047D01*
X185228952Y-95813523D01*
X185276571Y-95908761D01*
X185371809Y-96004000D01*
X185514666Y-96051619D01*
X185609904Y-96051619D01*
X185752761Y-96004000D01*
X185800380Y-95956380D01*
X202414285Y-103846285D02*
X203128571Y-103846285D01*
X202700000Y-104274857D02*
X202414285Y-102989142D01*
X203033333Y-103417714D02*
X202319047Y-103417714D01*
X202747619Y-102989142D02*
X203033333Y-104274857D01*
X203985714Y-103179619D02*
X203414285Y-103179619D01*
X203700000Y-103179619D02*
X203700000Y-104179619D01*
X203604761Y-104036761D01*
X203509523Y-103941523D01*
X203414285Y-103893904D01*
X182094285Y-103846285D02*
X182808571Y-103846285D01*
X182380000Y-104274857D02*
X182094285Y-102989142D01*
X182713333Y-103417714D02*
X181999047Y-103417714D01*
X182427619Y-102989142D02*
X182713333Y-104274857D01*
X183094285Y-104084380D02*
X183141904Y-104132000D01*
X183237142Y-104179619D01*
X183475238Y-104179619D01*
X183570476Y-104132000D01*
X183618095Y-104084380D01*
X183665714Y-103989142D01*
X183665714Y-103893904D01*
X183618095Y-103751047D01*
X183046666Y-103179619D01*
X183665714Y-103179619D01*
X199985714Y-104957619D02*
X199652380Y-105433809D01*
X199414285Y-104957619D02*
X199414285Y-105957619D01*
X199795238Y-105957619D01*
X199890476Y-105910000D01*
X199938095Y-105862380D01*
X199985714Y-105767142D01*
X199985714Y-105624285D01*
X199938095Y-105529047D01*
X199890476Y-105481428D01*
X199795238Y-105433809D01*
X199414285Y-105433809D01*
X200747619Y-105481428D02*
X200414285Y-105481428D01*
X200414285Y-104957619D02*
X200414285Y-105957619D01*
X200890476Y-105957619D01*
X202033333Y-104957619D02*
X202033333Y-105624285D01*
X202033333Y-105529047D02*
X202080952Y-105576666D01*
X202176190Y-105624285D01*
X202319047Y-105624285D01*
X202414285Y-105576666D01*
X202461904Y-105481428D01*
X202461904Y-104957619D01*
X202461904Y-105481428D02*
X202509523Y-105576666D01*
X202604761Y-105624285D01*
X202747619Y-105624285D01*
X202842857Y-105576666D01*
X202890476Y-105481428D01*
X202890476Y-104957619D01*
X203509523Y-104957619D02*
X203414285Y-105005238D01*
X203366666Y-105052857D01*
X203319047Y-105148095D01*
X203319047Y-105433809D01*
X203366666Y-105529047D01*
X203414285Y-105576666D01*
X203509523Y-105624285D01*
X203652380Y-105624285D01*
X203747619Y-105576666D01*
X203795238Y-105529047D01*
X203842857Y-105433809D01*
X203842857Y-105148095D01*
X203795238Y-105052857D01*
X203747619Y-105005238D01*
X203652380Y-104957619D01*
X203509523Y-104957619D01*
X204700000Y-104957619D02*
X204700000Y-105957619D01*
X204700000Y-105005238D02*
X204604761Y-104957619D01*
X204414285Y-104957619D01*
X204319047Y-105005238D01*
X204271428Y-105052857D01*
X204223809Y-105148095D01*
X204223809Y-105433809D01*
X204271428Y-105529047D01*
X204319047Y-105576666D01*
X204414285Y-105624285D01*
X204604761Y-105624285D01*
X204700000Y-105576666D01*
X205604761Y-105624285D02*
X205604761Y-104957619D01*
X205176190Y-105624285D02*
X205176190Y-105100476D01*
X205223809Y-105005238D01*
X205319047Y-104957619D01*
X205461904Y-104957619D01*
X205557142Y-105005238D01*
X205604761Y-105052857D01*
X206223809Y-104957619D02*
X206128571Y-105005238D01*
X206080952Y-105100476D01*
X206080952Y-105957619D01*
X206985714Y-105005238D02*
X206890476Y-104957619D01*
X206700000Y-104957619D01*
X206604761Y-105005238D01*
X206557142Y-105100476D01*
X206557142Y-105481428D01*
X206604761Y-105576666D01*
X206700000Y-105624285D01*
X206890476Y-105624285D01*
X206985714Y-105576666D01*
X207033333Y-105481428D01*
X207033333Y-105386190D01*
X206557142Y-105290952D01*
X179665714Y-104957619D02*
X179332380Y-105433809D01*
X179094285Y-104957619D02*
X179094285Y-105957619D01*
X179475238Y-105957619D01*
X179570476Y-105910000D01*
X179618095Y-105862380D01*
X179665714Y-105767142D01*
X179665714Y-105624285D01*
X179618095Y-105529047D01*
X179570476Y-105481428D01*
X179475238Y-105433809D01*
X179094285Y-105433809D01*
X180427619Y-105481428D02*
X180094285Y-105481428D01*
X180094285Y-104957619D02*
X180094285Y-105957619D01*
X180570476Y-105957619D01*
X181713333Y-104957619D02*
X181713333Y-105624285D01*
X181713333Y-105529047D02*
X181760952Y-105576666D01*
X181856190Y-105624285D01*
X181999047Y-105624285D01*
X182094285Y-105576666D01*
X182141904Y-105481428D01*
X182141904Y-104957619D01*
X182141904Y-105481428D02*
X182189523Y-105576666D01*
X182284761Y-105624285D01*
X182427619Y-105624285D01*
X182522857Y-105576666D01*
X182570476Y-105481428D01*
X182570476Y-104957619D01*
X183189523Y-104957619D02*
X183094285Y-105005238D01*
X183046666Y-105052857D01*
X182999047Y-105148095D01*
X182999047Y-105433809D01*
X183046666Y-105529047D01*
X183094285Y-105576666D01*
X183189523Y-105624285D01*
X183332380Y-105624285D01*
X183427619Y-105576666D01*
X183475238Y-105529047D01*
X183522857Y-105433809D01*
X183522857Y-105148095D01*
X183475238Y-105052857D01*
X183427619Y-105005238D01*
X183332380Y-104957619D01*
X183189523Y-104957619D01*
X184380000Y-104957619D02*
X184380000Y-105957619D01*
X184380000Y-105005238D02*
X184284761Y-104957619D01*
X184094285Y-104957619D01*
X183999047Y-105005238D01*
X183951428Y-105052857D01*
X183903809Y-105148095D01*
X183903809Y-105433809D01*
X183951428Y-105529047D01*
X183999047Y-105576666D01*
X184094285Y-105624285D01*
X184284761Y-105624285D01*
X184380000Y-105576666D01*
X185284761Y-105624285D02*
X185284761Y-104957619D01*
X184856190Y-105624285D02*
X184856190Y-105100476D01*
X184903809Y-105005238D01*
X184999047Y-104957619D01*
X185141904Y-104957619D01*
X185237142Y-105005238D01*
X185284761Y-105052857D01*
X185903809Y-104957619D02*
X185808571Y-105005238D01*
X185760952Y-105100476D01*
X185760952Y-105957619D01*
X186665714Y-105005238D02*
X186570476Y-104957619D01*
X186380000Y-104957619D01*
X186284761Y-105005238D01*
X186237142Y-105100476D01*
X186237142Y-105481428D01*
X186284761Y-105576666D01*
X186380000Y-105624285D01*
X186570476Y-105624285D01*
X186665714Y-105576666D01*
X186713333Y-105481428D01*
X186713333Y-105386190D01*
X186237142Y-105290952D01*
X173400980Y-94719047D02*
X172400980Y-94719047D01*
X172781933Y-94719047D02*
X172734314Y-94814285D01*
X172734314Y-95004761D01*
X172781933Y-95100000D01*
X172829552Y-95147619D01*
X172924790Y-95195238D01*
X173210504Y-95195238D01*
X173305742Y-95147619D01*
X173353361Y-95100000D01*
X173400980Y-95004761D01*
X173400980Y-94814285D01*
X173353361Y-94719047D01*
X173400980Y-95766666D02*
X173353361Y-95671428D01*
X173305742Y-95623809D01*
X173210504Y-95576190D01*
X172924790Y-95576190D01*
X172829552Y-95623809D01*
X172781933Y-95671428D01*
X172734314Y-95766666D01*
X172734314Y-95909523D01*
X172781933Y-96004761D01*
X172829552Y-96052380D01*
X172924790Y-96100000D01*
X173210504Y-96100000D01*
X173305742Y-96052380D01*
X173353361Y-96004761D01*
X173400980Y-95909523D01*
X173400980Y-95766666D01*
X173400980Y-96957142D02*
X172400980Y-96957142D01*
X173353361Y-96957142D02*
X173400980Y-96861904D01*
X173400980Y-96671428D01*
X173353361Y-96576190D01*
X173305742Y-96528571D01*
X173210504Y-96480952D01*
X172924790Y-96480952D01*
X172829552Y-96528571D01*
X172781933Y-96576190D01*
X172734314Y-96671428D01*
X172734314Y-96861904D01*
X172781933Y-96957142D01*
X173400980Y-97433333D02*
X172734314Y-97433333D01*
X172924790Y-97433333D02*
X172829552Y-97480952D01*
X172781933Y-97528571D01*
X172734314Y-97623809D01*
X172734314Y-97719047D01*
X173400980Y-98052380D02*
X172734314Y-98052380D01*
X172400980Y-98052380D02*
X172448600Y-98004761D01*
X172496219Y-98052380D01*
X172448600Y-98100000D01*
X172400980Y-98052380D01*
X172496219Y-98052380D01*
X172924790Y-99147619D02*
X172877171Y-99100000D01*
X172829552Y-99004761D01*
X172829552Y-98909523D01*
X172877171Y-98814285D01*
X172924790Y-98766666D01*
X173020028Y-98719047D01*
X173115266Y-98719047D01*
X173210504Y-98766666D01*
X173258123Y-98814285D01*
X173305742Y-98909523D01*
X173305742Y-99004761D01*
X173258123Y-99100000D01*
X173210504Y-99147619D01*
X172829552Y-99147619D02*
X173210504Y-99147619D01*
X173258123Y-99195238D01*
X173258123Y-99242857D01*
X173210504Y-99338095D01*
X173115266Y-99385714D01*
X172877171Y-99385714D01*
X172734314Y-99290476D01*
X172639076Y-99147619D01*
X172591457Y-98957142D01*
X172639076Y-98766666D01*
X172734314Y-98623809D01*
X172877171Y-98528571D01*
X173067647Y-98480952D01*
X173258123Y-98528571D01*
X173400980Y-98623809D01*
X173496219Y-98766666D01*
X173543838Y-98957142D01*
X173496219Y-99147619D01*
X173400980Y-99290476D01*
X173400980Y-99814285D02*
X172400980Y-99814285D01*
X172781933Y-99814285D02*
X172734314Y-99909523D01*
X172734314Y-100100000D01*
X172781933Y-100195238D01*
X172829552Y-100242857D01*
X172924790Y-100290476D01*
X173210504Y-100290476D01*
X173305742Y-100242857D01*
X173353361Y-100195238D01*
X173400980Y-100100000D01*
X173400980Y-99909523D01*
X173353361Y-99814285D01*
X173400980Y-100861904D02*
X173353361Y-100766666D01*
X173305742Y-100719047D01*
X173210504Y-100671428D01*
X172924790Y-100671428D01*
X172829552Y-100719047D01*
X172781933Y-100766666D01*
X172734314Y-100861904D01*
X172734314Y-101004761D01*
X172781933Y-101100000D01*
X172829552Y-101147619D01*
X172924790Y-101195238D01*
X173210504Y-101195238D01*
X173305742Y-101147619D01*
X173353361Y-101100000D01*
X173400980Y-101004761D01*
X173400980Y-100861904D01*
X173400980Y-102052380D02*
X172400980Y-102052380D01*
X173353361Y-102052380D02*
X173400980Y-101957142D01*
X173400980Y-101766666D01*
X173353361Y-101671428D01*
X173305742Y-101623809D01*
X173210504Y-101576190D01*
X172924790Y-101576190D01*
X172829552Y-101623809D01*
X172781933Y-101671428D01*
X172734314Y-101766666D01*
X172734314Y-101957142D01*
X172781933Y-102052380D01*
X173400980Y-102528571D02*
X172734314Y-102528571D01*
X172924790Y-102528571D02*
X172829552Y-102576190D01*
X172781933Y-102623809D01*
X172734314Y-102719047D01*
X172734314Y-102814285D01*
X173400980Y-103147619D02*
X172734314Y-103147619D01*
X172400980Y-103147619D02*
X172448600Y-103100000D01*
X172496219Y-103147619D01*
X172448600Y-103195238D01*
X172400980Y-103147619D01*
X172496219Y-103147619D01*
X173353361Y-104052380D02*
X173400980Y-103957142D01*
X173400980Y-103766666D01*
X173353361Y-103671428D01*
X173305742Y-103623809D01*
X173210504Y-103576190D01*
X172924790Y-103576190D01*
X172829552Y-103623809D01*
X172781933Y-103671428D01*
X172734314Y-103766666D01*
X172734314Y-103957142D01*
X172781933Y-104052380D01*
X173400980Y-104623809D02*
X173353361Y-104528571D01*
X173305742Y-104480952D01*
X173210504Y-104433333D01*
X172924790Y-104433333D01*
X172829552Y-104480952D01*
X172781933Y-104528571D01*
X172734314Y-104623809D01*
X172734314Y-104766666D01*
X172781933Y-104861904D01*
X172829552Y-104909523D01*
X172924790Y-104957142D01*
X173210504Y-104957142D01*
X173305742Y-104909523D01*
X173353361Y-104861904D01*
X173400980Y-104766666D01*
X173400980Y-104623809D01*
X173305742Y-105385714D02*
X173353361Y-105433333D01*
X173400980Y-105385714D01*
X173353361Y-105338095D01*
X173305742Y-105385714D01*
X173400980Y-105385714D01*
X173353361Y-106290476D02*
X173400980Y-106195238D01*
X173400980Y-106004761D01*
X173353361Y-105909523D01*
X173305742Y-105861904D01*
X173210504Y-105814285D01*
X172924790Y-105814285D01*
X172829552Y-105861904D01*
X172781933Y-105909523D01*
X172734314Y-106004761D01*
X172734314Y-106195238D01*
X172781933Y-106290476D01*
X173400980Y-106861904D02*
X173353361Y-106766666D01*
X173305742Y-106719047D01*
X173210504Y-106671428D01*
X172924790Y-106671428D01*
X172829552Y-106719047D01*
X172781933Y-106766666D01*
X172734314Y-106861904D01*
X172734314Y-107004761D01*
X172781933Y-107100000D01*
X172829552Y-107147619D01*
X172924790Y-107195238D01*
X173210504Y-107195238D01*
X173305742Y-107147619D01*
X173353361Y-107100000D01*
X173400980Y-107004761D01*
X173400980Y-106861904D01*
X173400980Y-107623809D02*
X172734314Y-107623809D01*
X172829552Y-107623809D02*
X172781933Y-107671428D01*
X172734314Y-107766666D01*
X172734314Y-107909523D01*
X172781933Y-108004761D01*
X172877171Y-108052380D01*
X173400980Y-108052380D01*
X172877171Y-108052380D02*
X172781933Y-108100000D01*
X172734314Y-108195238D01*
X172734314Y-108338095D01*
X172781933Y-108433333D01*
X172877171Y-108480952D01*
X173400980Y-108480952D01*
X196707760Y-120777000D02*
X196707760Y-121539000D01*
X196707760Y-121539000D02*
X197469760Y-121539000D01*
X212201760Y-120777000D02*
X212201760Y-121539000D01*
X212201760Y-121539000D02*
X211439760Y-121539000D01*
X212201760Y-95250000D02*
X212201760Y-94488000D01*
X212201760Y-94488000D02*
X211439760Y-94488000D01*
X196707760Y-95250000D02*
X196707760Y-94488000D01*
X196707760Y-94488000D02*
X197469760Y-94488000D01*
X199628760Y-118615460D02*
G75*
G03X199628760Y-118615460I-635000J0D01*
G01*
X197469760Y-121536460D02*
X211439760Y-121536460D01*
X197469760Y-94485460D02*
X211439760Y-94485460D01*
X196707760Y-120777000D02*
X196707760Y-119507000D01*
X212201760Y-120777000D02*
X212201760Y-119507000D01*
X196707760Y-95250000D02*
X196707760Y-108712000D01*
X212201760Y-95250000D02*
X212201760Y-108712000D01*
X190500000Y-95250000D02*
X190500000Y-108712000D01*
X175006000Y-95250000D02*
X175006000Y-108712000D01*
X190500000Y-120777000D02*
X190500000Y-119507000D01*
X175006000Y-120777000D02*
X175006000Y-119507000D01*
X175768000Y-94485460D02*
X189738000Y-94485460D01*
X175768000Y-121536460D02*
X189738000Y-121536460D01*
X177927000Y-118615460D02*
G75*
G03X177927000Y-118615460I-635000J0D01*
G01*
X175006000Y-94488000D02*
X175768000Y-94488000D01*
X175006000Y-95250000D02*
X175006000Y-94488000D01*
X190500000Y-94488000D02*
X189738000Y-94488000D01*
X190500000Y-95250000D02*
X190500000Y-94488000D01*
X190500000Y-121539000D02*
X189738000Y-121539000D01*
X190500000Y-120777000D02*
X190500000Y-121539000D01*
X175006000Y-121539000D02*
X175768000Y-121539000D01*
X175006000Y-120777000D02*
X175006000Y-121539000D01*
X193809857Y-95497580D02*
X194143190Y-95021390D01*
X194381285Y-95497580D02*
X194381285Y-94497580D01*
X194000333Y-94497580D01*
X193905095Y-94545200D01*
X193857476Y-94592819D01*
X193809857Y-94688057D01*
X193809857Y-94830914D01*
X193857476Y-94926152D01*
X193905095Y-94973771D01*
X194000333Y-95021390D01*
X194381285Y-95021390D01*
X192857476Y-95497580D02*
X193428904Y-95497580D01*
X193143190Y-95497580D02*
X193143190Y-94497580D01*
X193238428Y-94640438D01*
X193333666Y-94735676D01*
X193428904Y-94783295D01*
X192286047Y-94926152D02*
X192381285Y-94878533D01*
X192428904Y-94830914D01*
X192476523Y-94735676D01*
X192476523Y-94688057D01*
X192428904Y-94592819D01*
X192381285Y-94545200D01*
X192286047Y-94497580D01*
X192095571Y-94497580D01*
X192000333Y-94545200D01*
X191952714Y-94592819D01*
X191905095Y-94688057D01*
X191905095Y-94735676D01*
X191952714Y-94830914D01*
X192000333Y-94878533D01*
X192095571Y-94926152D01*
X192286047Y-94926152D01*
X192381285Y-94973771D01*
X192428904Y-95021390D01*
X192476523Y-95116628D01*
X192476523Y-95307104D01*
X192428904Y-95402342D01*
X192381285Y-95449961D01*
X192286047Y-95497580D01*
X192095571Y-95497580D01*
X192000333Y-95449961D01*
X191952714Y-95402342D01*
X191905095Y-95307104D01*
X191905095Y-95116628D01*
X191952714Y-95021390D01*
X192000333Y-94973771D01*
X192095571Y-94926152D01*
M02*
