G04 #@! TF.GenerationSoftware,KiCad,Pcbnew,(5.1.4-0-10_14)*
G04 #@! TF.CreationDate,2020-03-30T10:54:37+02:00*
G04 #@! TF.ProjectId,kapukiTRX-hw-trx,6b617075-6b69-4545-9258-2d68772d7472,rev?*
G04 #@! TF.SameCoordinates,Original*
G04 #@! TF.FileFunction,Paste,Bot*
G04 #@! TF.FilePolarity,Positive*
%FSLAX46Y46*%
G04 Gerber Fmt 4.6, Leading zero omitted, Abs format (unit mm)*
G04 Created by KiCad (PCBNEW (5.1.4-0-10_14)) date 2020-03-30 10:54:37*
%MOMM*%
%LPD*%
G04 APERTURE LIST*
%ADD10C,0.100000*%
%ADD11C,0.590000*%
%ADD12R,3.000000X1.000000*%
%ADD13R,2.000000X0.700000*%
G04 APERTURE END LIST*
D10*
G36*
X192843958Y-95895910D02*
G01*
X192858276Y-95898034D01*
X192872317Y-95901551D01*
X192885946Y-95906428D01*
X192899031Y-95912617D01*
X192911447Y-95920058D01*
X192923073Y-95928681D01*
X192933798Y-95938402D01*
X192943519Y-95949127D01*
X192952142Y-95960753D01*
X192959583Y-95973169D01*
X192965772Y-95986254D01*
X192970649Y-95999883D01*
X192974166Y-96013924D01*
X192976290Y-96028242D01*
X192977000Y-96042700D01*
X192977000Y-96387700D01*
X192976290Y-96402158D01*
X192974166Y-96416476D01*
X192970649Y-96430517D01*
X192965772Y-96444146D01*
X192959583Y-96457231D01*
X192952142Y-96469647D01*
X192943519Y-96481273D01*
X192933798Y-96491998D01*
X192923073Y-96501719D01*
X192911447Y-96510342D01*
X192899031Y-96517783D01*
X192885946Y-96523972D01*
X192872317Y-96528849D01*
X192858276Y-96532366D01*
X192843958Y-96534490D01*
X192829500Y-96535200D01*
X192534500Y-96535200D01*
X192520042Y-96534490D01*
X192505724Y-96532366D01*
X192491683Y-96528849D01*
X192478054Y-96523972D01*
X192464969Y-96517783D01*
X192452553Y-96510342D01*
X192440927Y-96501719D01*
X192430202Y-96491998D01*
X192420481Y-96481273D01*
X192411858Y-96469647D01*
X192404417Y-96457231D01*
X192398228Y-96444146D01*
X192393351Y-96430517D01*
X192389834Y-96416476D01*
X192387710Y-96402158D01*
X192387000Y-96387700D01*
X192387000Y-96042700D01*
X192387710Y-96028242D01*
X192389834Y-96013924D01*
X192393351Y-95999883D01*
X192398228Y-95986254D01*
X192404417Y-95973169D01*
X192411858Y-95960753D01*
X192420481Y-95949127D01*
X192430202Y-95938402D01*
X192440927Y-95928681D01*
X192452553Y-95920058D01*
X192464969Y-95912617D01*
X192478054Y-95906428D01*
X192491683Y-95901551D01*
X192505724Y-95898034D01*
X192520042Y-95895910D01*
X192534500Y-95895200D01*
X192829500Y-95895200D01*
X192843958Y-95895910D01*
X192843958Y-95895910D01*
G37*
D11*
X192682000Y-96215200D03*
D10*
G36*
X193813958Y-95895910D02*
G01*
X193828276Y-95898034D01*
X193842317Y-95901551D01*
X193855946Y-95906428D01*
X193869031Y-95912617D01*
X193881447Y-95920058D01*
X193893073Y-95928681D01*
X193903798Y-95938402D01*
X193913519Y-95949127D01*
X193922142Y-95960753D01*
X193929583Y-95973169D01*
X193935772Y-95986254D01*
X193940649Y-95999883D01*
X193944166Y-96013924D01*
X193946290Y-96028242D01*
X193947000Y-96042700D01*
X193947000Y-96387700D01*
X193946290Y-96402158D01*
X193944166Y-96416476D01*
X193940649Y-96430517D01*
X193935772Y-96444146D01*
X193929583Y-96457231D01*
X193922142Y-96469647D01*
X193913519Y-96481273D01*
X193903798Y-96491998D01*
X193893073Y-96501719D01*
X193881447Y-96510342D01*
X193869031Y-96517783D01*
X193855946Y-96523972D01*
X193842317Y-96528849D01*
X193828276Y-96532366D01*
X193813958Y-96534490D01*
X193799500Y-96535200D01*
X193504500Y-96535200D01*
X193490042Y-96534490D01*
X193475724Y-96532366D01*
X193461683Y-96528849D01*
X193448054Y-96523972D01*
X193434969Y-96517783D01*
X193422553Y-96510342D01*
X193410927Y-96501719D01*
X193400202Y-96491998D01*
X193390481Y-96481273D01*
X193381858Y-96469647D01*
X193374417Y-96457231D01*
X193368228Y-96444146D01*
X193363351Y-96430517D01*
X193359834Y-96416476D01*
X193357710Y-96402158D01*
X193357000Y-96387700D01*
X193357000Y-96042700D01*
X193357710Y-96028242D01*
X193359834Y-96013924D01*
X193363351Y-95999883D01*
X193368228Y-95986254D01*
X193374417Y-95973169D01*
X193381858Y-95960753D01*
X193390481Y-95949127D01*
X193400202Y-95938402D01*
X193410927Y-95928681D01*
X193422553Y-95920058D01*
X193434969Y-95912617D01*
X193448054Y-95906428D01*
X193461683Y-95901551D01*
X193475724Y-95898034D01*
X193490042Y-95895910D01*
X193504500Y-95895200D01*
X193799500Y-95895200D01*
X193813958Y-95895910D01*
X193813958Y-95895910D01*
G37*
D11*
X193652000Y-96215200D03*
D12*
X215265000Y-120650000D03*
D13*
X196961760Y-118595140D03*
X196961760Y-117325140D03*
X196961760Y-116055140D03*
X196961760Y-114785140D03*
X196961760Y-113515140D03*
X196961760Y-112245140D03*
X196961760Y-110975140D03*
X196961760Y-109705140D03*
X211963000Y-109705140D03*
X211963000Y-110975140D03*
X211963000Y-112245140D03*
X211963000Y-113515140D03*
X211963000Y-114785140D03*
X211963000Y-116055140D03*
X211963000Y-117325140D03*
X211963000Y-118595140D03*
D10*
G36*
X195004958Y-108902710D02*
G01*
X195019276Y-108904834D01*
X195033317Y-108908351D01*
X195046946Y-108913228D01*
X195060031Y-108919417D01*
X195072447Y-108926858D01*
X195084073Y-108935481D01*
X195094798Y-108945202D01*
X195104519Y-108955927D01*
X195113142Y-108967553D01*
X195120583Y-108979969D01*
X195126772Y-108993054D01*
X195131649Y-109006683D01*
X195135166Y-109020724D01*
X195137290Y-109035042D01*
X195138000Y-109049500D01*
X195138000Y-109344500D01*
X195137290Y-109358958D01*
X195135166Y-109373276D01*
X195131649Y-109387317D01*
X195126772Y-109400946D01*
X195120583Y-109414031D01*
X195113142Y-109426447D01*
X195104519Y-109438073D01*
X195094798Y-109448798D01*
X195084073Y-109458519D01*
X195072447Y-109467142D01*
X195060031Y-109474583D01*
X195046946Y-109480772D01*
X195033317Y-109485649D01*
X195019276Y-109489166D01*
X195004958Y-109491290D01*
X194990500Y-109492000D01*
X194645500Y-109492000D01*
X194631042Y-109491290D01*
X194616724Y-109489166D01*
X194602683Y-109485649D01*
X194589054Y-109480772D01*
X194575969Y-109474583D01*
X194563553Y-109467142D01*
X194551927Y-109458519D01*
X194541202Y-109448798D01*
X194531481Y-109438073D01*
X194522858Y-109426447D01*
X194515417Y-109414031D01*
X194509228Y-109400946D01*
X194504351Y-109387317D01*
X194500834Y-109373276D01*
X194498710Y-109358958D01*
X194498000Y-109344500D01*
X194498000Y-109049500D01*
X194498710Y-109035042D01*
X194500834Y-109020724D01*
X194504351Y-109006683D01*
X194509228Y-108993054D01*
X194515417Y-108979969D01*
X194522858Y-108967553D01*
X194531481Y-108955927D01*
X194541202Y-108945202D01*
X194551927Y-108935481D01*
X194563553Y-108926858D01*
X194575969Y-108919417D01*
X194589054Y-108913228D01*
X194602683Y-108908351D01*
X194616724Y-108904834D01*
X194631042Y-108902710D01*
X194645500Y-108902000D01*
X194990500Y-108902000D01*
X195004958Y-108902710D01*
X195004958Y-108902710D01*
G37*
D11*
X194818000Y-109197000D03*
D10*
G36*
X195004958Y-107932710D02*
G01*
X195019276Y-107934834D01*
X195033317Y-107938351D01*
X195046946Y-107943228D01*
X195060031Y-107949417D01*
X195072447Y-107956858D01*
X195084073Y-107965481D01*
X195094798Y-107975202D01*
X195104519Y-107985927D01*
X195113142Y-107997553D01*
X195120583Y-108009969D01*
X195126772Y-108023054D01*
X195131649Y-108036683D01*
X195135166Y-108050724D01*
X195137290Y-108065042D01*
X195138000Y-108079500D01*
X195138000Y-108374500D01*
X195137290Y-108388958D01*
X195135166Y-108403276D01*
X195131649Y-108417317D01*
X195126772Y-108430946D01*
X195120583Y-108444031D01*
X195113142Y-108456447D01*
X195104519Y-108468073D01*
X195094798Y-108478798D01*
X195084073Y-108488519D01*
X195072447Y-108497142D01*
X195060031Y-108504583D01*
X195046946Y-108510772D01*
X195033317Y-108515649D01*
X195019276Y-108519166D01*
X195004958Y-108521290D01*
X194990500Y-108522000D01*
X194645500Y-108522000D01*
X194631042Y-108521290D01*
X194616724Y-108519166D01*
X194602683Y-108515649D01*
X194589054Y-108510772D01*
X194575969Y-108504583D01*
X194563553Y-108497142D01*
X194551927Y-108488519D01*
X194541202Y-108478798D01*
X194531481Y-108468073D01*
X194522858Y-108456447D01*
X194515417Y-108444031D01*
X194509228Y-108430946D01*
X194504351Y-108417317D01*
X194500834Y-108403276D01*
X194498710Y-108388958D01*
X194498000Y-108374500D01*
X194498000Y-108079500D01*
X194498710Y-108065042D01*
X194500834Y-108050724D01*
X194504351Y-108036683D01*
X194509228Y-108023054D01*
X194515417Y-108009969D01*
X194522858Y-107997553D01*
X194531481Y-107985927D01*
X194541202Y-107975202D01*
X194551927Y-107965481D01*
X194563553Y-107956858D01*
X194575969Y-107949417D01*
X194589054Y-107943228D01*
X194602683Y-107938351D01*
X194616724Y-107934834D01*
X194631042Y-107932710D01*
X194645500Y-107932000D01*
X194990500Y-107932000D01*
X195004958Y-107932710D01*
X195004958Y-107932710D01*
G37*
D11*
X194818000Y-108227000D03*
D10*
G36*
X193988958Y-108902710D02*
G01*
X194003276Y-108904834D01*
X194017317Y-108908351D01*
X194030946Y-108913228D01*
X194044031Y-108919417D01*
X194056447Y-108926858D01*
X194068073Y-108935481D01*
X194078798Y-108945202D01*
X194088519Y-108955927D01*
X194097142Y-108967553D01*
X194104583Y-108979969D01*
X194110772Y-108993054D01*
X194115649Y-109006683D01*
X194119166Y-109020724D01*
X194121290Y-109035042D01*
X194122000Y-109049500D01*
X194122000Y-109344500D01*
X194121290Y-109358958D01*
X194119166Y-109373276D01*
X194115649Y-109387317D01*
X194110772Y-109400946D01*
X194104583Y-109414031D01*
X194097142Y-109426447D01*
X194088519Y-109438073D01*
X194078798Y-109448798D01*
X194068073Y-109458519D01*
X194056447Y-109467142D01*
X194044031Y-109474583D01*
X194030946Y-109480772D01*
X194017317Y-109485649D01*
X194003276Y-109489166D01*
X193988958Y-109491290D01*
X193974500Y-109492000D01*
X193629500Y-109492000D01*
X193615042Y-109491290D01*
X193600724Y-109489166D01*
X193586683Y-109485649D01*
X193573054Y-109480772D01*
X193559969Y-109474583D01*
X193547553Y-109467142D01*
X193535927Y-109458519D01*
X193525202Y-109448798D01*
X193515481Y-109438073D01*
X193506858Y-109426447D01*
X193499417Y-109414031D01*
X193493228Y-109400946D01*
X193488351Y-109387317D01*
X193484834Y-109373276D01*
X193482710Y-109358958D01*
X193482000Y-109344500D01*
X193482000Y-109049500D01*
X193482710Y-109035042D01*
X193484834Y-109020724D01*
X193488351Y-109006683D01*
X193493228Y-108993054D01*
X193499417Y-108979969D01*
X193506858Y-108967553D01*
X193515481Y-108955927D01*
X193525202Y-108945202D01*
X193535927Y-108935481D01*
X193547553Y-108926858D01*
X193559969Y-108919417D01*
X193573054Y-108913228D01*
X193586683Y-108908351D01*
X193600724Y-108904834D01*
X193615042Y-108902710D01*
X193629500Y-108902000D01*
X193974500Y-108902000D01*
X193988958Y-108902710D01*
X193988958Y-108902710D01*
G37*
D11*
X193802000Y-109197000D03*
D10*
G36*
X193988958Y-107932710D02*
G01*
X194003276Y-107934834D01*
X194017317Y-107938351D01*
X194030946Y-107943228D01*
X194044031Y-107949417D01*
X194056447Y-107956858D01*
X194068073Y-107965481D01*
X194078798Y-107975202D01*
X194088519Y-107985927D01*
X194097142Y-107997553D01*
X194104583Y-108009969D01*
X194110772Y-108023054D01*
X194115649Y-108036683D01*
X194119166Y-108050724D01*
X194121290Y-108065042D01*
X194122000Y-108079500D01*
X194122000Y-108374500D01*
X194121290Y-108388958D01*
X194119166Y-108403276D01*
X194115649Y-108417317D01*
X194110772Y-108430946D01*
X194104583Y-108444031D01*
X194097142Y-108456447D01*
X194088519Y-108468073D01*
X194078798Y-108478798D01*
X194068073Y-108488519D01*
X194056447Y-108497142D01*
X194044031Y-108504583D01*
X194030946Y-108510772D01*
X194017317Y-108515649D01*
X194003276Y-108519166D01*
X193988958Y-108521290D01*
X193974500Y-108522000D01*
X193629500Y-108522000D01*
X193615042Y-108521290D01*
X193600724Y-108519166D01*
X193586683Y-108515649D01*
X193573054Y-108510772D01*
X193559969Y-108504583D01*
X193547553Y-108497142D01*
X193535927Y-108488519D01*
X193525202Y-108478798D01*
X193515481Y-108468073D01*
X193506858Y-108456447D01*
X193499417Y-108444031D01*
X193493228Y-108430946D01*
X193488351Y-108417317D01*
X193484834Y-108403276D01*
X193482710Y-108388958D01*
X193482000Y-108374500D01*
X193482000Y-108079500D01*
X193482710Y-108065042D01*
X193484834Y-108050724D01*
X193488351Y-108036683D01*
X193493228Y-108023054D01*
X193499417Y-108009969D01*
X193506858Y-107997553D01*
X193515481Y-107985927D01*
X193525202Y-107975202D01*
X193535927Y-107965481D01*
X193547553Y-107956858D01*
X193559969Y-107949417D01*
X193573054Y-107943228D01*
X193586683Y-107938351D01*
X193600724Y-107934834D01*
X193615042Y-107932710D01*
X193629500Y-107932000D01*
X193974500Y-107932000D01*
X193988958Y-107932710D01*
X193988958Y-107932710D01*
G37*
D11*
X193802000Y-108227000D03*
D13*
X190261240Y-118595140D03*
X190261240Y-117325140D03*
X190261240Y-116055140D03*
X190261240Y-114785140D03*
X190261240Y-113515140D03*
X190261240Y-112245140D03*
X190261240Y-110975140D03*
X190261240Y-109705140D03*
X175260000Y-109705140D03*
X175260000Y-110975140D03*
X175260000Y-112245140D03*
X175260000Y-113515140D03*
X175260000Y-114785140D03*
X175260000Y-116055140D03*
X175260000Y-117325140D03*
X175260000Y-118595140D03*
D10*
G36*
X192896758Y-99271310D02*
G01*
X192911076Y-99273434D01*
X192925117Y-99276951D01*
X192938746Y-99281828D01*
X192951831Y-99288017D01*
X192964247Y-99295458D01*
X192975873Y-99304081D01*
X192986598Y-99313802D01*
X192996319Y-99324527D01*
X193004942Y-99336153D01*
X193012383Y-99348569D01*
X193018572Y-99361654D01*
X193023449Y-99375283D01*
X193026966Y-99389324D01*
X193029090Y-99403642D01*
X193029800Y-99418100D01*
X193029800Y-99713100D01*
X193029090Y-99727558D01*
X193026966Y-99741876D01*
X193023449Y-99755917D01*
X193018572Y-99769546D01*
X193012383Y-99782631D01*
X193004942Y-99795047D01*
X192996319Y-99806673D01*
X192986598Y-99817398D01*
X192975873Y-99827119D01*
X192964247Y-99835742D01*
X192951831Y-99843183D01*
X192938746Y-99849372D01*
X192925117Y-99854249D01*
X192911076Y-99857766D01*
X192896758Y-99859890D01*
X192882300Y-99860600D01*
X192537300Y-99860600D01*
X192522842Y-99859890D01*
X192508524Y-99857766D01*
X192494483Y-99854249D01*
X192480854Y-99849372D01*
X192467769Y-99843183D01*
X192455353Y-99835742D01*
X192443727Y-99827119D01*
X192433002Y-99817398D01*
X192423281Y-99806673D01*
X192414658Y-99795047D01*
X192407217Y-99782631D01*
X192401028Y-99769546D01*
X192396151Y-99755917D01*
X192392634Y-99741876D01*
X192390510Y-99727558D01*
X192389800Y-99713100D01*
X192389800Y-99418100D01*
X192390510Y-99403642D01*
X192392634Y-99389324D01*
X192396151Y-99375283D01*
X192401028Y-99361654D01*
X192407217Y-99348569D01*
X192414658Y-99336153D01*
X192423281Y-99324527D01*
X192433002Y-99313802D01*
X192443727Y-99304081D01*
X192455353Y-99295458D01*
X192467769Y-99288017D01*
X192480854Y-99281828D01*
X192494483Y-99276951D01*
X192508524Y-99273434D01*
X192522842Y-99271310D01*
X192537300Y-99270600D01*
X192882300Y-99270600D01*
X192896758Y-99271310D01*
X192896758Y-99271310D01*
G37*
D11*
X192709800Y-99565600D03*
D10*
G36*
X192896758Y-100241310D02*
G01*
X192911076Y-100243434D01*
X192925117Y-100246951D01*
X192938746Y-100251828D01*
X192951831Y-100258017D01*
X192964247Y-100265458D01*
X192975873Y-100274081D01*
X192986598Y-100283802D01*
X192996319Y-100294527D01*
X193004942Y-100306153D01*
X193012383Y-100318569D01*
X193018572Y-100331654D01*
X193023449Y-100345283D01*
X193026966Y-100359324D01*
X193029090Y-100373642D01*
X193029800Y-100388100D01*
X193029800Y-100683100D01*
X193029090Y-100697558D01*
X193026966Y-100711876D01*
X193023449Y-100725917D01*
X193018572Y-100739546D01*
X193012383Y-100752631D01*
X193004942Y-100765047D01*
X192996319Y-100776673D01*
X192986598Y-100787398D01*
X192975873Y-100797119D01*
X192964247Y-100805742D01*
X192951831Y-100813183D01*
X192938746Y-100819372D01*
X192925117Y-100824249D01*
X192911076Y-100827766D01*
X192896758Y-100829890D01*
X192882300Y-100830600D01*
X192537300Y-100830600D01*
X192522842Y-100829890D01*
X192508524Y-100827766D01*
X192494483Y-100824249D01*
X192480854Y-100819372D01*
X192467769Y-100813183D01*
X192455353Y-100805742D01*
X192443727Y-100797119D01*
X192433002Y-100787398D01*
X192423281Y-100776673D01*
X192414658Y-100765047D01*
X192407217Y-100752631D01*
X192401028Y-100739546D01*
X192396151Y-100725917D01*
X192392634Y-100711876D01*
X192390510Y-100697558D01*
X192389800Y-100683100D01*
X192389800Y-100388100D01*
X192390510Y-100373642D01*
X192392634Y-100359324D01*
X192396151Y-100345283D01*
X192401028Y-100331654D01*
X192407217Y-100318569D01*
X192414658Y-100306153D01*
X192423281Y-100294527D01*
X192433002Y-100283802D01*
X192443727Y-100274081D01*
X192455353Y-100265458D01*
X192467769Y-100258017D01*
X192480854Y-100251828D01*
X192494483Y-100246951D01*
X192508524Y-100243434D01*
X192522842Y-100241310D01*
X192537300Y-100240600D01*
X192882300Y-100240600D01*
X192896758Y-100241310D01*
X192896758Y-100241310D01*
G37*
D11*
X192709800Y-100535600D03*
D10*
G36*
X194319158Y-98008510D02*
G01*
X194333476Y-98010634D01*
X194347517Y-98014151D01*
X194361146Y-98019028D01*
X194374231Y-98025217D01*
X194386647Y-98032658D01*
X194398273Y-98041281D01*
X194408998Y-98051002D01*
X194418719Y-98061727D01*
X194427342Y-98073353D01*
X194434783Y-98085769D01*
X194440972Y-98098854D01*
X194445849Y-98112483D01*
X194449366Y-98126524D01*
X194451490Y-98140842D01*
X194452200Y-98155300D01*
X194452200Y-98450300D01*
X194451490Y-98464758D01*
X194449366Y-98479076D01*
X194445849Y-98493117D01*
X194440972Y-98506746D01*
X194434783Y-98519831D01*
X194427342Y-98532247D01*
X194418719Y-98543873D01*
X194408998Y-98554598D01*
X194398273Y-98564319D01*
X194386647Y-98572942D01*
X194374231Y-98580383D01*
X194361146Y-98586572D01*
X194347517Y-98591449D01*
X194333476Y-98594966D01*
X194319158Y-98597090D01*
X194304700Y-98597800D01*
X193959700Y-98597800D01*
X193945242Y-98597090D01*
X193930924Y-98594966D01*
X193916883Y-98591449D01*
X193903254Y-98586572D01*
X193890169Y-98580383D01*
X193877753Y-98572942D01*
X193866127Y-98564319D01*
X193855402Y-98554598D01*
X193845681Y-98543873D01*
X193837058Y-98532247D01*
X193829617Y-98519831D01*
X193823428Y-98506746D01*
X193818551Y-98493117D01*
X193815034Y-98479076D01*
X193812910Y-98464758D01*
X193812200Y-98450300D01*
X193812200Y-98155300D01*
X193812910Y-98140842D01*
X193815034Y-98126524D01*
X193818551Y-98112483D01*
X193823428Y-98098854D01*
X193829617Y-98085769D01*
X193837058Y-98073353D01*
X193845681Y-98061727D01*
X193855402Y-98051002D01*
X193866127Y-98041281D01*
X193877753Y-98032658D01*
X193890169Y-98025217D01*
X193903254Y-98019028D01*
X193916883Y-98014151D01*
X193930924Y-98010634D01*
X193945242Y-98008510D01*
X193959700Y-98007800D01*
X194304700Y-98007800D01*
X194319158Y-98008510D01*
X194319158Y-98008510D01*
G37*
D11*
X194132200Y-98302800D03*
D10*
G36*
X194319158Y-97038510D02*
G01*
X194333476Y-97040634D01*
X194347517Y-97044151D01*
X194361146Y-97049028D01*
X194374231Y-97055217D01*
X194386647Y-97062658D01*
X194398273Y-97071281D01*
X194408998Y-97081002D01*
X194418719Y-97091727D01*
X194427342Y-97103353D01*
X194434783Y-97115769D01*
X194440972Y-97128854D01*
X194445849Y-97142483D01*
X194449366Y-97156524D01*
X194451490Y-97170842D01*
X194452200Y-97185300D01*
X194452200Y-97480300D01*
X194451490Y-97494758D01*
X194449366Y-97509076D01*
X194445849Y-97523117D01*
X194440972Y-97536746D01*
X194434783Y-97549831D01*
X194427342Y-97562247D01*
X194418719Y-97573873D01*
X194408998Y-97584598D01*
X194398273Y-97594319D01*
X194386647Y-97602942D01*
X194374231Y-97610383D01*
X194361146Y-97616572D01*
X194347517Y-97621449D01*
X194333476Y-97624966D01*
X194319158Y-97627090D01*
X194304700Y-97627800D01*
X193959700Y-97627800D01*
X193945242Y-97627090D01*
X193930924Y-97624966D01*
X193916883Y-97621449D01*
X193903254Y-97616572D01*
X193890169Y-97610383D01*
X193877753Y-97602942D01*
X193866127Y-97594319D01*
X193855402Y-97584598D01*
X193845681Y-97573873D01*
X193837058Y-97562247D01*
X193829617Y-97549831D01*
X193823428Y-97536746D01*
X193818551Y-97523117D01*
X193815034Y-97509076D01*
X193812910Y-97494758D01*
X193812200Y-97480300D01*
X193812200Y-97185300D01*
X193812910Y-97170842D01*
X193815034Y-97156524D01*
X193818551Y-97142483D01*
X193823428Y-97128854D01*
X193829617Y-97115769D01*
X193837058Y-97103353D01*
X193845681Y-97091727D01*
X193855402Y-97081002D01*
X193866127Y-97071281D01*
X193877753Y-97062658D01*
X193890169Y-97055217D01*
X193903254Y-97049028D01*
X193916883Y-97044151D01*
X193930924Y-97040634D01*
X193945242Y-97038510D01*
X193959700Y-97037800D01*
X194304700Y-97037800D01*
X194319158Y-97038510D01*
X194319158Y-97038510D01*
G37*
D11*
X194132200Y-97332800D03*
D10*
G36*
X192922158Y-97391710D02*
G01*
X192936476Y-97393834D01*
X192950517Y-97397351D01*
X192964146Y-97402228D01*
X192977231Y-97408417D01*
X192989647Y-97415858D01*
X193001273Y-97424481D01*
X193011998Y-97434202D01*
X193021719Y-97444927D01*
X193030342Y-97456553D01*
X193037783Y-97468969D01*
X193043972Y-97482054D01*
X193048849Y-97495683D01*
X193052366Y-97509724D01*
X193054490Y-97524042D01*
X193055200Y-97538500D01*
X193055200Y-97833500D01*
X193054490Y-97847958D01*
X193052366Y-97862276D01*
X193048849Y-97876317D01*
X193043972Y-97889946D01*
X193037783Y-97903031D01*
X193030342Y-97915447D01*
X193021719Y-97927073D01*
X193011998Y-97937798D01*
X193001273Y-97947519D01*
X192989647Y-97956142D01*
X192977231Y-97963583D01*
X192964146Y-97969772D01*
X192950517Y-97974649D01*
X192936476Y-97978166D01*
X192922158Y-97980290D01*
X192907700Y-97981000D01*
X192562700Y-97981000D01*
X192548242Y-97980290D01*
X192533924Y-97978166D01*
X192519883Y-97974649D01*
X192506254Y-97969772D01*
X192493169Y-97963583D01*
X192480753Y-97956142D01*
X192469127Y-97947519D01*
X192458402Y-97937798D01*
X192448681Y-97927073D01*
X192440058Y-97915447D01*
X192432617Y-97903031D01*
X192426428Y-97889946D01*
X192421551Y-97876317D01*
X192418034Y-97862276D01*
X192415910Y-97847958D01*
X192415200Y-97833500D01*
X192415200Y-97538500D01*
X192415910Y-97524042D01*
X192418034Y-97509724D01*
X192421551Y-97495683D01*
X192426428Y-97482054D01*
X192432617Y-97468969D01*
X192440058Y-97456553D01*
X192448681Y-97444927D01*
X192458402Y-97434202D01*
X192469127Y-97424481D01*
X192480753Y-97415858D01*
X192493169Y-97408417D01*
X192506254Y-97402228D01*
X192519883Y-97397351D01*
X192533924Y-97393834D01*
X192548242Y-97391710D01*
X192562700Y-97391000D01*
X192907700Y-97391000D01*
X192922158Y-97391710D01*
X192922158Y-97391710D01*
G37*
D11*
X192735200Y-97686000D03*
D10*
G36*
X192922158Y-98361710D02*
G01*
X192936476Y-98363834D01*
X192950517Y-98367351D01*
X192964146Y-98372228D01*
X192977231Y-98378417D01*
X192989647Y-98385858D01*
X193001273Y-98394481D01*
X193011998Y-98404202D01*
X193021719Y-98414927D01*
X193030342Y-98426553D01*
X193037783Y-98438969D01*
X193043972Y-98452054D01*
X193048849Y-98465683D01*
X193052366Y-98479724D01*
X193054490Y-98494042D01*
X193055200Y-98508500D01*
X193055200Y-98803500D01*
X193054490Y-98817958D01*
X193052366Y-98832276D01*
X193048849Y-98846317D01*
X193043972Y-98859946D01*
X193037783Y-98873031D01*
X193030342Y-98885447D01*
X193021719Y-98897073D01*
X193011998Y-98907798D01*
X193001273Y-98917519D01*
X192989647Y-98926142D01*
X192977231Y-98933583D01*
X192964146Y-98939772D01*
X192950517Y-98944649D01*
X192936476Y-98948166D01*
X192922158Y-98950290D01*
X192907700Y-98951000D01*
X192562700Y-98951000D01*
X192548242Y-98950290D01*
X192533924Y-98948166D01*
X192519883Y-98944649D01*
X192506254Y-98939772D01*
X192493169Y-98933583D01*
X192480753Y-98926142D01*
X192469127Y-98917519D01*
X192458402Y-98907798D01*
X192448681Y-98897073D01*
X192440058Y-98885447D01*
X192432617Y-98873031D01*
X192426428Y-98859946D01*
X192421551Y-98846317D01*
X192418034Y-98832276D01*
X192415910Y-98817958D01*
X192415200Y-98803500D01*
X192415200Y-98508500D01*
X192415910Y-98494042D01*
X192418034Y-98479724D01*
X192421551Y-98465683D01*
X192426428Y-98452054D01*
X192432617Y-98438969D01*
X192440058Y-98426553D01*
X192448681Y-98414927D01*
X192458402Y-98404202D01*
X192469127Y-98394481D01*
X192480753Y-98385858D01*
X192493169Y-98378417D01*
X192506254Y-98372228D01*
X192519883Y-98367351D01*
X192533924Y-98363834D01*
X192548242Y-98361710D01*
X192562700Y-98361000D01*
X192907700Y-98361000D01*
X192922158Y-98361710D01*
X192922158Y-98361710D01*
G37*
D11*
X192735200Y-98656000D03*
D10*
G36*
X195004958Y-99885710D02*
G01*
X195019276Y-99887834D01*
X195033317Y-99891351D01*
X195046946Y-99896228D01*
X195060031Y-99902417D01*
X195072447Y-99909858D01*
X195084073Y-99918481D01*
X195094798Y-99928202D01*
X195104519Y-99938927D01*
X195113142Y-99950553D01*
X195120583Y-99962969D01*
X195126772Y-99976054D01*
X195131649Y-99989683D01*
X195135166Y-100003724D01*
X195137290Y-100018042D01*
X195138000Y-100032500D01*
X195138000Y-100327500D01*
X195137290Y-100341958D01*
X195135166Y-100356276D01*
X195131649Y-100370317D01*
X195126772Y-100383946D01*
X195120583Y-100397031D01*
X195113142Y-100409447D01*
X195104519Y-100421073D01*
X195094798Y-100431798D01*
X195084073Y-100441519D01*
X195072447Y-100450142D01*
X195060031Y-100457583D01*
X195046946Y-100463772D01*
X195033317Y-100468649D01*
X195019276Y-100472166D01*
X195004958Y-100474290D01*
X194990500Y-100475000D01*
X194645500Y-100475000D01*
X194631042Y-100474290D01*
X194616724Y-100472166D01*
X194602683Y-100468649D01*
X194589054Y-100463772D01*
X194575969Y-100457583D01*
X194563553Y-100450142D01*
X194551927Y-100441519D01*
X194541202Y-100431798D01*
X194531481Y-100421073D01*
X194522858Y-100409447D01*
X194515417Y-100397031D01*
X194509228Y-100383946D01*
X194504351Y-100370317D01*
X194500834Y-100356276D01*
X194498710Y-100341958D01*
X194498000Y-100327500D01*
X194498000Y-100032500D01*
X194498710Y-100018042D01*
X194500834Y-100003724D01*
X194504351Y-99989683D01*
X194509228Y-99976054D01*
X194515417Y-99962969D01*
X194522858Y-99950553D01*
X194531481Y-99938927D01*
X194541202Y-99928202D01*
X194551927Y-99918481D01*
X194563553Y-99909858D01*
X194575969Y-99902417D01*
X194589054Y-99896228D01*
X194602683Y-99891351D01*
X194616724Y-99887834D01*
X194631042Y-99885710D01*
X194645500Y-99885000D01*
X194990500Y-99885000D01*
X195004958Y-99885710D01*
X195004958Y-99885710D01*
G37*
D11*
X194818000Y-100180000D03*
D10*
G36*
X195004958Y-98915710D02*
G01*
X195019276Y-98917834D01*
X195033317Y-98921351D01*
X195046946Y-98926228D01*
X195060031Y-98932417D01*
X195072447Y-98939858D01*
X195084073Y-98948481D01*
X195094798Y-98958202D01*
X195104519Y-98968927D01*
X195113142Y-98980553D01*
X195120583Y-98992969D01*
X195126772Y-99006054D01*
X195131649Y-99019683D01*
X195135166Y-99033724D01*
X195137290Y-99048042D01*
X195138000Y-99062500D01*
X195138000Y-99357500D01*
X195137290Y-99371958D01*
X195135166Y-99386276D01*
X195131649Y-99400317D01*
X195126772Y-99413946D01*
X195120583Y-99427031D01*
X195113142Y-99439447D01*
X195104519Y-99451073D01*
X195094798Y-99461798D01*
X195084073Y-99471519D01*
X195072447Y-99480142D01*
X195060031Y-99487583D01*
X195046946Y-99493772D01*
X195033317Y-99498649D01*
X195019276Y-99502166D01*
X195004958Y-99504290D01*
X194990500Y-99505000D01*
X194645500Y-99505000D01*
X194631042Y-99504290D01*
X194616724Y-99502166D01*
X194602683Y-99498649D01*
X194589054Y-99493772D01*
X194575969Y-99487583D01*
X194563553Y-99480142D01*
X194551927Y-99471519D01*
X194541202Y-99461798D01*
X194531481Y-99451073D01*
X194522858Y-99439447D01*
X194515417Y-99427031D01*
X194509228Y-99413946D01*
X194504351Y-99400317D01*
X194500834Y-99386276D01*
X194498710Y-99371958D01*
X194498000Y-99357500D01*
X194498000Y-99062500D01*
X194498710Y-99048042D01*
X194500834Y-99033724D01*
X194504351Y-99019683D01*
X194509228Y-99006054D01*
X194515417Y-98992969D01*
X194522858Y-98980553D01*
X194531481Y-98968927D01*
X194541202Y-98958202D01*
X194551927Y-98948481D01*
X194563553Y-98939858D01*
X194575969Y-98932417D01*
X194589054Y-98926228D01*
X194602683Y-98921351D01*
X194616724Y-98917834D01*
X194631042Y-98915710D01*
X194645500Y-98915000D01*
X194990500Y-98915000D01*
X195004958Y-98915710D01*
X195004958Y-98915710D01*
G37*
D11*
X194818000Y-99210000D03*
D10*
G36*
X192591958Y-104076710D02*
G01*
X192606276Y-104078834D01*
X192620317Y-104082351D01*
X192633946Y-104087228D01*
X192647031Y-104093417D01*
X192659447Y-104100858D01*
X192671073Y-104109481D01*
X192681798Y-104119202D01*
X192691519Y-104129927D01*
X192700142Y-104141553D01*
X192707583Y-104153969D01*
X192713772Y-104167054D01*
X192718649Y-104180683D01*
X192722166Y-104194724D01*
X192724290Y-104209042D01*
X192725000Y-104223500D01*
X192725000Y-104518500D01*
X192724290Y-104532958D01*
X192722166Y-104547276D01*
X192718649Y-104561317D01*
X192713772Y-104574946D01*
X192707583Y-104588031D01*
X192700142Y-104600447D01*
X192691519Y-104612073D01*
X192681798Y-104622798D01*
X192671073Y-104632519D01*
X192659447Y-104641142D01*
X192647031Y-104648583D01*
X192633946Y-104654772D01*
X192620317Y-104659649D01*
X192606276Y-104663166D01*
X192591958Y-104665290D01*
X192577500Y-104666000D01*
X192232500Y-104666000D01*
X192218042Y-104665290D01*
X192203724Y-104663166D01*
X192189683Y-104659649D01*
X192176054Y-104654772D01*
X192162969Y-104648583D01*
X192150553Y-104641142D01*
X192138927Y-104632519D01*
X192128202Y-104622798D01*
X192118481Y-104612073D01*
X192109858Y-104600447D01*
X192102417Y-104588031D01*
X192096228Y-104574946D01*
X192091351Y-104561317D01*
X192087834Y-104547276D01*
X192085710Y-104532958D01*
X192085000Y-104518500D01*
X192085000Y-104223500D01*
X192085710Y-104209042D01*
X192087834Y-104194724D01*
X192091351Y-104180683D01*
X192096228Y-104167054D01*
X192102417Y-104153969D01*
X192109858Y-104141553D01*
X192118481Y-104129927D01*
X192128202Y-104119202D01*
X192138927Y-104109481D01*
X192150553Y-104100858D01*
X192162969Y-104093417D01*
X192176054Y-104087228D01*
X192189683Y-104082351D01*
X192203724Y-104078834D01*
X192218042Y-104076710D01*
X192232500Y-104076000D01*
X192577500Y-104076000D01*
X192591958Y-104076710D01*
X192591958Y-104076710D01*
G37*
D11*
X192405000Y-104371000D03*
D10*
G36*
X192591958Y-103106710D02*
G01*
X192606276Y-103108834D01*
X192620317Y-103112351D01*
X192633946Y-103117228D01*
X192647031Y-103123417D01*
X192659447Y-103130858D01*
X192671073Y-103139481D01*
X192681798Y-103149202D01*
X192691519Y-103159927D01*
X192700142Y-103171553D01*
X192707583Y-103183969D01*
X192713772Y-103197054D01*
X192718649Y-103210683D01*
X192722166Y-103224724D01*
X192724290Y-103239042D01*
X192725000Y-103253500D01*
X192725000Y-103548500D01*
X192724290Y-103562958D01*
X192722166Y-103577276D01*
X192718649Y-103591317D01*
X192713772Y-103604946D01*
X192707583Y-103618031D01*
X192700142Y-103630447D01*
X192691519Y-103642073D01*
X192681798Y-103652798D01*
X192671073Y-103662519D01*
X192659447Y-103671142D01*
X192647031Y-103678583D01*
X192633946Y-103684772D01*
X192620317Y-103689649D01*
X192606276Y-103693166D01*
X192591958Y-103695290D01*
X192577500Y-103696000D01*
X192232500Y-103696000D01*
X192218042Y-103695290D01*
X192203724Y-103693166D01*
X192189683Y-103689649D01*
X192176054Y-103684772D01*
X192162969Y-103678583D01*
X192150553Y-103671142D01*
X192138927Y-103662519D01*
X192128202Y-103652798D01*
X192118481Y-103642073D01*
X192109858Y-103630447D01*
X192102417Y-103618031D01*
X192096228Y-103604946D01*
X192091351Y-103591317D01*
X192087834Y-103577276D01*
X192085710Y-103562958D01*
X192085000Y-103548500D01*
X192085000Y-103253500D01*
X192085710Y-103239042D01*
X192087834Y-103224724D01*
X192091351Y-103210683D01*
X192096228Y-103197054D01*
X192102417Y-103183969D01*
X192109858Y-103171553D01*
X192118481Y-103159927D01*
X192128202Y-103149202D01*
X192138927Y-103139481D01*
X192150553Y-103130858D01*
X192162969Y-103123417D01*
X192176054Y-103117228D01*
X192189683Y-103112351D01*
X192203724Y-103108834D01*
X192218042Y-103106710D01*
X192232500Y-103106000D01*
X192577500Y-103106000D01*
X192591958Y-103106710D01*
X192591958Y-103106710D01*
G37*
D11*
X192405000Y-103401000D03*
D10*
G36*
X193607958Y-104099710D02*
G01*
X193622276Y-104101834D01*
X193636317Y-104105351D01*
X193649946Y-104110228D01*
X193663031Y-104116417D01*
X193675447Y-104123858D01*
X193687073Y-104132481D01*
X193697798Y-104142202D01*
X193707519Y-104152927D01*
X193716142Y-104164553D01*
X193723583Y-104176969D01*
X193729772Y-104190054D01*
X193734649Y-104203683D01*
X193738166Y-104217724D01*
X193740290Y-104232042D01*
X193741000Y-104246500D01*
X193741000Y-104541500D01*
X193740290Y-104555958D01*
X193738166Y-104570276D01*
X193734649Y-104584317D01*
X193729772Y-104597946D01*
X193723583Y-104611031D01*
X193716142Y-104623447D01*
X193707519Y-104635073D01*
X193697798Y-104645798D01*
X193687073Y-104655519D01*
X193675447Y-104664142D01*
X193663031Y-104671583D01*
X193649946Y-104677772D01*
X193636317Y-104682649D01*
X193622276Y-104686166D01*
X193607958Y-104688290D01*
X193593500Y-104689000D01*
X193248500Y-104689000D01*
X193234042Y-104688290D01*
X193219724Y-104686166D01*
X193205683Y-104682649D01*
X193192054Y-104677772D01*
X193178969Y-104671583D01*
X193166553Y-104664142D01*
X193154927Y-104655519D01*
X193144202Y-104645798D01*
X193134481Y-104635073D01*
X193125858Y-104623447D01*
X193118417Y-104611031D01*
X193112228Y-104597946D01*
X193107351Y-104584317D01*
X193103834Y-104570276D01*
X193101710Y-104555958D01*
X193101000Y-104541500D01*
X193101000Y-104246500D01*
X193101710Y-104232042D01*
X193103834Y-104217724D01*
X193107351Y-104203683D01*
X193112228Y-104190054D01*
X193118417Y-104176969D01*
X193125858Y-104164553D01*
X193134481Y-104152927D01*
X193144202Y-104142202D01*
X193154927Y-104132481D01*
X193166553Y-104123858D01*
X193178969Y-104116417D01*
X193192054Y-104110228D01*
X193205683Y-104105351D01*
X193219724Y-104101834D01*
X193234042Y-104099710D01*
X193248500Y-104099000D01*
X193593500Y-104099000D01*
X193607958Y-104099710D01*
X193607958Y-104099710D01*
G37*
D11*
X193421000Y-104394000D03*
D10*
G36*
X193607958Y-103129710D02*
G01*
X193622276Y-103131834D01*
X193636317Y-103135351D01*
X193649946Y-103140228D01*
X193663031Y-103146417D01*
X193675447Y-103153858D01*
X193687073Y-103162481D01*
X193697798Y-103172202D01*
X193707519Y-103182927D01*
X193716142Y-103194553D01*
X193723583Y-103206969D01*
X193729772Y-103220054D01*
X193734649Y-103233683D01*
X193738166Y-103247724D01*
X193740290Y-103262042D01*
X193741000Y-103276500D01*
X193741000Y-103571500D01*
X193740290Y-103585958D01*
X193738166Y-103600276D01*
X193734649Y-103614317D01*
X193729772Y-103627946D01*
X193723583Y-103641031D01*
X193716142Y-103653447D01*
X193707519Y-103665073D01*
X193697798Y-103675798D01*
X193687073Y-103685519D01*
X193675447Y-103694142D01*
X193663031Y-103701583D01*
X193649946Y-103707772D01*
X193636317Y-103712649D01*
X193622276Y-103716166D01*
X193607958Y-103718290D01*
X193593500Y-103719000D01*
X193248500Y-103719000D01*
X193234042Y-103718290D01*
X193219724Y-103716166D01*
X193205683Y-103712649D01*
X193192054Y-103707772D01*
X193178969Y-103701583D01*
X193166553Y-103694142D01*
X193154927Y-103685519D01*
X193144202Y-103675798D01*
X193134481Y-103665073D01*
X193125858Y-103653447D01*
X193118417Y-103641031D01*
X193112228Y-103627946D01*
X193107351Y-103614317D01*
X193103834Y-103600276D01*
X193101710Y-103585958D01*
X193101000Y-103571500D01*
X193101000Y-103276500D01*
X193101710Y-103262042D01*
X193103834Y-103247724D01*
X193107351Y-103233683D01*
X193112228Y-103220054D01*
X193118417Y-103206969D01*
X193125858Y-103194553D01*
X193134481Y-103182927D01*
X193144202Y-103172202D01*
X193154927Y-103162481D01*
X193166553Y-103153858D01*
X193178969Y-103146417D01*
X193192054Y-103140228D01*
X193205683Y-103135351D01*
X193219724Y-103131834D01*
X193234042Y-103129710D01*
X193248500Y-103129000D01*
X193593500Y-103129000D01*
X193607958Y-103129710D01*
X193607958Y-103129710D01*
G37*
D11*
X193421000Y-103424000D03*
D10*
G36*
X195131958Y-118150710D02*
G01*
X195146276Y-118152834D01*
X195160317Y-118156351D01*
X195173946Y-118161228D01*
X195187031Y-118167417D01*
X195199447Y-118174858D01*
X195211073Y-118183481D01*
X195221798Y-118193202D01*
X195231519Y-118203927D01*
X195240142Y-118215553D01*
X195247583Y-118227969D01*
X195253772Y-118241054D01*
X195258649Y-118254683D01*
X195262166Y-118268724D01*
X195264290Y-118283042D01*
X195265000Y-118297500D01*
X195265000Y-118592500D01*
X195264290Y-118606958D01*
X195262166Y-118621276D01*
X195258649Y-118635317D01*
X195253772Y-118648946D01*
X195247583Y-118662031D01*
X195240142Y-118674447D01*
X195231519Y-118686073D01*
X195221798Y-118696798D01*
X195211073Y-118706519D01*
X195199447Y-118715142D01*
X195187031Y-118722583D01*
X195173946Y-118728772D01*
X195160317Y-118733649D01*
X195146276Y-118737166D01*
X195131958Y-118739290D01*
X195117500Y-118740000D01*
X194772500Y-118740000D01*
X194758042Y-118739290D01*
X194743724Y-118737166D01*
X194729683Y-118733649D01*
X194716054Y-118728772D01*
X194702969Y-118722583D01*
X194690553Y-118715142D01*
X194678927Y-118706519D01*
X194668202Y-118696798D01*
X194658481Y-118686073D01*
X194649858Y-118674447D01*
X194642417Y-118662031D01*
X194636228Y-118648946D01*
X194631351Y-118635317D01*
X194627834Y-118621276D01*
X194625710Y-118606958D01*
X194625000Y-118592500D01*
X194625000Y-118297500D01*
X194625710Y-118283042D01*
X194627834Y-118268724D01*
X194631351Y-118254683D01*
X194636228Y-118241054D01*
X194642417Y-118227969D01*
X194649858Y-118215553D01*
X194658481Y-118203927D01*
X194668202Y-118193202D01*
X194678927Y-118183481D01*
X194690553Y-118174858D01*
X194702969Y-118167417D01*
X194716054Y-118161228D01*
X194729683Y-118156351D01*
X194743724Y-118152834D01*
X194758042Y-118150710D01*
X194772500Y-118150000D01*
X195117500Y-118150000D01*
X195131958Y-118150710D01*
X195131958Y-118150710D01*
G37*
D11*
X194945000Y-118445000D03*
D10*
G36*
X195131958Y-117180710D02*
G01*
X195146276Y-117182834D01*
X195160317Y-117186351D01*
X195173946Y-117191228D01*
X195187031Y-117197417D01*
X195199447Y-117204858D01*
X195211073Y-117213481D01*
X195221798Y-117223202D01*
X195231519Y-117233927D01*
X195240142Y-117245553D01*
X195247583Y-117257969D01*
X195253772Y-117271054D01*
X195258649Y-117284683D01*
X195262166Y-117298724D01*
X195264290Y-117313042D01*
X195265000Y-117327500D01*
X195265000Y-117622500D01*
X195264290Y-117636958D01*
X195262166Y-117651276D01*
X195258649Y-117665317D01*
X195253772Y-117678946D01*
X195247583Y-117692031D01*
X195240142Y-117704447D01*
X195231519Y-117716073D01*
X195221798Y-117726798D01*
X195211073Y-117736519D01*
X195199447Y-117745142D01*
X195187031Y-117752583D01*
X195173946Y-117758772D01*
X195160317Y-117763649D01*
X195146276Y-117767166D01*
X195131958Y-117769290D01*
X195117500Y-117770000D01*
X194772500Y-117770000D01*
X194758042Y-117769290D01*
X194743724Y-117767166D01*
X194729683Y-117763649D01*
X194716054Y-117758772D01*
X194702969Y-117752583D01*
X194690553Y-117745142D01*
X194678927Y-117736519D01*
X194668202Y-117726798D01*
X194658481Y-117716073D01*
X194649858Y-117704447D01*
X194642417Y-117692031D01*
X194636228Y-117678946D01*
X194631351Y-117665317D01*
X194627834Y-117651276D01*
X194625710Y-117636958D01*
X194625000Y-117622500D01*
X194625000Y-117327500D01*
X194625710Y-117313042D01*
X194627834Y-117298724D01*
X194631351Y-117284683D01*
X194636228Y-117271054D01*
X194642417Y-117257969D01*
X194649858Y-117245553D01*
X194658481Y-117233927D01*
X194668202Y-117223202D01*
X194678927Y-117213481D01*
X194690553Y-117204858D01*
X194702969Y-117197417D01*
X194716054Y-117191228D01*
X194729683Y-117186351D01*
X194743724Y-117182834D01*
X194758042Y-117180710D01*
X194772500Y-117180000D01*
X195117500Y-117180000D01*
X195131958Y-117180710D01*
X195131958Y-117180710D01*
G37*
D11*
X194945000Y-117475000D03*
D10*
G36*
X195487958Y-103566710D02*
G01*
X195502276Y-103568834D01*
X195516317Y-103572351D01*
X195529946Y-103577228D01*
X195543031Y-103583417D01*
X195555447Y-103590858D01*
X195567073Y-103599481D01*
X195577798Y-103609202D01*
X195587519Y-103619927D01*
X195596142Y-103631553D01*
X195603583Y-103643969D01*
X195609772Y-103657054D01*
X195614649Y-103670683D01*
X195618166Y-103684724D01*
X195620290Y-103699042D01*
X195621000Y-103713500D01*
X195621000Y-104058500D01*
X195620290Y-104072958D01*
X195618166Y-104087276D01*
X195614649Y-104101317D01*
X195609772Y-104114946D01*
X195603583Y-104128031D01*
X195596142Y-104140447D01*
X195587519Y-104152073D01*
X195577798Y-104162798D01*
X195567073Y-104172519D01*
X195555447Y-104181142D01*
X195543031Y-104188583D01*
X195529946Y-104194772D01*
X195516317Y-104199649D01*
X195502276Y-104203166D01*
X195487958Y-104205290D01*
X195473500Y-104206000D01*
X195178500Y-104206000D01*
X195164042Y-104205290D01*
X195149724Y-104203166D01*
X195135683Y-104199649D01*
X195122054Y-104194772D01*
X195108969Y-104188583D01*
X195096553Y-104181142D01*
X195084927Y-104172519D01*
X195074202Y-104162798D01*
X195064481Y-104152073D01*
X195055858Y-104140447D01*
X195048417Y-104128031D01*
X195042228Y-104114946D01*
X195037351Y-104101317D01*
X195033834Y-104087276D01*
X195031710Y-104072958D01*
X195031000Y-104058500D01*
X195031000Y-103713500D01*
X195031710Y-103699042D01*
X195033834Y-103684724D01*
X195037351Y-103670683D01*
X195042228Y-103657054D01*
X195048417Y-103643969D01*
X195055858Y-103631553D01*
X195064481Y-103619927D01*
X195074202Y-103609202D01*
X195084927Y-103599481D01*
X195096553Y-103590858D01*
X195108969Y-103583417D01*
X195122054Y-103577228D01*
X195135683Y-103572351D01*
X195149724Y-103568834D01*
X195164042Y-103566710D01*
X195178500Y-103566000D01*
X195473500Y-103566000D01*
X195487958Y-103566710D01*
X195487958Y-103566710D01*
G37*
D11*
X195326000Y-103886000D03*
D10*
G36*
X194517958Y-103566710D02*
G01*
X194532276Y-103568834D01*
X194546317Y-103572351D01*
X194559946Y-103577228D01*
X194573031Y-103583417D01*
X194585447Y-103590858D01*
X194597073Y-103599481D01*
X194607798Y-103609202D01*
X194617519Y-103619927D01*
X194626142Y-103631553D01*
X194633583Y-103643969D01*
X194639772Y-103657054D01*
X194644649Y-103670683D01*
X194648166Y-103684724D01*
X194650290Y-103699042D01*
X194651000Y-103713500D01*
X194651000Y-104058500D01*
X194650290Y-104072958D01*
X194648166Y-104087276D01*
X194644649Y-104101317D01*
X194639772Y-104114946D01*
X194633583Y-104128031D01*
X194626142Y-104140447D01*
X194617519Y-104152073D01*
X194607798Y-104162798D01*
X194597073Y-104172519D01*
X194585447Y-104181142D01*
X194573031Y-104188583D01*
X194559946Y-104194772D01*
X194546317Y-104199649D01*
X194532276Y-104203166D01*
X194517958Y-104205290D01*
X194503500Y-104206000D01*
X194208500Y-104206000D01*
X194194042Y-104205290D01*
X194179724Y-104203166D01*
X194165683Y-104199649D01*
X194152054Y-104194772D01*
X194138969Y-104188583D01*
X194126553Y-104181142D01*
X194114927Y-104172519D01*
X194104202Y-104162798D01*
X194094481Y-104152073D01*
X194085858Y-104140447D01*
X194078417Y-104128031D01*
X194072228Y-104114946D01*
X194067351Y-104101317D01*
X194063834Y-104087276D01*
X194061710Y-104072958D01*
X194061000Y-104058500D01*
X194061000Y-103713500D01*
X194061710Y-103699042D01*
X194063834Y-103684724D01*
X194067351Y-103670683D01*
X194072228Y-103657054D01*
X194078417Y-103643969D01*
X194085858Y-103631553D01*
X194094481Y-103619927D01*
X194104202Y-103609202D01*
X194114927Y-103599481D01*
X194126553Y-103590858D01*
X194138969Y-103583417D01*
X194152054Y-103577228D01*
X194165683Y-103572351D01*
X194179724Y-103568834D01*
X194194042Y-103566710D01*
X194208500Y-103566000D01*
X194503500Y-103566000D01*
X194517958Y-103566710D01*
X194517958Y-103566710D01*
G37*
D11*
X194356000Y-103886000D03*
D12*
X215392000Y-100330000D03*
X215392000Y-102870000D03*
X215392000Y-105410000D03*
X215392000Y-107950000D03*
X215392000Y-110490000D03*
X215392000Y-113030000D03*
D10*
G36*
X173414958Y-117203710D02*
G01*
X173429276Y-117205834D01*
X173443317Y-117209351D01*
X173456946Y-117214228D01*
X173470031Y-117220417D01*
X173482447Y-117227858D01*
X173494073Y-117236481D01*
X173504798Y-117246202D01*
X173514519Y-117256927D01*
X173523142Y-117268553D01*
X173530583Y-117280969D01*
X173536772Y-117294054D01*
X173541649Y-117307683D01*
X173545166Y-117321724D01*
X173547290Y-117336042D01*
X173548000Y-117350500D01*
X173548000Y-117645500D01*
X173547290Y-117659958D01*
X173545166Y-117674276D01*
X173541649Y-117688317D01*
X173536772Y-117701946D01*
X173530583Y-117715031D01*
X173523142Y-117727447D01*
X173514519Y-117739073D01*
X173504798Y-117749798D01*
X173494073Y-117759519D01*
X173482447Y-117768142D01*
X173470031Y-117775583D01*
X173456946Y-117781772D01*
X173443317Y-117786649D01*
X173429276Y-117790166D01*
X173414958Y-117792290D01*
X173400500Y-117793000D01*
X173055500Y-117793000D01*
X173041042Y-117792290D01*
X173026724Y-117790166D01*
X173012683Y-117786649D01*
X172999054Y-117781772D01*
X172985969Y-117775583D01*
X172973553Y-117768142D01*
X172961927Y-117759519D01*
X172951202Y-117749798D01*
X172941481Y-117739073D01*
X172932858Y-117727447D01*
X172925417Y-117715031D01*
X172919228Y-117701946D01*
X172914351Y-117688317D01*
X172910834Y-117674276D01*
X172908710Y-117659958D01*
X172908000Y-117645500D01*
X172908000Y-117350500D01*
X172908710Y-117336042D01*
X172910834Y-117321724D01*
X172914351Y-117307683D01*
X172919228Y-117294054D01*
X172925417Y-117280969D01*
X172932858Y-117268553D01*
X172941481Y-117256927D01*
X172951202Y-117246202D01*
X172961927Y-117236481D01*
X172973553Y-117227858D01*
X172985969Y-117220417D01*
X172999054Y-117214228D01*
X173012683Y-117209351D01*
X173026724Y-117205834D01*
X173041042Y-117203710D01*
X173055500Y-117203000D01*
X173400500Y-117203000D01*
X173414958Y-117203710D01*
X173414958Y-117203710D01*
G37*
D11*
X173228000Y-117498000D03*
D10*
G36*
X173414958Y-118173710D02*
G01*
X173429276Y-118175834D01*
X173443317Y-118179351D01*
X173456946Y-118184228D01*
X173470031Y-118190417D01*
X173482447Y-118197858D01*
X173494073Y-118206481D01*
X173504798Y-118216202D01*
X173514519Y-118226927D01*
X173523142Y-118238553D01*
X173530583Y-118250969D01*
X173536772Y-118264054D01*
X173541649Y-118277683D01*
X173545166Y-118291724D01*
X173547290Y-118306042D01*
X173548000Y-118320500D01*
X173548000Y-118615500D01*
X173547290Y-118629958D01*
X173545166Y-118644276D01*
X173541649Y-118658317D01*
X173536772Y-118671946D01*
X173530583Y-118685031D01*
X173523142Y-118697447D01*
X173514519Y-118709073D01*
X173504798Y-118719798D01*
X173494073Y-118729519D01*
X173482447Y-118738142D01*
X173470031Y-118745583D01*
X173456946Y-118751772D01*
X173443317Y-118756649D01*
X173429276Y-118760166D01*
X173414958Y-118762290D01*
X173400500Y-118763000D01*
X173055500Y-118763000D01*
X173041042Y-118762290D01*
X173026724Y-118760166D01*
X173012683Y-118756649D01*
X172999054Y-118751772D01*
X172985969Y-118745583D01*
X172973553Y-118738142D01*
X172961927Y-118729519D01*
X172951202Y-118719798D01*
X172941481Y-118709073D01*
X172932858Y-118697447D01*
X172925417Y-118685031D01*
X172919228Y-118671946D01*
X172914351Y-118658317D01*
X172910834Y-118644276D01*
X172908710Y-118629958D01*
X172908000Y-118615500D01*
X172908000Y-118320500D01*
X172908710Y-118306042D01*
X172910834Y-118291724D01*
X172914351Y-118277683D01*
X172919228Y-118264054D01*
X172925417Y-118250969D01*
X172932858Y-118238553D01*
X172941481Y-118226927D01*
X172951202Y-118216202D01*
X172961927Y-118206481D01*
X172973553Y-118197858D01*
X172985969Y-118190417D01*
X172999054Y-118184228D01*
X173012683Y-118179351D01*
X173026724Y-118175834D01*
X173041042Y-118173710D01*
X173055500Y-118173000D01*
X173400500Y-118173000D01*
X173414958Y-118173710D01*
X173414958Y-118173710D01*
G37*
D11*
X173228000Y-118468000D03*
D12*
X215392000Y-95250000D03*
X215392000Y-97790000D03*
M02*
