G04 #@! TF.GenerationSoftware,KiCad,Pcbnew,(5.1.4-0-10_14)*
G04 #@! TF.CreationDate,2020-03-30T10:54:37+02:00*
G04 #@! TF.ProjectId,kapukiTRX-hw-trx,6b617075-6b69-4545-9258-2d68772d7472,rev?*
G04 #@! TF.SameCoordinates,Original*
G04 #@! TF.FileFunction,Legend,Top*
G04 #@! TF.FilePolarity,Positive*
%FSLAX46Y46*%
G04 Gerber Fmt 4.6, Leading zero omitted, Abs format (unit mm)*
G04 Created by KiCad (PCBNEW (5.1.4-0-10_14)) date 2020-03-30 10:54:37*
%MOMM*%
%LPD*%
G04 APERTURE LIST*
%ADD10C,0.120000*%
%ADD11C,0.150000*%
%ADD12C,0.200000*%
%ADD13C,0.100000*%
G04 APERTURE END LIST*
D10*
X178237796Y-98323400D02*
G75*
G03X178237796Y-98323400I-56796J0D01*
G01*
D11*
X193778904Y-115006380D02*
X193778904Y-114006380D01*
X193874142Y-114625428D02*
X194159857Y-115006380D01*
X194159857Y-114339714D02*
X193778904Y-114720666D01*
X195017000Y-115006380D02*
X195017000Y-114482571D01*
X194969380Y-114387333D01*
X194874142Y-114339714D01*
X194683666Y-114339714D01*
X194588428Y-114387333D01*
X195017000Y-114958761D02*
X194921761Y-115006380D01*
X194683666Y-115006380D01*
X194588428Y-114958761D01*
X194540809Y-114863523D01*
X194540809Y-114768285D01*
X194588428Y-114673047D01*
X194683666Y-114625428D01*
X194921761Y-114625428D01*
X195017000Y-114577809D01*
X195493190Y-114339714D02*
X195493190Y-115339714D01*
X195493190Y-114387333D02*
X195588428Y-114339714D01*
X195778904Y-114339714D01*
X195874142Y-114387333D01*
X195921761Y-114434952D01*
X195969380Y-114530190D01*
X195969380Y-114815904D01*
X195921761Y-114911142D01*
X195874142Y-114958761D01*
X195778904Y-115006380D01*
X195588428Y-115006380D01*
X195493190Y-114958761D01*
X196826523Y-114339714D02*
X196826523Y-115006380D01*
X196397952Y-114339714D02*
X196397952Y-114863523D01*
X196445571Y-114958761D01*
X196540809Y-115006380D01*
X196683666Y-115006380D01*
X196778904Y-114958761D01*
X196826523Y-114911142D01*
X197302714Y-115006380D02*
X197302714Y-114006380D01*
X197397952Y-114625428D02*
X197683666Y-115006380D01*
X197683666Y-114339714D02*
X197302714Y-114720666D01*
X198112238Y-115006380D02*
X198112238Y-114339714D01*
X198112238Y-114006380D02*
X198064619Y-114054000D01*
X198112238Y-114101619D01*
X198159857Y-114054000D01*
X198112238Y-114006380D01*
X198112238Y-114101619D01*
X198445571Y-114006380D02*
X199017000Y-114006380D01*
X198731285Y-115006380D02*
X198731285Y-114006380D01*
X199921761Y-115006380D02*
X199588428Y-114530190D01*
X199350333Y-115006380D02*
X199350333Y-114006380D01*
X199731285Y-114006380D01*
X199826523Y-114054000D01*
X199874142Y-114101619D01*
X199921761Y-114196857D01*
X199921761Y-114339714D01*
X199874142Y-114434952D01*
X199826523Y-114482571D01*
X199731285Y-114530190D01*
X199350333Y-114530190D01*
X200255095Y-114006380D02*
X200921761Y-115006380D01*
X200921761Y-114006380D02*
X200255095Y-115006380D01*
X202064619Y-115006380D02*
X202064619Y-114339714D01*
X202064619Y-114530190D02*
X202112238Y-114434952D01*
X202159857Y-114387333D01*
X202255095Y-114339714D01*
X202350333Y-114339714D01*
X203064619Y-114958761D02*
X202969380Y-115006380D01*
X202778904Y-115006380D01*
X202683666Y-114958761D01*
X202636047Y-114863523D01*
X202636047Y-114482571D01*
X202683666Y-114387333D01*
X202778904Y-114339714D01*
X202969380Y-114339714D01*
X203064619Y-114387333D01*
X203112238Y-114482571D01*
X203112238Y-114577809D01*
X202636047Y-114673047D01*
X203445571Y-114339714D02*
X203683666Y-115006380D01*
X203921761Y-114339714D01*
X204302714Y-114911142D02*
X204350333Y-114958761D01*
X204302714Y-115006380D01*
X204255095Y-114958761D01*
X204302714Y-114911142D01*
X204302714Y-115006380D01*
X205207476Y-114339714D02*
X205207476Y-115006380D01*
X204969380Y-113958761D02*
X204731285Y-114673047D01*
X205350333Y-114673047D01*
X172529714Y-120197619D02*
X172577333Y-120150000D01*
X172672571Y-120102380D01*
X172910666Y-120102380D01*
X173005904Y-120150000D01*
X173053523Y-120197619D01*
X173101142Y-120292857D01*
X173101142Y-120388095D01*
X173053523Y-120530952D01*
X172482095Y-121102380D01*
X173101142Y-121102380D01*
X173720190Y-120102380D02*
X173815428Y-120102380D01*
X173910666Y-120150000D01*
X173958285Y-120197619D01*
X174005904Y-120292857D01*
X174053523Y-120483333D01*
X174053523Y-120721428D01*
X174005904Y-120911904D01*
X173958285Y-121007142D01*
X173910666Y-121054761D01*
X173815428Y-121102380D01*
X173720190Y-121102380D01*
X173624952Y-121054761D01*
X173577333Y-121007142D01*
X173529714Y-120911904D01*
X173482095Y-120721428D01*
X173482095Y-120483333D01*
X173529714Y-120292857D01*
X173577333Y-120197619D01*
X173624952Y-120150000D01*
X173720190Y-120102380D01*
X175005904Y-121102380D02*
X174434476Y-121102380D01*
X174720190Y-121102380D02*
X174720190Y-120102380D01*
X174624952Y-120245238D01*
X174529714Y-120340476D01*
X174434476Y-120388095D01*
X175863047Y-120435714D02*
X175863047Y-121102380D01*
X175624952Y-120054761D02*
X175386857Y-120769047D01*
X176005904Y-120769047D01*
X193722714Y-120150000D02*
X193627476Y-120102380D01*
X193484619Y-120102380D01*
X193341761Y-120150000D01*
X193246523Y-120245238D01*
X193198904Y-120340476D01*
X193151285Y-120530952D01*
X193151285Y-120673809D01*
X193198904Y-120864285D01*
X193246523Y-120959523D01*
X193341761Y-121054761D01*
X193484619Y-121102380D01*
X193579857Y-121102380D01*
X193722714Y-121054761D01*
X193770333Y-121007142D01*
X193770333Y-120673809D01*
X193579857Y-120673809D01*
X194198904Y-121102380D02*
X194198904Y-120102380D01*
X194579857Y-120102380D01*
X194675095Y-120150000D01*
X194722714Y-120197619D01*
X194770333Y-120292857D01*
X194770333Y-120435714D01*
X194722714Y-120530952D01*
X194675095Y-120578571D01*
X194579857Y-120626190D01*
X194198904Y-120626190D01*
X195151285Y-121054761D02*
X195294142Y-121102380D01*
X195532238Y-121102380D01*
X195627476Y-121054761D01*
X195675095Y-121007142D01*
X195722714Y-120911904D01*
X195722714Y-120816666D01*
X195675095Y-120721428D01*
X195627476Y-120673809D01*
X195532238Y-120626190D01*
X195341761Y-120578571D01*
X195246523Y-120530952D01*
X195198904Y-120483333D01*
X195151285Y-120388095D01*
X195151285Y-120292857D01*
X195198904Y-120197619D01*
X195246523Y-120150000D01*
X195341761Y-120102380D01*
X195579857Y-120102380D01*
X195722714Y-120150000D01*
X173220142Y-114022142D02*
X173172523Y-114069761D01*
X173029666Y-114117380D01*
X172934428Y-114117380D01*
X172791571Y-114069761D01*
X172696333Y-113974523D01*
X172648714Y-113879285D01*
X172601095Y-113688809D01*
X172601095Y-113545952D01*
X172648714Y-113355476D01*
X172696333Y-113260238D01*
X172791571Y-113165000D01*
X172934428Y-113117380D01*
X173029666Y-113117380D01*
X173172523Y-113165000D01*
X173220142Y-113212619D01*
X173601095Y-113831666D02*
X174077285Y-113831666D01*
X173505857Y-114117380D02*
X173839190Y-113117380D01*
X174172523Y-114117380D01*
X174505857Y-114117380D02*
X174505857Y-113117380D01*
X175077285Y-114117380D01*
X175077285Y-113117380D01*
X172632857Y-104798761D02*
X172775714Y-104846380D01*
X173013809Y-104846380D01*
X173109047Y-104798761D01*
X173156666Y-104751142D01*
X173204285Y-104655904D01*
X173204285Y-104560666D01*
X173156666Y-104465428D01*
X173109047Y-104417809D01*
X173013809Y-104370190D01*
X172823333Y-104322571D01*
X172728095Y-104274952D01*
X172680476Y-104227333D01*
X172632857Y-104132095D01*
X172632857Y-104036857D01*
X172680476Y-103941619D01*
X172728095Y-103894000D01*
X172823333Y-103846380D01*
X173061428Y-103846380D01*
X173204285Y-103894000D01*
X173537619Y-103846380D02*
X173775714Y-104846380D01*
X173966190Y-104132095D01*
X174156666Y-104846380D01*
X174394761Y-103846380D01*
X174775714Y-104846380D02*
X174775714Y-103846380D01*
X175013809Y-103846380D01*
X175156666Y-103894000D01*
X175251904Y-103989238D01*
X175299523Y-104084476D01*
X175347142Y-104274952D01*
X175347142Y-104417809D01*
X175299523Y-104608285D01*
X175251904Y-104703523D01*
X175156666Y-104798761D01*
X175013809Y-104846380D01*
X174775714Y-104846380D01*
X191725196Y-115163600D02*
G75*
G03X191725196Y-115163600I-56796J0D01*
G01*
X191421000Y-117761000D02*
X191421000Y-115411000D01*
X189071000Y-117761000D02*
X191421000Y-117761000D01*
X189071000Y-115411000D02*
X189071000Y-117761000D01*
X191421000Y-115411000D02*
X189071000Y-115411000D01*
D10*
X180214400Y-96540600D02*
X184124400Y-96540600D01*
X180214400Y-94670600D02*
X180214400Y-96540600D01*
X184124400Y-94670600D02*
X180214400Y-94670600D01*
D12*
X189521000Y-95695000D02*
G75*
G03X189521000Y-95695000I-100000J0D01*
G01*
D10*
X189301000Y-96695000D02*
X189301000Y-97575000D01*
X190421000Y-95575000D02*
X189301000Y-96695000D01*
X191301000Y-95575000D02*
X190421000Y-95575000D01*
X189301000Y-103815000D02*
X189301000Y-101815000D01*
X191301000Y-103815000D02*
X189301000Y-103815000D01*
X197541000Y-95575000D02*
X197541000Y-97575000D01*
X195541000Y-95575000D02*
X197541000Y-95575000D01*
X197541000Y-103815000D02*
X197541000Y-101815000D01*
X195541000Y-103815000D02*
X197541000Y-103815000D01*
X197541000Y-95575000D02*
X197541000Y-97575000D01*
X195541000Y-95575000D02*
X197541000Y-95575000D01*
X197541000Y-95575000D02*
X197541000Y-97575000D01*
X195541000Y-95575000D02*
X197541000Y-95575000D01*
X190182600Y-107816800D02*
X190182600Y-110216800D01*
X191782600Y-107816800D02*
X190182600Y-107816800D01*
X191782600Y-110216800D02*
X191782600Y-107816800D01*
X196320000Y-110660000D02*
X196320000Y-110400000D01*
X196320000Y-110660000D02*
X196060000Y-110660000D01*
X192300000Y-110660000D02*
X192300000Y-110400000D01*
X196320000Y-105240000D02*
X196320000Y-105500000D01*
X196320000Y-105240000D02*
X196060000Y-105240000D01*
X192300000Y-105240000D02*
X192300000Y-105500000D01*
X192300000Y-105240000D02*
X192560000Y-105240000D01*
X182154000Y-111011000D02*
X182414000Y-111011000D01*
X179034000Y-108041000D02*
X179034000Y-108191000D01*
X182154000Y-108041000D02*
X179034000Y-108041000D01*
X182154000Y-111161000D02*
X179034000Y-111161000D01*
X182154000Y-108041000D02*
X182154000Y-108191000D01*
X182154000Y-111161000D02*
X182154000Y-111011000D01*
X179034000Y-111161000D02*
X179034000Y-111011000D01*
D11*
X179245000Y-114682000D02*
X182000000Y-114682000D01*
X179950000Y-117982000D02*
X182000000Y-117982000D01*
D10*
X186279000Y-100050400D02*
X188879000Y-100050400D01*
X188879000Y-100050400D02*
X188879000Y-96850400D01*
X208488000Y-96877000D02*
X208488000Y-100787000D01*
X210358000Y-96877000D02*
X208488000Y-96877000D01*
X210358000Y-100787000D02*
X210358000Y-96877000D01*
X186863000Y-112090000D02*
X186863000Y-108180000D01*
X186863000Y-108180000D02*
X184993000Y-108180000D01*
X184993000Y-108180000D02*
X184993000Y-112090000D01*
X179375000Y-120696000D02*
X183285000Y-120696000D01*
X183285000Y-120696000D02*
X183285000Y-118826000D01*
X183285000Y-118826000D02*
X179375000Y-118826000D01*
D11*
X177888200Y-99390200D02*
X179388200Y-99390200D01*
X178638200Y-98640200D02*
X178638200Y-100140200D01*
D13*
X177545000Y-96139000D02*
G75*
G03X177545000Y-96139000I-50000J0D01*
G01*
D11*
X205946000Y-99440000D02*
X203191000Y-99440000D01*
X205241000Y-96140000D02*
X203191000Y-96140000D01*
D13*
X204267000Y-103561000D02*
X203967000Y-103561000D01*
X203967000Y-103561000D02*
X203667000Y-103861000D01*
X203667000Y-103861000D02*
X203067000Y-103861000D01*
X203467000Y-110561000D02*
X203467000Y-110261000D01*
X203467000Y-110561000D02*
X203767000Y-110561000D01*
X208267000Y-103861000D02*
X208267000Y-103561000D01*
X208267000Y-103561000D02*
X207967000Y-103561000D01*
X208267000Y-110261000D02*
X208267000Y-110561000D01*
X208267000Y-110561000D02*
X207967000Y-110561000D01*
D11*
X182128000Y-106044000D02*
X184178000Y-106044000D01*
X181423000Y-102744000D02*
X184178000Y-102744000D01*
D10*
X205151000Y-119293000D02*
X205151000Y-118143000D01*
X205151000Y-118143000D02*
X204101000Y-118143000D01*
X204101000Y-118143000D02*
X204101000Y-117153000D01*
X196931000Y-119293000D02*
X196931000Y-118143000D01*
X196931000Y-118143000D02*
X197981000Y-118143000D01*
X203981000Y-121263000D02*
X198101000Y-121263000D01*
X174026200Y-102670000D02*
X175176200Y-102670000D01*
X175176200Y-102670000D02*
X175176200Y-101620000D01*
X175176200Y-101620000D02*
X176166200Y-101620000D01*
X174026200Y-95450000D02*
X175176200Y-95450000D01*
X175176200Y-95450000D02*
X175176200Y-96500000D01*
X172056200Y-101500000D02*
X172056200Y-96620000D01*
X214062000Y-117535000D02*
X216722000Y-117535000D01*
X214062000Y-117475000D02*
X214062000Y-117535000D01*
X216722000Y-117475000D02*
X216722000Y-117535000D01*
X214062000Y-117475000D02*
X216722000Y-117475000D01*
X214062000Y-116205000D02*
X214062000Y-114875000D01*
X214062000Y-114875000D02*
X215392000Y-114875000D01*
X173950000Y-111830000D02*
X175100000Y-111830000D01*
X175100000Y-111830000D02*
X175100000Y-110780000D01*
X175100000Y-110780000D02*
X176090000Y-110780000D01*
X173950000Y-106610000D02*
X175100000Y-106610000D01*
X175100000Y-106610000D02*
X175100000Y-107660000D01*
X171980000Y-110660000D02*
X171980000Y-107780000D01*
M02*
