M48
INCH,TZ
T1C0.0100
T2C0.0130
T3C0.0394
%
G90
G05
T1
X68270Y-39390
X68510Y-38600
X69550Y-38250
X70100Y-38150
X70250Y-46450
X70500Y-43810
X70720Y-46460
X71698Y-43788
X71953Y-42543
X72005Y-43345
X72550Y-39050
X72577Y-42895
X73300Y-42100
X73594Y-39411
X73660Y-41570
X73700Y-40410
X74000Y-41040
X74270Y-40930
X74410Y-39870
X74470Y-40350
X74470Y-40670
X74470Y-41080
X74490Y-39280
X74490Y-39590
X74694Y-41795
X74890Y-38300
X74954Y-40982
X75086Y-41170
X75210Y-40200
X75232Y-40934
X75418Y-45460
X75480Y-46100
X75517Y-41338
X75520Y-37980
X75520Y-38300
X75520Y-38620
X75520Y-39570
X75520Y-40190
X75540Y-39860
X75550Y-41100
X75830Y-46320
X75849Y-40499
X75991Y-43659
X76023Y-41386
X76050Y-42600
X76149Y-38305
X76150Y-39568
X76151Y-38621
X76186Y-42195
X76321Y-41943
X76350Y-37290
X76470Y-40190
X76500Y-41200
X76500Y-43000
X76770Y-38310
X76780Y-38617
X76780Y-37992
X76780Y-40190
X76780Y-40510
X76783Y-39565
X76811Y-41770
X76864Y-42076
X76900Y-41200
X77001Y-43496
X77075Y-38320
X77090Y-38620
X77090Y-39560
X77090Y-39880
X77095Y-38932
X77170Y-40950
X77410Y-38300
X77410Y-40190
X77410Y-40510
X77550Y-41950
X78030Y-39730
X78030Y-40040
X78030Y-40340
X78030Y-40660
X78110Y-42420
X78120Y-42710
X78580Y-37500
X78780Y-43400
X78940Y-42500
X78960Y-42840
X78970Y-42210
X79270Y-37760
X80320Y-39700
X80450Y-41250
X80550Y-38300
X81030Y-43880
X81040Y-40510
X81040Y-40950
X83680Y-47490
X84100Y-45000
T2
X68449Y-46249
X68550Y-39000
X69450Y-42200
X69650Y-43750
X69800Y-39800
X70450Y-40350
X71100Y-45600
X71100Y-46000
X71250Y-40750
X71250Y-45172
X71320Y-38050
X71340Y-37205
X71400Y-45600
X71400Y-46000
X71550Y-45172
X71778Y-46678
X71950Y-40850
X71950Y-41300
X72250Y-40850
X72250Y-41300
X72250Y-46400
X72400Y-37220
X72700Y-44050
X73198Y-39370
X74092Y-45338
X74100Y-46300
X74100Y-46800
X74106Y-38084
X74589Y-42481
X74659Y-37224
X75544Y-46567
X76178Y-38968
X76181Y-39219
X76430Y-38970
X76438Y-39216
X77009Y-46191
X79500Y-43700
X79550Y-38500
X79750Y-46950
X80150Y-45950
X80230Y-44210
X80250Y-38300
X80250Y-38700
X80550Y-38700
X81201Y-38499
X81650Y-41167
X81850Y-38400
X81850Y-38646
X82150Y-43550
X82450Y-40000
X83950Y-46700
X84000Y-38100
X84000Y-39050
X84000Y-40050
X84000Y-41100
X84000Y-42100
X84100Y-43000
X84100Y-44000
X84500Y-44000
X84800Y-44000
T3
X84800Y-45750
T0
M30
