G04 #@! TF.GenerationSoftware,KiCad,Pcbnew,(5.1.4-0-10_14)*
G04 #@! TF.CreationDate,2020-03-30T10:54:37+02:00*
G04 #@! TF.ProjectId,kapukiTRX-hw-trx,6b617075-6b69-4545-9258-2d68772d7472,rev?*
G04 #@! TF.SameCoordinates,Original*
G04 #@! TF.FileFunction,Soldermask,Bot*
G04 #@! TF.FilePolarity,Negative*
%FSLAX46Y46*%
G04 Gerber Fmt 4.6, Leading zero omitted, Abs format (unit mm)*
G04 Created by KiCad (PCBNEW (5.1.4-0-10_14)) date 2020-03-30 10:54:37*
%MOMM*%
%LPD*%
G04 APERTURE LIST*
%ADD10C,0.100000*%
G04 APERTURE END LIST*
D10*
G36*
X216815800Y-121200800D02*
G01*
X213714200Y-121200800D01*
X213714200Y-120099200D01*
X216815800Y-120099200D01*
X216815800Y-121200800D01*
X216815800Y-121200800D01*
G37*
G36*
X213013800Y-118995940D02*
G01*
X210912200Y-118995940D01*
X210912200Y-118194340D01*
X213013800Y-118194340D01*
X213013800Y-118995940D01*
X213013800Y-118995940D01*
G37*
G36*
X198012560Y-118995940D02*
G01*
X195910960Y-118995940D01*
X195910960Y-118194340D01*
X198012560Y-118194340D01*
X198012560Y-118995940D01*
X198012560Y-118995940D01*
G37*
G36*
X191312040Y-118995940D02*
G01*
X189210440Y-118995940D01*
X189210440Y-118194340D01*
X191312040Y-118194340D01*
X191312040Y-118995940D01*
X191312040Y-118995940D01*
G37*
G36*
X176310800Y-118995940D02*
G01*
X174209200Y-118995940D01*
X174209200Y-118194340D01*
X176310800Y-118194340D01*
X176310800Y-118995940D01*
X176310800Y-118995940D01*
G37*
G36*
X173480027Y-118125275D02*
G01*
X173507650Y-118133654D01*
X173533113Y-118147264D01*
X173555425Y-118165575D01*
X173573736Y-118187887D01*
X173587346Y-118213350D01*
X173595725Y-118240973D01*
X173598800Y-118272191D01*
X173598800Y-118663809D01*
X173595725Y-118695027D01*
X173587346Y-118722650D01*
X173573736Y-118748113D01*
X173555425Y-118770425D01*
X173533113Y-118788736D01*
X173507650Y-118802346D01*
X173480027Y-118810725D01*
X173448809Y-118813800D01*
X173007191Y-118813800D01*
X172975973Y-118810725D01*
X172948350Y-118802346D01*
X172922887Y-118788736D01*
X172900575Y-118770425D01*
X172882264Y-118748113D01*
X172868654Y-118722650D01*
X172860275Y-118695027D01*
X172857200Y-118663809D01*
X172857200Y-118272191D01*
X172860275Y-118240973D01*
X172868654Y-118213350D01*
X172882264Y-118187887D01*
X172900575Y-118165575D01*
X172922887Y-118147264D01*
X172948350Y-118133654D01*
X172975973Y-118125275D01*
X173007191Y-118122200D01*
X173448809Y-118122200D01*
X173480027Y-118125275D01*
X173480027Y-118125275D01*
G37*
G36*
X195197027Y-118102275D02*
G01*
X195224650Y-118110654D01*
X195250113Y-118124264D01*
X195272425Y-118142575D01*
X195290736Y-118164887D01*
X195304346Y-118190350D01*
X195312725Y-118217973D01*
X195315800Y-118249191D01*
X195315800Y-118640809D01*
X195312725Y-118672027D01*
X195304346Y-118699650D01*
X195290736Y-118725113D01*
X195272425Y-118747425D01*
X195250113Y-118765736D01*
X195224650Y-118779346D01*
X195197027Y-118787725D01*
X195165809Y-118790800D01*
X194724191Y-118790800D01*
X194692973Y-118787725D01*
X194665350Y-118779346D01*
X194639887Y-118765736D01*
X194617575Y-118747425D01*
X194599264Y-118725113D01*
X194585654Y-118699650D01*
X194577275Y-118672027D01*
X194574200Y-118640809D01*
X194574200Y-118249191D01*
X194577275Y-118217973D01*
X194585654Y-118190350D01*
X194599264Y-118164887D01*
X194617575Y-118142575D01*
X194639887Y-118124264D01*
X194665350Y-118110654D01*
X194692973Y-118102275D01*
X194724191Y-118099200D01*
X195165809Y-118099200D01*
X195197027Y-118102275D01*
X195197027Y-118102275D01*
G37*
G36*
X173480027Y-117155275D02*
G01*
X173507650Y-117163654D01*
X173533113Y-117177264D01*
X173555425Y-117195575D01*
X173573736Y-117217887D01*
X173587346Y-117243350D01*
X173595725Y-117270973D01*
X173598800Y-117302191D01*
X173598800Y-117693809D01*
X173595725Y-117725027D01*
X173587346Y-117752650D01*
X173573736Y-117778113D01*
X173555425Y-117800425D01*
X173533113Y-117818736D01*
X173507650Y-117832346D01*
X173480027Y-117840725D01*
X173448809Y-117843800D01*
X173007191Y-117843800D01*
X172975973Y-117840725D01*
X172948350Y-117832346D01*
X172922887Y-117818736D01*
X172900575Y-117800425D01*
X172882264Y-117778113D01*
X172868654Y-117752650D01*
X172860275Y-117725027D01*
X172857200Y-117693809D01*
X172857200Y-117302191D01*
X172860275Y-117270973D01*
X172868654Y-117243350D01*
X172882264Y-117217887D01*
X172900575Y-117195575D01*
X172922887Y-117177264D01*
X172948350Y-117163654D01*
X172975973Y-117155275D01*
X173007191Y-117152200D01*
X173448809Y-117152200D01*
X173480027Y-117155275D01*
X173480027Y-117155275D01*
G37*
G36*
X195197027Y-117132275D02*
G01*
X195224650Y-117140654D01*
X195250113Y-117154264D01*
X195272425Y-117172575D01*
X195290736Y-117194887D01*
X195304346Y-117220350D01*
X195312725Y-117247973D01*
X195315800Y-117279191D01*
X195315800Y-117670809D01*
X195312725Y-117702027D01*
X195304346Y-117729650D01*
X195290736Y-117755113D01*
X195272425Y-117777425D01*
X195250113Y-117795736D01*
X195224650Y-117809346D01*
X195197027Y-117817725D01*
X195165809Y-117820800D01*
X194724191Y-117820800D01*
X194692973Y-117817725D01*
X194665350Y-117809346D01*
X194639887Y-117795736D01*
X194617575Y-117777425D01*
X194599264Y-117755113D01*
X194585654Y-117729650D01*
X194577275Y-117702027D01*
X194574200Y-117670809D01*
X194574200Y-117279191D01*
X194577275Y-117247973D01*
X194585654Y-117220350D01*
X194599264Y-117194887D01*
X194617575Y-117172575D01*
X194639887Y-117154264D01*
X194665350Y-117140654D01*
X194692973Y-117132275D01*
X194724191Y-117129200D01*
X195165809Y-117129200D01*
X195197027Y-117132275D01*
X195197027Y-117132275D01*
G37*
G36*
X213013800Y-117725940D02*
G01*
X210912200Y-117725940D01*
X210912200Y-116924340D01*
X213013800Y-116924340D01*
X213013800Y-117725940D01*
X213013800Y-117725940D01*
G37*
G36*
X198012560Y-117725940D02*
G01*
X195910960Y-117725940D01*
X195910960Y-116924340D01*
X198012560Y-116924340D01*
X198012560Y-117725940D01*
X198012560Y-117725940D01*
G37*
G36*
X191312040Y-117725940D02*
G01*
X189210440Y-117725940D01*
X189210440Y-116924340D01*
X191312040Y-116924340D01*
X191312040Y-117725940D01*
X191312040Y-117725940D01*
G37*
G36*
X176310800Y-117725940D02*
G01*
X174209200Y-117725940D01*
X174209200Y-116924340D01*
X176310800Y-116924340D01*
X176310800Y-117725940D01*
X176310800Y-117725940D01*
G37*
G36*
X216292800Y-117105800D02*
G01*
X214491200Y-117105800D01*
X214491200Y-115304200D01*
X216292800Y-115304200D01*
X216292800Y-117105800D01*
X216292800Y-117105800D01*
G37*
G36*
X213013800Y-116455940D02*
G01*
X210912200Y-116455940D01*
X210912200Y-115654340D01*
X213013800Y-115654340D01*
X213013800Y-116455940D01*
X213013800Y-116455940D01*
G37*
G36*
X198012560Y-116455940D02*
G01*
X195910960Y-116455940D01*
X195910960Y-115654340D01*
X198012560Y-115654340D01*
X198012560Y-116455940D01*
X198012560Y-116455940D01*
G37*
G36*
X191312040Y-116455940D02*
G01*
X189210440Y-116455940D01*
X189210440Y-115654340D01*
X191312040Y-115654340D01*
X191312040Y-116455940D01*
X191312040Y-116455940D01*
G37*
G36*
X176310800Y-116455940D02*
G01*
X174209200Y-116455940D01*
X174209200Y-115654340D01*
X176310800Y-115654340D01*
X176310800Y-116455940D01*
X176310800Y-116455940D01*
G37*
G36*
X213013800Y-115185940D02*
G01*
X210912200Y-115185940D01*
X210912200Y-114384340D01*
X213013800Y-114384340D01*
X213013800Y-115185940D01*
X213013800Y-115185940D01*
G37*
G36*
X176310800Y-115185940D02*
G01*
X174209200Y-115185940D01*
X174209200Y-114384340D01*
X176310800Y-114384340D01*
X176310800Y-115185940D01*
X176310800Y-115185940D01*
G37*
G36*
X191312040Y-115185940D02*
G01*
X189210440Y-115185940D01*
X189210440Y-114384340D01*
X191312040Y-114384340D01*
X191312040Y-115185940D01*
X191312040Y-115185940D01*
G37*
G36*
X198012560Y-115185940D02*
G01*
X195910960Y-115185940D01*
X195910960Y-114384340D01*
X198012560Y-114384340D01*
X198012560Y-115185940D01*
X198012560Y-115185940D01*
G37*
G36*
X176310800Y-113915940D02*
G01*
X174209200Y-113915940D01*
X174209200Y-113114340D01*
X176310800Y-113114340D01*
X176310800Y-113915940D01*
X176310800Y-113915940D01*
G37*
G36*
X191312040Y-113915940D02*
G01*
X189210440Y-113915940D01*
X189210440Y-113114340D01*
X191312040Y-113114340D01*
X191312040Y-113915940D01*
X191312040Y-113915940D01*
G37*
G36*
X213013800Y-113915940D02*
G01*
X210912200Y-113915940D01*
X210912200Y-113114340D01*
X213013800Y-113114340D01*
X213013800Y-113915940D01*
X213013800Y-113915940D01*
G37*
G36*
X198012560Y-113915940D02*
G01*
X195910960Y-113915940D01*
X195910960Y-113114340D01*
X198012560Y-113114340D01*
X198012560Y-113915940D01*
X198012560Y-113915940D01*
G37*
G36*
X216942800Y-113580800D02*
G01*
X213841200Y-113580800D01*
X213841200Y-112479200D01*
X216942800Y-112479200D01*
X216942800Y-113580800D01*
X216942800Y-113580800D01*
G37*
G36*
X213013800Y-112645940D02*
G01*
X210912200Y-112645940D01*
X210912200Y-111844340D01*
X213013800Y-111844340D01*
X213013800Y-112645940D01*
X213013800Y-112645940D01*
G37*
G36*
X191312040Y-112645940D02*
G01*
X189210440Y-112645940D01*
X189210440Y-111844340D01*
X191312040Y-111844340D01*
X191312040Y-112645940D01*
X191312040Y-112645940D01*
G37*
G36*
X198012560Y-112645940D02*
G01*
X195910960Y-112645940D01*
X195910960Y-111844340D01*
X198012560Y-111844340D01*
X198012560Y-112645940D01*
X198012560Y-112645940D01*
G37*
G36*
X176310800Y-112645940D02*
G01*
X174209200Y-112645940D01*
X174209200Y-111844340D01*
X176310800Y-111844340D01*
X176310800Y-112645940D01*
X176310800Y-112645940D01*
G37*
G36*
X198012560Y-111375940D02*
G01*
X195910960Y-111375940D01*
X195910960Y-110574340D01*
X198012560Y-110574340D01*
X198012560Y-111375940D01*
X198012560Y-111375940D01*
G37*
G36*
X191312040Y-111375940D02*
G01*
X189210440Y-111375940D01*
X189210440Y-110574340D01*
X191312040Y-110574340D01*
X191312040Y-111375940D01*
X191312040Y-111375940D01*
G37*
G36*
X176310800Y-111375940D02*
G01*
X174209200Y-111375940D01*
X174209200Y-110574340D01*
X176310800Y-110574340D01*
X176310800Y-111375940D01*
X176310800Y-111375940D01*
G37*
G36*
X213013800Y-111375940D02*
G01*
X210912200Y-111375940D01*
X210912200Y-110574340D01*
X213013800Y-110574340D01*
X213013800Y-111375940D01*
X213013800Y-111375940D01*
G37*
G36*
X216942800Y-111040800D02*
G01*
X213841200Y-111040800D01*
X213841200Y-109939200D01*
X216942800Y-109939200D01*
X216942800Y-111040800D01*
X216942800Y-111040800D01*
G37*
G36*
X198012560Y-110105940D02*
G01*
X195910960Y-110105940D01*
X195910960Y-109304340D01*
X198012560Y-109304340D01*
X198012560Y-110105940D01*
X198012560Y-110105940D01*
G37*
G36*
X191312040Y-110105940D02*
G01*
X189210440Y-110105940D01*
X189210440Y-109304340D01*
X191312040Y-109304340D01*
X191312040Y-110105940D01*
X191312040Y-110105940D01*
G37*
G36*
X176310800Y-110105940D02*
G01*
X174209200Y-110105940D01*
X174209200Y-109304340D01*
X176310800Y-109304340D01*
X176310800Y-110105940D01*
X176310800Y-110105940D01*
G37*
G36*
X213013800Y-110105940D02*
G01*
X210912200Y-110105940D01*
X210912200Y-109304340D01*
X213013800Y-109304340D01*
X213013800Y-110105940D01*
X213013800Y-110105940D01*
G37*
G36*
X195070027Y-108854275D02*
G01*
X195097650Y-108862654D01*
X195123113Y-108876264D01*
X195145425Y-108894575D01*
X195163736Y-108916887D01*
X195177346Y-108942350D01*
X195185725Y-108969973D01*
X195188800Y-109001191D01*
X195188800Y-109392809D01*
X195185725Y-109424027D01*
X195177346Y-109451650D01*
X195163736Y-109477113D01*
X195145425Y-109499425D01*
X195123113Y-109517736D01*
X195097650Y-109531346D01*
X195070027Y-109539725D01*
X195038809Y-109542800D01*
X194597191Y-109542800D01*
X194565973Y-109539725D01*
X194538350Y-109531346D01*
X194512887Y-109517736D01*
X194490575Y-109499425D01*
X194472264Y-109477113D01*
X194458654Y-109451650D01*
X194450275Y-109424027D01*
X194447200Y-109392809D01*
X194447200Y-109001191D01*
X194450275Y-108969973D01*
X194458654Y-108942350D01*
X194472264Y-108916887D01*
X194490575Y-108894575D01*
X194512887Y-108876264D01*
X194538350Y-108862654D01*
X194565973Y-108854275D01*
X194597191Y-108851200D01*
X195038809Y-108851200D01*
X195070027Y-108854275D01*
X195070027Y-108854275D01*
G37*
G36*
X194054027Y-108854275D02*
G01*
X194081650Y-108862654D01*
X194107113Y-108876264D01*
X194129425Y-108894575D01*
X194147736Y-108916887D01*
X194161346Y-108942350D01*
X194169725Y-108969973D01*
X194172800Y-109001191D01*
X194172800Y-109392809D01*
X194169725Y-109424027D01*
X194161346Y-109451650D01*
X194147736Y-109477113D01*
X194129425Y-109499425D01*
X194107113Y-109517736D01*
X194081650Y-109531346D01*
X194054027Y-109539725D01*
X194022809Y-109542800D01*
X193581191Y-109542800D01*
X193549973Y-109539725D01*
X193522350Y-109531346D01*
X193496887Y-109517736D01*
X193474575Y-109499425D01*
X193456264Y-109477113D01*
X193442654Y-109451650D01*
X193434275Y-109424027D01*
X193431200Y-109392809D01*
X193431200Y-109001191D01*
X193434275Y-108969973D01*
X193442654Y-108942350D01*
X193456264Y-108916887D01*
X193474575Y-108894575D01*
X193496887Y-108876264D01*
X193522350Y-108862654D01*
X193549973Y-108854275D01*
X193581191Y-108851200D01*
X194022809Y-108851200D01*
X194054027Y-108854275D01*
X194054027Y-108854275D01*
G37*
G36*
X194054027Y-107884275D02*
G01*
X194081650Y-107892654D01*
X194107113Y-107906264D01*
X194129425Y-107924575D01*
X194147736Y-107946887D01*
X194161346Y-107972350D01*
X194169725Y-107999973D01*
X194172800Y-108031191D01*
X194172800Y-108422809D01*
X194169725Y-108454027D01*
X194161346Y-108481650D01*
X194147736Y-108507113D01*
X194129425Y-108529425D01*
X194107113Y-108547736D01*
X194081650Y-108561346D01*
X194054027Y-108569725D01*
X194022809Y-108572800D01*
X193581191Y-108572800D01*
X193549973Y-108569725D01*
X193522350Y-108561346D01*
X193496887Y-108547736D01*
X193474575Y-108529425D01*
X193456264Y-108507113D01*
X193442654Y-108481650D01*
X193434275Y-108454027D01*
X193431200Y-108422809D01*
X193431200Y-108031191D01*
X193434275Y-107999973D01*
X193442654Y-107972350D01*
X193456264Y-107946887D01*
X193474575Y-107924575D01*
X193496887Y-107906264D01*
X193522350Y-107892654D01*
X193549973Y-107884275D01*
X193581191Y-107881200D01*
X194022809Y-107881200D01*
X194054027Y-107884275D01*
X194054027Y-107884275D01*
G37*
G36*
X195070027Y-107884275D02*
G01*
X195097650Y-107892654D01*
X195123113Y-107906264D01*
X195145425Y-107924575D01*
X195163736Y-107946887D01*
X195177346Y-107972350D01*
X195185725Y-107999973D01*
X195188800Y-108031191D01*
X195188800Y-108422809D01*
X195185725Y-108454027D01*
X195177346Y-108481650D01*
X195163736Y-108507113D01*
X195145425Y-108529425D01*
X195123113Y-108547736D01*
X195097650Y-108561346D01*
X195070027Y-108569725D01*
X195038809Y-108572800D01*
X194597191Y-108572800D01*
X194565973Y-108569725D01*
X194538350Y-108561346D01*
X194512887Y-108547736D01*
X194490575Y-108529425D01*
X194472264Y-108507113D01*
X194458654Y-108481650D01*
X194450275Y-108454027D01*
X194447200Y-108422809D01*
X194447200Y-108031191D01*
X194450275Y-107999973D01*
X194458654Y-107972350D01*
X194472264Y-107946887D01*
X194490575Y-107924575D01*
X194512887Y-107906264D01*
X194538350Y-107892654D01*
X194565973Y-107884275D01*
X194597191Y-107881200D01*
X195038809Y-107881200D01*
X195070027Y-107884275D01*
X195070027Y-107884275D01*
G37*
G36*
X216942800Y-108500800D02*
G01*
X213841200Y-108500800D01*
X213841200Y-107399200D01*
X216942800Y-107399200D01*
X216942800Y-108500800D01*
X216942800Y-108500800D01*
G37*
G36*
X216942800Y-105960800D02*
G01*
X213841200Y-105960800D01*
X213841200Y-104859200D01*
X216942800Y-104859200D01*
X216942800Y-105960800D01*
X216942800Y-105960800D01*
G37*
G36*
X193673027Y-104051275D02*
G01*
X193700650Y-104059654D01*
X193726113Y-104073264D01*
X193748425Y-104091575D01*
X193766736Y-104113887D01*
X193780346Y-104139350D01*
X193788725Y-104166973D01*
X193791800Y-104198191D01*
X193791800Y-104589809D01*
X193788725Y-104621027D01*
X193780346Y-104648650D01*
X193766736Y-104674113D01*
X193748425Y-104696425D01*
X193726113Y-104714736D01*
X193700650Y-104728346D01*
X193673027Y-104736725D01*
X193641809Y-104739800D01*
X193200191Y-104739800D01*
X193168973Y-104736725D01*
X193141350Y-104728346D01*
X193115887Y-104714736D01*
X193093575Y-104696425D01*
X193075264Y-104674113D01*
X193061654Y-104648650D01*
X193053275Y-104621027D01*
X193050200Y-104589809D01*
X193050200Y-104198191D01*
X193053275Y-104166973D01*
X193061654Y-104139350D01*
X193075264Y-104113887D01*
X193093575Y-104091575D01*
X193115887Y-104073264D01*
X193141350Y-104059654D01*
X193168973Y-104051275D01*
X193200191Y-104048200D01*
X193641809Y-104048200D01*
X193673027Y-104051275D01*
X193673027Y-104051275D01*
G37*
G36*
X192657027Y-104028275D02*
G01*
X192684650Y-104036654D01*
X192710113Y-104050264D01*
X192732425Y-104068575D01*
X192750736Y-104090887D01*
X192764346Y-104116350D01*
X192772725Y-104143973D01*
X192775800Y-104175191D01*
X192775800Y-104566809D01*
X192772725Y-104598027D01*
X192764346Y-104625650D01*
X192750736Y-104651113D01*
X192732425Y-104673425D01*
X192710113Y-104691736D01*
X192684650Y-104705346D01*
X192657027Y-104713725D01*
X192625809Y-104716800D01*
X192184191Y-104716800D01*
X192152973Y-104713725D01*
X192125350Y-104705346D01*
X192099887Y-104691736D01*
X192077575Y-104673425D01*
X192059264Y-104651113D01*
X192045654Y-104625650D01*
X192037275Y-104598027D01*
X192034200Y-104566809D01*
X192034200Y-104175191D01*
X192037275Y-104143973D01*
X192045654Y-104116350D01*
X192059264Y-104090887D01*
X192077575Y-104068575D01*
X192099887Y-104050264D01*
X192125350Y-104036654D01*
X192152973Y-104028275D01*
X192184191Y-104025200D01*
X192625809Y-104025200D01*
X192657027Y-104028275D01*
X192657027Y-104028275D01*
G37*
G36*
X195553027Y-103518275D02*
G01*
X195580650Y-103526654D01*
X195606113Y-103540264D01*
X195628425Y-103558575D01*
X195646736Y-103580887D01*
X195660346Y-103606350D01*
X195668725Y-103633973D01*
X195671800Y-103665191D01*
X195671800Y-104106809D01*
X195668725Y-104138027D01*
X195660346Y-104165650D01*
X195646736Y-104191113D01*
X195628425Y-104213425D01*
X195606113Y-104231736D01*
X195580650Y-104245346D01*
X195553027Y-104253725D01*
X195521809Y-104256800D01*
X195130191Y-104256800D01*
X195098973Y-104253725D01*
X195071350Y-104245346D01*
X195045887Y-104231736D01*
X195023575Y-104213425D01*
X195005264Y-104191113D01*
X194991654Y-104165650D01*
X194983275Y-104138027D01*
X194980200Y-104106809D01*
X194980200Y-103665191D01*
X194983275Y-103633973D01*
X194991654Y-103606350D01*
X195005264Y-103580887D01*
X195023575Y-103558575D01*
X195045887Y-103540264D01*
X195071350Y-103526654D01*
X195098973Y-103518275D01*
X195130191Y-103515200D01*
X195521809Y-103515200D01*
X195553027Y-103518275D01*
X195553027Y-103518275D01*
G37*
G36*
X194583027Y-103518275D02*
G01*
X194610650Y-103526654D01*
X194636113Y-103540264D01*
X194658425Y-103558575D01*
X194676736Y-103580887D01*
X194690346Y-103606350D01*
X194698725Y-103633973D01*
X194701800Y-103665191D01*
X194701800Y-104106809D01*
X194698725Y-104138027D01*
X194690346Y-104165650D01*
X194676736Y-104191113D01*
X194658425Y-104213425D01*
X194636113Y-104231736D01*
X194610650Y-104245346D01*
X194583027Y-104253725D01*
X194551809Y-104256800D01*
X194160191Y-104256800D01*
X194128973Y-104253725D01*
X194101350Y-104245346D01*
X194075887Y-104231736D01*
X194053575Y-104213425D01*
X194035264Y-104191113D01*
X194021654Y-104165650D01*
X194013275Y-104138027D01*
X194010200Y-104106809D01*
X194010200Y-103665191D01*
X194013275Y-103633973D01*
X194021654Y-103606350D01*
X194035264Y-103580887D01*
X194053575Y-103558575D01*
X194075887Y-103540264D01*
X194101350Y-103526654D01*
X194128973Y-103518275D01*
X194160191Y-103515200D01*
X194551809Y-103515200D01*
X194583027Y-103518275D01*
X194583027Y-103518275D01*
G37*
G36*
X193673027Y-103081275D02*
G01*
X193700650Y-103089654D01*
X193726113Y-103103264D01*
X193748425Y-103121575D01*
X193766736Y-103143887D01*
X193780346Y-103169350D01*
X193788725Y-103196973D01*
X193791800Y-103228191D01*
X193791800Y-103619809D01*
X193788725Y-103651027D01*
X193780346Y-103678650D01*
X193766736Y-103704113D01*
X193748425Y-103726425D01*
X193726113Y-103744736D01*
X193700650Y-103758346D01*
X193673027Y-103766725D01*
X193641809Y-103769800D01*
X193200191Y-103769800D01*
X193168973Y-103766725D01*
X193141350Y-103758346D01*
X193115887Y-103744736D01*
X193093575Y-103726425D01*
X193075264Y-103704113D01*
X193061654Y-103678650D01*
X193053275Y-103651027D01*
X193050200Y-103619809D01*
X193050200Y-103228191D01*
X193053275Y-103196973D01*
X193061654Y-103169350D01*
X193075264Y-103143887D01*
X193093575Y-103121575D01*
X193115887Y-103103264D01*
X193141350Y-103089654D01*
X193168973Y-103081275D01*
X193200191Y-103078200D01*
X193641809Y-103078200D01*
X193673027Y-103081275D01*
X193673027Y-103081275D01*
G37*
G36*
X192657027Y-103058275D02*
G01*
X192684650Y-103066654D01*
X192710113Y-103080264D01*
X192732425Y-103098575D01*
X192750736Y-103120887D01*
X192764346Y-103146350D01*
X192772725Y-103173973D01*
X192775800Y-103205191D01*
X192775800Y-103596809D01*
X192772725Y-103628027D01*
X192764346Y-103655650D01*
X192750736Y-103681113D01*
X192732425Y-103703425D01*
X192710113Y-103721736D01*
X192684650Y-103735346D01*
X192657027Y-103743725D01*
X192625809Y-103746800D01*
X192184191Y-103746800D01*
X192152973Y-103743725D01*
X192125350Y-103735346D01*
X192099887Y-103721736D01*
X192077575Y-103703425D01*
X192059264Y-103681113D01*
X192045654Y-103655650D01*
X192037275Y-103628027D01*
X192034200Y-103596809D01*
X192034200Y-103205191D01*
X192037275Y-103173973D01*
X192045654Y-103146350D01*
X192059264Y-103120887D01*
X192077575Y-103098575D01*
X192099887Y-103080264D01*
X192125350Y-103066654D01*
X192152973Y-103058275D01*
X192184191Y-103055200D01*
X192625809Y-103055200D01*
X192657027Y-103058275D01*
X192657027Y-103058275D01*
G37*
G36*
X216942800Y-103420800D02*
G01*
X213841200Y-103420800D01*
X213841200Y-102319200D01*
X216942800Y-102319200D01*
X216942800Y-103420800D01*
X216942800Y-103420800D01*
G37*
G36*
X192961827Y-100192875D02*
G01*
X192989450Y-100201254D01*
X193014913Y-100214864D01*
X193037225Y-100233175D01*
X193055536Y-100255487D01*
X193069146Y-100280950D01*
X193077525Y-100308573D01*
X193080600Y-100339791D01*
X193080600Y-100731409D01*
X193077525Y-100762627D01*
X193069146Y-100790250D01*
X193055536Y-100815713D01*
X193037225Y-100838025D01*
X193014913Y-100856336D01*
X192989450Y-100869946D01*
X192961827Y-100878325D01*
X192930609Y-100881400D01*
X192488991Y-100881400D01*
X192457773Y-100878325D01*
X192430150Y-100869946D01*
X192404687Y-100856336D01*
X192382375Y-100838025D01*
X192364064Y-100815713D01*
X192350454Y-100790250D01*
X192342075Y-100762627D01*
X192339000Y-100731409D01*
X192339000Y-100339791D01*
X192342075Y-100308573D01*
X192350454Y-100280950D01*
X192364064Y-100255487D01*
X192382375Y-100233175D01*
X192404687Y-100214864D01*
X192430150Y-100201254D01*
X192457773Y-100192875D01*
X192488991Y-100189800D01*
X192930609Y-100189800D01*
X192961827Y-100192875D01*
X192961827Y-100192875D01*
G37*
G36*
X216942800Y-100880800D02*
G01*
X213841200Y-100880800D01*
X213841200Y-99779200D01*
X216942800Y-99779200D01*
X216942800Y-100880800D01*
X216942800Y-100880800D01*
G37*
G36*
X195070027Y-99837275D02*
G01*
X195097650Y-99845654D01*
X195123113Y-99859264D01*
X195145425Y-99877575D01*
X195163736Y-99899887D01*
X195177346Y-99925350D01*
X195185725Y-99952973D01*
X195188800Y-99984191D01*
X195188800Y-100375809D01*
X195185725Y-100407027D01*
X195177346Y-100434650D01*
X195163736Y-100460113D01*
X195145425Y-100482425D01*
X195123113Y-100500736D01*
X195097650Y-100514346D01*
X195070027Y-100522725D01*
X195038809Y-100525800D01*
X194597191Y-100525800D01*
X194565973Y-100522725D01*
X194538350Y-100514346D01*
X194512887Y-100500736D01*
X194490575Y-100482425D01*
X194472264Y-100460113D01*
X194458654Y-100434650D01*
X194450275Y-100407027D01*
X194447200Y-100375809D01*
X194447200Y-99984191D01*
X194450275Y-99952973D01*
X194458654Y-99925350D01*
X194472264Y-99899887D01*
X194490575Y-99877575D01*
X194512887Y-99859264D01*
X194538350Y-99845654D01*
X194565973Y-99837275D01*
X194597191Y-99834200D01*
X195038809Y-99834200D01*
X195070027Y-99837275D01*
X195070027Y-99837275D01*
G37*
G36*
X192961827Y-99222875D02*
G01*
X192989450Y-99231254D01*
X193014913Y-99244864D01*
X193037225Y-99263175D01*
X193055536Y-99285487D01*
X193069146Y-99310950D01*
X193077525Y-99338573D01*
X193080600Y-99369791D01*
X193080600Y-99761409D01*
X193077525Y-99792627D01*
X193069146Y-99820250D01*
X193055536Y-99845713D01*
X193037225Y-99868025D01*
X193014913Y-99886336D01*
X192989450Y-99899946D01*
X192961827Y-99908325D01*
X192930609Y-99911400D01*
X192488991Y-99911400D01*
X192457773Y-99908325D01*
X192430150Y-99899946D01*
X192404687Y-99886336D01*
X192382375Y-99868025D01*
X192364064Y-99845713D01*
X192350454Y-99820250D01*
X192342075Y-99792627D01*
X192339000Y-99761409D01*
X192339000Y-99369791D01*
X192342075Y-99338573D01*
X192350454Y-99310950D01*
X192364064Y-99285487D01*
X192382375Y-99263175D01*
X192404687Y-99244864D01*
X192430150Y-99231254D01*
X192457773Y-99222875D01*
X192488991Y-99219800D01*
X192930609Y-99219800D01*
X192961827Y-99222875D01*
X192961827Y-99222875D01*
G37*
G36*
X195070027Y-98867275D02*
G01*
X195097650Y-98875654D01*
X195123113Y-98889264D01*
X195145425Y-98907575D01*
X195163736Y-98929887D01*
X195177346Y-98955350D01*
X195185725Y-98982973D01*
X195188800Y-99014191D01*
X195188800Y-99405809D01*
X195185725Y-99437027D01*
X195177346Y-99464650D01*
X195163736Y-99490113D01*
X195145425Y-99512425D01*
X195123113Y-99530736D01*
X195097650Y-99544346D01*
X195070027Y-99552725D01*
X195038809Y-99555800D01*
X194597191Y-99555800D01*
X194565973Y-99552725D01*
X194538350Y-99544346D01*
X194512887Y-99530736D01*
X194490575Y-99512425D01*
X194472264Y-99490113D01*
X194458654Y-99464650D01*
X194450275Y-99437027D01*
X194447200Y-99405809D01*
X194447200Y-99014191D01*
X194450275Y-98982973D01*
X194458654Y-98955350D01*
X194472264Y-98929887D01*
X194490575Y-98907575D01*
X194512887Y-98889264D01*
X194538350Y-98875654D01*
X194565973Y-98867275D01*
X194597191Y-98864200D01*
X195038809Y-98864200D01*
X195070027Y-98867275D01*
X195070027Y-98867275D01*
G37*
G36*
X192987227Y-98313275D02*
G01*
X193014850Y-98321654D01*
X193040313Y-98335264D01*
X193062625Y-98353575D01*
X193080936Y-98375887D01*
X193094546Y-98401350D01*
X193102925Y-98428973D01*
X193106000Y-98460191D01*
X193106000Y-98851809D01*
X193102925Y-98883027D01*
X193094546Y-98910650D01*
X193080936Y-98936113D01*
X193062625Y-98958425D01*
X193040313Y-98976736D01*
X193014850Y-98990346D01*
X192987227Y-98998725D01*
X192956009Y-99001800D01*
X192514391Y-99001800D01*
X192483173Y-98998725D01*
X192455550Y-98990346D01*
X192430087Y-98976736D01*
X192407775Y-98958425D01*
X192389464Y-98936113D01*
X192375854Y-98910650D01*
X192367475Y-98883027D01*
X192364400Y-98851809D01*
X192364400Y-98460191D01*
X192367475Y-98428973D01*
X192375854Y-98401350D01*
X192389464Y-98375887D01*
X192407775Y-98353575D01*
X192430087Y-98335264D01*
X192455550Y-98321654D01*
X192483173Y-98313275D01*
X192514391Y-98310200D01*
X192956009Y-98310200D01*
X192987227Y-98313275D01*
X192987227Y-98313275D01*
G37*
G36*
X194384227Y-97960075D02*
G01*
X194411850Y-97968454D01*
X194437313Y-97982064D01*
X194459625Y-98000375D01*
X194477936Y-98022687D01*
X194491546Y-98048150D01*
X194499925Y-98075773D01*
X194503000Y-98106991D01*
X194503000Y-98498609D01*
X194499925Y-98529827D01*
X194491546Y-98557450D01*
X194477936Y-98582913D01*
X194459625Y-98605225D01*
X194437313Y-98623536D01*
X194411850Y-98637146D01*
X194384227Y-98645525D01*
X194353009Y-98648600D01*
X193911391Y-98648600D01*
X193880173Y-98645525D01*
X193852550Y-98637146D01*
X193827087Y-98623536D01*
X193804775Y-98605225D01*
X193786464Y-98582913D01*
X193772854Y-98557450D01*
X193764475Y-98529827D01*
X193761400Y-98498609D01*
X193761400Y-98106991D01*
X193764475Y-98075773D01*
X193772854Y-98048150D01*
X193786464Y-98022687D01*
X193804775Y-98000375D01*
X193827087Y-97982064D01*
X193852550Y-97968454D01*
X193880173Y-97960075D01*
X193911391Y-97957000D01*
X194353009Y-97957000D01*
X194384227Y-97960075D01*
X194384227Y-97960075D01*
G37*
G36*
X216942800Y-98340800D02*
G01*
X213841200Y-98340800D01*
X213841200Y-97239200D01*
X216942800Y-97239200D01*
X216942800Y-98340800D01*
X216942800Y-98340800D01*
G37*
G36*
X192987227Y-97343275D02*
G01*
X193014850Y-97351654D01*
X193040313Y-97365264D01*
X193062625Y-97383575D01*
X193080936Y-97405887D01*
X193094546Y-97431350D01*
X193102925Y-97458973D01*
X193106000Y-97490191D01*
X193106000Y-97881809D01*
X193102925Y-97913027D01*
X193094546Y-97940650D01*
X193080936Y-97966113D01*
X193062625Y-97988425D01*
X193040313Y-98006736D01*
X193014850Y-98020346D01*
X192987227Y-98028725D01*
X192956009Y-98031800D01*
X192514391Y-98031800D01*
X192483173Y-98028725D01*
X192455550Y-98020346D01*
X192430087Y-98006736D01*
X192407775Y-97988425D01*
X192389464Y-97966113D01*
X192375854Y-97940650D01*
X192367475Y-97913027D01*
X192364400Y-97881809D01*
X192364400Y-97490191D01*
X192367475Y-97458973D01*
X192375854Y-97431350D01*
X192389464Y-97405887D01*
X192407775Y-97383575D01*
X192430087Y-97365264D01*
X192455550Y-97351654D01*
X192483173Y-97343275D01*
X192514391Y-97340200D01*
X192956009Y-97340200D01*
X192987227Y-97343275D01*
X192987227Y-97343275D01*
G37*
G36*
X194384227Y-96990075D02*
G01*
X194411850Y-96998454D01*
X194437313Y-97012064D01*
X194459625Y-97030375D01*
X194477936Y-97052687D01*
X194491546Y-97078150D01*
X194499925Y-97105773D01*
X194503000Y-97136991D01*
X194503000Y-97528609D01*
X194499925Y-97559827D01*
X194491546Y-97587450D01*
X194477936Y-97612913D01*
X194459625Y-97635225D01*
X194437313Y-97653536D01*
X194411850Y-97667146D01*
X194384227Y-97675525D01*
X194353009Y-97678600D01*
X193911391Y-97678600D01*
X193880173Y-97675525D01*
X193852550Y-97667146D01*
X193827087Y-97653536D01*
X193804775Y-97635225D01*
X193786464Y-97612913D01*
X193772854Y-97587450D01*
X193764475Y-97559827D01*
X193761400Y-97528609D01*
X193761400Y-97136991D01*
X193764475Y-97105773D01*
X193772854Y-97078150D01*
X193786464Y-97052687D01*
X193804775Y-97030375D01*
X193827087Y-97012064D01*
X193852550Y-96998454D01*
X193880173Y-96990075D01*
X193911391Y-96987000D01*
X194353009Y-96987000D01*
X194384227Y-96990075D01*
X194384227Y-96990075D01*
G37*
G36*
X193879027Y-95847475D02*
G01*
X193906650Y-95855854D01*
X193932113Y-95869464D01*
X193954425Y-95887775D01*
X193972736Y-95910087D01*
X193986346Y-95935550D01*
X193994725Y-95963173D01*
X193997800Y-95994391D01*
X193997800Y-96436009D01*
X193994725Y-96467227D01*
X193986346Y-96494850D01*
X193972736Y-96520313D01*
X193954425Y-96542625D01*
X193932113Y-96560936D01*
X193906650Y-96574546D01*
X193879027Y-96582925D01*
X193847809Y-96586000D01*
X193456191Y-96586000D01*
X193424973Y-96582925D01*
X193397350Y-96574546D01*
X193371887Y-96560936D01*
X193349575Y-96542625D01*
X193331264Y-96520313D01*
X193317654Y-96494850D01*
X193309275Y-96467227D01*
X193306200Y-96436009D01*
X193306200Y-95994391D01*
X193309275Y-95963173D01*
X193317654Y-95935550D01*
X193331264Y-95910087D01*
X193349575Y-95887775D01*
X193371887Y-95869464D01*
X193397350Y-95855854D01*
X193424973Y-95847475D01*
X193456191Y-95844400D01*
X193847809Y-95844400D01*
X193879027Y-95847475D01*
X193879027Y-95847475D01*
G37*
G36*
X192909027Y-95847475D02*
G01*
X192936650Y-95855854D01*
X192962113Y-95869464D01*
X192984425Y-95887775D01*
X193002736Y-95910087D01*
X193016346Y-95935550D01*
X193024725Y-95963173D01*
X193027800Y-95994391D01*
X193027800Y-96436009D01*
X193024725Y-96467227D01*
X193016346Y-96494850D01*
X193002736Y-96520313D01*
X192984425Y-96542625D01*
X192962113Y-96560936D01*
X192936650Y-96574546D01*
X192909027Y-96582925D01*
X192877809Y-96586000D01*
X192486191Y-96586000D01*
X192454973Y-96582925D01*
X192427350Y-96574546D01*
X192401887Y-96560936D01*
X192379575Y-96542625D01*
X192361264Y-96520313D01*
X192347654Y-96494850D01*
X192339275Y-96467227D01*
X192336200Y-96436009D01*
X192336200Y-95994391D01*
X192339275Y-95963173D01*
X192347654Y-95935550D01*
X192361264Y-95910087D01*
X192379575Y-95887775D01*
X192401887Y-95869464D01*
X192427350Y-95855854D01*
X192454973Y-95847475D01*
X192486191Y-95844400D01*
X192877809Y-95844400D01*
X192909027Y-95847475D01*
X192909027Y-95847475D01*
G37*
G36*
X216942800Y-95800800D02*
G01*
X213841200Y-95800800D01*
X213841200Y-94699200D01*
X216942800Y-94699200D01*
X216942800Y-95800800D01*
X216942800Y-95800800D01*
G37*
M02*
